<?xml version="1.0" encoding="UTF-8" standalone="no"?>
<svg
   xmlns:dc="http://purl.org/dc/elements/1.1/"
   xmlns:cc="http://creativecommons.org/ns#"
   xmlns:rdf="http://www.w3.org/1999/02/22-rdf-syntax-ns#"
   xmlns:svg="http://www.w3.org/2000/svg"
   xmlns="http://www.w3.org/2000/svg"
   xmlns:sodipodi="http://sodipodi.sourceforge.net/DTD/sodipodi-0.dtd"
   xmlns:inkscape="http://www.inkscape.org/namespaces/inkscape"
   version="1.0"
   width="477.000000pt"
   height="318.000000pt"
   viewBox="0 0 477.000000 318.000000"
   preserveAspectRatio="xMidYMid meet"
   id="svg2"
   inkscape:version="0.48.3.1 r9886"
   sodipodi:docname="Bilyayivka_Flag.svg">
  <defs
     id="defs28" />
  <sodipodi:namedview
     pagecolor="#ffffff"
     bordercolor="#666666"
     borderopacity="1"
     objecttolerance="10"
     gridtolerance="10"
     guidetolerance="10"
     inkscape:pageopacity="0"
     inkscape:pageshadow="2"
     inkscape:window-width="1920"
     inkscape:window-height="1018"
     id="namedview26"
     showgrid="false"
     inkscape:zoom="1.6792674"
     inkscape:cx="298.54043"
     inkscape:cy="167.94738"
     inkscape:window-x="-8"
     inkscape:window-y="-8"
     inkscape:window-maximized="1"
     inkscape:current-layer="svg2" />
  <metadata
     id="metadata4">
Created by potrace 1.11, written by Peter Selinger 2001-2013
<rdf:RDF>
  <cc:Work
     rdf:about="">
    <dc:format>image/svg+xml</dc:format>
    <dc:type
       rdf:resource="http://purl.org/dc/dcmitype/StillImage" />
  </cc:Work>
</rdf:RDF>
</metadata>
  <rect
     style="fill:#0000ff;fill-opacity:1"
     id="rect3025"
     width="597.28424"
     height="397.79251"
     x="0"
     y="-0.29250795"
     transform="scale(0.8,0.8)" />
  <g
     transform="matrix(0.1,0,0,-0.1,-1.367367,317.6455)"
     id="g6"
     style="fill:#000000;stroke:none">
    <path
       d="m 2115,3102 c -6,-4 -25,-35 -42,-69 l -32,-62 24,-58 c 48,-115 135,-343 135,-353 0,-6 7,-22 16,-35 16,-25 17,-25 179,-25 149,0 164,2 189,21 14,11 26,25 26,31 0,15 105,253 150,339 10,19 21,51 25,70 6,30 1,41 -34,86 -23,28 -48,54 -57,57 -23,9 -567,7 -579,-2 z m 592,-69 c 35,-41 39,-57 22,-100 -6,-15 -15,-37 -19,-48 -4,-11 -18,-45 -32,-75 -14,-30 -36,-79 -49,-109 -13,-30 -35,-77 -49,-105 l -25,-51 -150,2 -150,1 -9,28 c -9,28 -19,55 -50,127 -7,17 -24,59 -36,92 -12,33 -30,78 -40,100 -31,70 -32,75 -1,129 l 30,51 263,-2 263,-2 32,-38 z"
       id="path8"
       inkscape:connector-curvature="0" />
    <path
       d="m 3278,2847 c -56,-21 -57,-22 -88,-97 -18,-41 -49,-111 -70,-155 -71,-149 -100,-214 -100,-220 0,-4 54,-60 119,-126 79,-79 127,-119 141,-119 27,0 168,47 197,66 12,8 29,14 36,14 8,0 48,13 88,29 41,16 86,32 100,35 58,13 70,34 72,121 l 2,80 -199,198 c -138,137 -205,197 -220,196 -11,0 -46,-10 -78,-22 z m 276,-205 186,-184 -6,-55 c -6,-49 -11,-57 -43,-77 -20,-13 -65,-33 -101,-46 -36,-12 -78,-28 -95,-35 -32,-14 -129,-50 -183,-68 -33,-11 -33,-11 -139,95 l -106,106 37,72 c 20,40 36,76 36,81 0,8 15,42 85,195 32,70 33,70 86,85 30,9 55,15 56,15 1,-1 85,-83 187,-184 z"
       id="path10"
       inkscape:connector-curvature="0" />
    <path
       d="m 1435,2821 c -16,-10 -115,-104 -218,-208 l -188,-190 21,-47 c 11,-26 20,-53 20,-60 0,-22 32,-43 115,-79 44,-19 107,-47 140,-62 33,-16 92,-43 132,-62 40,-18 76,-33 80,-33 13,0 253,244 253,257 0,12 -63,185 -117,323 -14,36 -31,80 -38,98 -19,53 -43,69 -110,76 -50,6 -65,3 -90,-13 z m 132,-46 c 13,-4 56,-92 83,-170 9,-27 36,-99 59,-159 l 42,-110 -104,-104 -104,-104 -74,32 c -41,18 -90,39 -109,47 -19,8 -63,28 -98,44 -35,16 -67,29 -71,29 -16,0 -73,33 -76,44 -2,6 -10,32 -17,58 l -15,47 186,185 186,184 50,-9 c 28,-5 55,-11 62,-14 z"
       id="path12"
       inkscape:connector-curvature="0" />
    <path
       d="m 2363,2048 c -13,-6 -23,-17 -23,-23 0,-7 -6,-18 -14,-24 -18,-15 -49,-74 -66,-124 l -12,-39 -27,26 c -15,14 -30,26 -33,26 -4,0 -22,14 -40,30 -54,50 -117,83 -132,70 -33,-26 -42,-156 -17,-223 6,-16 7,-29 1,-32 -14,-9 -61,6 -80,25 -30,30 -174,80 -230,80 -42,0 -50,-3 -50,-19 0,-10 8,-29 18,-42 10,-13 21,-32 25,-41 3,-10 10,-18 14,-18 5,0 31,-30 58,-66 42,-56 87,-106 200,-225 8,-9 15,-19 15,-24 0,-21 247,-283 300,-318 39,-25 227,-26 266,-1 48,30 156,134 206,198 64,82 58,74 113,137 65,73 116,136 136,168 17,27 106,133 157,187 42,44 56,73 40,79 -57,20 -151,5 -284,-45 -84,-33 -90,-28 -99,72 -4,50 -13,90 -22,100 -14,16 -20,15 -84,-18 -38,-20 -83,-52 -102,-75 -21,-24 -40,-37 -49,-34 -17,7 -48,57 -48,77 0,8 -9,23 -20,33 -11,10 -20,23 -20,30 0,14 -52,65 -66,64 -5,0 -19,-5 -31,-11 z m 58,-57 c 9,-18 24,-40 31,-49 8,-9 24,-51 37,-92 13,-41 27,-85 33,-96 14,-31 16,-344 2,-369 -6,-11 -14,-37 -18,-57 -6,-34 -5,-38 14,-38 16,0 27,14 46,55 13,31 24,62 24,69 0,26 75,138 143,213 66,72 154,143 177,143 6,0 29,9 51,21 22,11 46,18 52,16 7,-2 29,2 49,10 41,17 71,11 66,-11 -2,-8 -37,-51 -78,-95 -41,-44 -91,-101 -110,-126 -35,-47 -79,-97 -144,-169 -20,-21 -36,-44 -36,-50 0,-6 -16,-26 -35,-46 -19,-19 -57,-59 -85,-89 -28,-29 -78,-73 -113,-97 -59,-42 -66,-44 -133,-44 -84,0 -91,5 -215,132 -99,102 -113,117 -199,223 -36,44 -82,98 -103,120 -21,22 -45,52 -53,68 -8,15 -18,27 -23,27 -9,0 -99,114 -108,136 -7,20 12,18 89,-10 86,-31 190,-89 227,-127 16,-16 32,-29 36,-29 4,0 30,-26 58,-57 29,-31 62,-67 75,-79 17,-16 28,-47 41,-110 14,-75 20,-88 41,-96 29,-11 50,6 32,24 -7,7 -12,29 -12,49 0,21 -4,40 -9,43 -15,9 -23,84 -23,201 -1,114 8,181 23,191 5,3 9,15 9,28 0,25 44,121 59,131 6,3 18,22 27,41 20,41 31,40 55,-5 z m -358,-52 c 20,-11 71,-51 124,-98 22,-19 22,-24 16,-148 -3,-70 -6,-129 -7,-130 -1,-1 -23,25 -49,57 -26,33 -58,62 -72,66 -14,3 -25,9 -25,13 0,3 -7,37 -15,74 -15,74 -17,177 -3,177 5,0 19,-5 31,-11 z m 697,-93 0,-103 -70,-74 c -38,-40 -70,-81 -70,-90 0,-9 -6,-22 -14,-28 -12,-11 -15,2 -19,81 -2,51 -8,105 -12,120 -10,36 16,91 50,106 14,6 25,16 25,21 0,10 88,71 102,71 4,0 8,-47 8,-104 z"
       id="path14"
       inkscape:connector-curvature="0" />
    <path
       d="m 860,1955 c -7,-8 -18,-15 -25,-15 -7,0 -31,-20 -54,-45 l -41,-45 0,-268 c 0,-304 -6,-280 86,-327 50,-25 102,-32 119,-16 6,5 39,19 75,31 36,13 83,31 105,41 22,10 73,29 113,43 129,43 122,31 122,212 0,90 -4,164 -11,175 -10,19 -111,74 -229,124 -30,13 -94,42 -142,64 -98,46 -101,47 -118,26 z m 175,-97 c 95,-42 172,-77 243,-111 l 42,-20 0,-146 0,-146 -122,-49 c -68,-26 -162,-63 -209,-82 -48,-19 -92,-34 -99,-34 -7,0 -33,12 -59,26 l -46,26 0,264 c 0,252 1,264 20,278 11,8 29,21 40,30 28,22 80,12 190,-36 z"
       id="path16"
       inkscape:connector-curvature="0" />
    <path
       d="m 3890,1890 c -8,-5 -25,-10 -36,-10 -12,0 -32,-8 -45,-19 -13,-10 -37,-21 -54,-23 -30,-6 -122,-37 -180,-63 -16,-7 -44,-18 -62,-25 -18,-7 -37,-17 -42,-24 -5,-6 -12,-85 -14,-174 l -4,-163 25,-19 c 14,-11 29,-20 34,-20 5,0 98,-41 208,-91 155,-71 206,-90 226,-85 15,4 48,28 75,54 l 49,47 1,270 c 0,149 -3,278 -7,288 -8,22 -98,67 -133,67 -14,0 -33,-5 -41,-10 z m 139,-340 1,-265 -40,-33 c -35,-29 -44,-32 -77,-26 -21,4 -58,16 -83,27 -158,68 -230,101 -289,131 l -43,22 0,139 c 0,174 0,165 14,165 11,0 282,104 353,135 52,23 59,23 112,-4 l 52,-26 0,-265 z"
       id="path18"
       inkscape:connector-curvature="0" />
    <path
       d="m 1445,1019 c -44,-17 -100,-37 -125,-46 -57,-19 -165,-60 -210,-79 -60,-26 -74,-57 -71,-157 1,-35 15,-51 200,-237 109,-110 205,-200 214,-200 26,0 125,41 140,59 8,9 33,59 55,111 22,52 63,144 91,204 31,64 49,116 46,127 -3,10 -30,42 -59,71 -110,109 -185,178 -193,178 -4,-1 -44,-15 -88,-31 z m 197,-116 c 54,-54 98,-101 98,-106 0,-4 -8,-27 -19,-50 -10,-23 -33,-76 -51,-117 -18,-41 -40,-93 -50,-115 -10,-22 -27,-61 -38,-87 -19,-44 -24,-48 -77,-63 l -57,-17 -30,29 c -17,15 -102,98 -189,183 l -157,156 11,57 c 10,47 17,61 43,76 40,24 373,150 399,151 12,0 58,-38 117,-97 z"
       id="path20"
       inkscape:connector-curvature="0" />
    <path
       d="M 3203,908 C 3075,781 3066,768 3079,743 c 5,-10 19,-47 31,-83 12,-36 26,-74 31,-85 8,-20 71,-185 91,-240 19,-51 45,-65 124,-65 l 72,0 198,201 c 118,119 198,207 197,217 -4,34 -29,110 -40,124 -7,8 -72,41 -145,72 -73,32 -169,76 -213,97 -44,22 -87,39 -95,39 -7,0 -65,-51 -127,-112 z m 312,-18 c 100,-44 187,-80 194,-80 20,0 51,-39 51,-65 0,-14 6,-34 12,-45 12,-18 -4,-36 -172,-205 -195,-195 -190,-192 -272,-179 -33,6 -39,12 -67,69 -18,35 -38,83 -46,107 -19,59 -44,127 -60,163 -22,50 -37,106 -31,113 25,28 202,202 205,202 2,0 86,-36 186,-80 z"
       id="path22"
       inkscape:connector-curvature="0" />
    <path
       d="m 2243,663 c -11,-10 -41,-67 -68,-128 -49,-113 -105,-235 -133,-292 -14,-27 -14,-36 -3,-57 29,-53 73,-96 109,-106 43,-11 541,-14 559,-2 22,14 75,124 70,146 -3,12 -21,59 -40,106 -19,47 -45,112 -57,145 -12,33 -30,79 -41,103 -10,23 -19,48 -19,56 0,7 -8,20 -18,29 -16,14 -44,17 -179,17 -139,0 -163,-2 -180,-17 z m 335,-50 c 16,-43 82,-216 91,-238 34,-84 54,-132 61,-145 4,-9 -4,-35 -21,-65 l -28,-50 -268,-2 -268,-2 -32,44 c -40,55 -44,40 67,290 35,77 69,152 77,168 l 14,27 148,0 149,0 10,-27 z"
       id="path24"
       inkscape:connector-curvature="0" />
  </g>
  <path
     style="fill:#f9f9f9;fill-opacity:1"
     d="m 287.19402,258.83331 c -4.56271,-2.20321 -24.34975,-22.3156 -38.24702,-38.8759 -5.93332,-7.07028 -12.68926,-14.99885 -15.01321,-17.61904 -2.32394,-2.62019 -5.33005,-6.37183 -6.68025,-8.33697 -1.35019,-1.96514 -3.72021,-4.77887 -5.26672,-6.25273 -4.13433,-3.94012 -12.16649,-14.69738 -12.17333,-16.30342 -0.007,-1.60298 12.3983,2.55302 22.05542,7.38907 8.36454,4.18876 11.61059,6.27483 18.49036,11.88284 6.11323,4.98317 20.17445,19.27369 21.73152,22.08591 1.0678,1.92855 2.30494,6.1945 3.78671,13.05746 1.57758,7.30671 2.22374,8.80246 4.2568,9.8538 2.15424,1.11399 3.79681,1.09746 4.94404,-0.0498 0.8229,-0.8229 0.80326,-1.13735 -0.19528,-3.12636 -0.61061,-1.21629 -1.28696,-3.90835 -1.503,-5.98234 -0.21604,-2.07399 -0.90291,-4.75373 -1.52636,-5.95498 -3.19639,-6.1586 -3.17832,-41.15555 0.0244,-47.30012 0.65173,-1.25036 1.46317,-3.51487 1.80323,-5.03224 0.99968,-4.46079 4.08297,-11.27526 6.75654,-14.93281 1.36738,-1.87063 3.22519,-4.67403 4.12846,-6.22976 0.98027,-1.68836 2.06666,-2.82862 2.69498,-2.82862 0.68929,0 2.3733,2.10709 4.87826,6.10385 3.07091,4.89978 4.56133,8.21833 7.55537,16.82282 4.75005,13.65101 5.09994,16.46558 4.77486,38.4096 -0.23531,15.88423 -0.33836,17.20063 -1.6083,20.54468 -0.74627,1.96514 -1.3931,4.91285 -1.43737,6.55047 -0.0728,2.69363 0.0519,2.99624 1.30848,3.17422 2.78657,0.39467 5.56455,-3.68116 8.45452,-12.40443 2.16077,-6.52224 4.45005,-10.86676 9.25677,-17.56719 10.20569,-14.22645 24.06772,-27.26907 31.91586,-30.02924 1.74579,-0.61399 4.6704,-1.78974 6.49913,-2.61276 1.82873,-0.82303 4.64246,-1.67492 6.25273,-1.8931 1.61027,-0.21818 4.13364,-0.75411 5.6075,-1.19096 5.53142,-1.63951 8.33697,-1.45133 8.33697,0.55917 0,1.08952 -3.38492,5.31454 -12.12378,15.13276 -3.97708,4.46832 -9.63976,11.07191 -12.58372,14.67467 -2.94397,3.60277 -8.52265,10.16813 -12.39708,14.5897 -3.87442,4.42157 -7.82143,9.39699 -8.77112,11.05648 -2.41989,4.22856 -17.50731,19.74642 -24.98854,25.70147 -3.439,2.73744 -7.83638,5.76977 -9.77196,6.73852 -3.31988,1.66159 -3.92885,1.76136 -10.75091,1.76136 -6.58988,0 -7.51952,-0.13899 -10.47497,-1.56609 z"
     id="path3052"
     inkscape:connector-curvature="0"
     transform="scale(0.8,0.8)" />
  <path
     style="fill:#f9f9f9;fill-opacity:1"
     d="m 267.57455,195.44273 c -4.89821,-5.85798 -7.67906,-8.34536 -10.77719,-9.63984 -1.95756,-0.81792 -2.06931,-1.04216 -3.06528,-6.15089 -1.96488,-10.07867 -2.29275,-13.06877 -2.11584,-19.29622 0.16598,-5.8431 0.26,-6.26449 1.43512,-6.43223 2.57068,-0.36694 19.52171,12.89792 20.31133,15.89444 0.2253,0.85497 0.41645,3.16234 0.42479,5.12748 0.0286,6.73682 -0.98243,25.90417 -1.36464,25.87139 -0.21013,-0.018 -2.39187,-2.43638 -4.84829,-5.37413 z"
     id="path3054"
     inkscape:connector-curvature="0"
     transform="scale(0.8,0.8)" />
  <path
     style="fill:#f9f9f9;fill-opacity:1"
     d="m 322.72029,202.18949 c -0.17369,-0.57316 -0.60458,-5.06173 -0.95753,-9.97458 -0.35295,-4.91286 -0.91078,-10.64988 -1.23961,-12.74893 -0.93935,-5.99619 0.63872,-10.58234 4.66031,-13.54364 1.23124,-0.90662 3.61433,-2.91766 5.29575,-4.46898 3.28443,-3.03026 10.07083,-7.64806 11.23975,-7.64806 0.91497,0 1.4838,6.55347 1.4838,17.09466 l 0,7.9825 -7.75771,8.45272 c -5.44099,5.92845 -8.29545,9.56419 -9.55838,12.17457 -1.8564,3.83704 -2.61986,4.48317 -3.16638,2.67974 z"
     id="path3056"
     inkscape:connector-curvature="0"
     transform="scale(0.8,0.8)" />
  <path
     style="fill:#ffff00;fill-opacity:1"
     d="m 103.00409,235.1778 -6.039654,-3.11788 0,-32.42796 c 0,-25.25518 0.168593,-32.72304 0.762206,-33.762 0.419213,-0.73373 2.229161,-2.44161 4.022108,-3.79529 6.75848,-5.10271 10.74412,-4.10624 43.15326,10.78894 8.67938,3.98903 16.38743,7.54094 17.12902,7.89313 l 1.34833,0.64034 -0.15734,18.13605 -0.15733,18.13604 -11.61221,4.60257 c -22.73364,9.01062 -35.48108,13.91028 -38.92043,14.95964 l -3.48831,1.0643 -6.03965,-3.11788 z"
     id="path3058"
     inkscape:connector-curvature="0"
     transform="scale(0.8,0.8)" />
  <path
     style="fill:#ffff00;fill-opacity:1"
     d="m 173.78365,123.36291 c -8.84314,-3.91893 -19.61822,-8.54753 -23.94461,-10.28576 -11.10729,-4.46264 -11.42562,-4.75774 -13.86542,-12.85311 l -2.00242,-6.644134 22.88081,-22.886604 c 16.3506,-16.354736 23.25758,-22.886604 24.20092,-22.886604 0.72606,0 4.01945,0.574783 7.31865,1.277296 5.18501,1.104065 6.16197,1.506811 7.20357,2.969597 2.32883,3.270544 5.89431,11.737924 13.62369,32.353812 l 7.80239,20.810647 -12.67113,12.68142 c -6.96912,6.97478 -13.07543,12.66057 -13.56957,12.6351 -0.49414,-0.0255 -8.13374,-3.25272 -16.97688,-7.17166 z"
     id="path3060"
     inkscape:connector-curvature="0"
     transform="scale(0.8,0.8)" />
  <path
     style="fill:#ffff00;fill-opacity:1"
     d="m 287.41509,78.328066 -7.25461,-0.186992 -0.70146,-2.215115 c -0.3858,-1.218311 -4.85163,-12.654 -9.92407,-25.412646 -7.61829,-19.162203 -9.16453,-23.555446 -8.88873,-25.255011 0.18363,-1.13161 1.6668,-4.359392 3.29592,-7.172848 l 2.96203,-5.115375 32.91122,0.232828 c 32.60324,0.23065 32.92119,0.244582 33.97661,1.488745 6.96317,8.208418 7.47516,9.983283 4.91447,17.036606 -1.79911,4.955571 -11.83553,27.676341 -17.42697,39.451727 l -3.60528,7.592597 -11.50226,-0.128759 c -6.32625,-0.07082 -14.76684,-0.212908 -18.75687,-0.315757 l 0,0 z"
     id="path3062"
     inkscape:connector-curvature="0"
     transform="scale(0.8,0.8)" />
  <path
     style="fill:#ffff00;fill-opacity:1"
     d="m 404.1077,121.70542 c -2.2192,-1.9338 -8.14408,-7.654 -13.16642,-12.71157 l -9.13152,-9.19558 4.00212,-7.981978 c 2.20116,-4.390089 4.49109,-9.400478 5.08873,-11.134198 2.16389,-6.277357 13.25884,-30.003093 14.80392,-31.657109 1.48469,-1.589365 6.35578,-3.466914 11.8403,-4.563819 1.85188,-0.370376 2.51437,0.228095 24.87793,22.473808 l 22.97539,22.854316 -0.36104,4.466234 c -0.71063,8.790806 -1.8713,10.463816 -9.8171,14.150526 -8.56243,3.97282 -43.44647,16.81536 -45.67535,16.81536 -0.85852,0 -2.96629,-1.36307 -5.43696,-3.51599 z"
     id="path3064"
     inkscape:connector-curvature="0"
     transform="scale(0.8,0.8)" />
  <path
     style="fill:#ffff00;fill-opacity:1"
     d="m 481.95374,241.97574 c -5.92049,-2.01791 -30.08355,-12.67104 -39.74947,-17.52494 l -6.69935,-3.3642 0,-8.83239 c 0,-4.85781 0.17392,-13.24231 0.38649,-18.63223 l 0.3865,-9.79986 5.69932,-1.94985 c 3.13462,-1.07242 14.2826,-5.33819 24.77328,-9.47949 13.36322,-5.27527 19.8156,-7.5358 21.55103,-7.55021 1.75449,-0.0146 4.05614,0.75344 7.89034,2.63281 l 5.41329,2.65336 0,33.11396 0,33.11397 -1.63762,1.52593 c -0.90069,0.83926 -2.93102,2.49725 -4.51185,3.6844 -3.64233,2.73529 -6.42843,2.81963 -13.50196,0.40874 l 0,0 z"
     id="path3066"
     inkscape:connector-curvature="0"
     transform="scale(0.8,0.8)" />
  <path
     style="fill:#ffff00;fill-opacity:1"
     d="m 414.73411,357.41815 c -1.43448,-0.28181 -3.24393,-0.92897 -4.021,-1.43814 -1.8713,-1.22611 -8.4494,-14.75802 -11.43611,-23.52538 -1.28311,-3.76652 -3.98907,-11.0917 -6.01325,-16.27817 -2.02418,-5.18647 -3.81927,-10.67994 -3.98909,-12.2077 l -0.30877,-2.77776 12.69943,-12.62715 12.69943,-12.62714 19.35367,8.324 c 10.64453,4.5782 21.63146,9.16035 24.41541,10.18254 6.33425,2.32577 9.25645,5.08452 9.8736,9.3213 0.22319,1.53226 0.80423,3.79696 1.29119,5.03267 0.85293,2.16437 0.82501,2.33905 -0.76131,4.76399 -0.90569,1.38448 -10.38333,11.25123 -21.06141,21.92613 -23.31242,23.30544 -23.86404,23.67492 -32.74179,21.93081 l 0,0 z"
     id="path3068"
     inkscape:connector-curvature="0"
     transform="scale(0.8,0.8)" />
  <path
     style="fill:#ffff00;fill-opacity:1"
     d="m 263.50718,378.92912 c -1.73813,-2.38224 -3.41579,-5.00348 -3.72812,-5.82497 -0.77618,-2.04149 -0.18216,-4.81398 2.45753,-11.47013 2.61834,-6.60229 15.05938,-34.37426 18.13147,-40.47462 l 2.1089,-4.18771 18.30407,0.004 18.30407,0.004 5.92535,15.62778 c 3.25895,8.59528 7.88011,20.27621 10.26926,25.95761 3.22196,7.66186 4.24897,10.73795 3.97637,11.90996 -0.20214,0.86907 -1.58811,3.92489 -3.07993,6.79073 l -2.7124,5.2106 -10.76231,6e-4 c -5.91927,4.6e-4 -20.94844,0.17687 -33.39816,0.392 l -22.63585,0.39116 -3.16025,-4.33133 0,2.5e-4 z"
     id="path3070"
     inkscape:connector-curvature="0"
     transform="scale(0.8,0.8)" />
  <path
     style="fill:#ffff00;fill-opacity:1"
     d="m 172.8904,347.19605 c -3.439,-3.34734 -13.95339,-13.68798 -23.36532,-22.97922 l -17.1126,-16.89315 1.15793,-5.30543 c 1.34761,-6.17453 2.58644,-9.06246 4.3858,-10.22411 3.36446,-2.17206 33.86997,-14.18336 46.42924,-18.28115 3.43324,-1.12018 4.31698,-1.21182 5.7925,-0.60063 2.182,0.90381 12.36276,10.27368 19.86035,18.27849 l 5.69315,6.07828 -0.8125,2.25869 c -0.44687,1.24227 -5.25359,12.44169 -10.68161,24.88759 -6.68617,15.33073 -10.36015,23.05567 -11.39164,23.95212 -1.18884,1.0332 -11.8573,4.95743 -13.38115,4.92206 -0.17678,-0.004 -3.13515,-2.7462 -6.57415,-6.09354 z"
     id="path3072"
     inkscape:connector-curvature="0"
     transform="scale(0.8,0.8)" />
</svg>
