<?xml version="1.0" encoding="UTF-8" standalone="no"?>
<svg
   xmlns:dc="http://purl.org/dc/elements/1.1/"
   xmlns:cc="http://creativecommons.org/ns#"
   xmlns:rdf="http://www.w3.org/1999/02/22-rdf-syntax-ns#"
   xmlns:svg="http://www.w3.org/2000/svg"
   xmlns="http://www.w3.org/2000/svg"
   xmlns:sodipodi="http://sodipodi.sourceforge.net/DTD/sodipodi-0.dtd"
   xmlns:inkscape="http://www.inkscape.org/namespaces/inkscape"
   height="374.46875"
   viewBox="0 0 300 374.46875"
   width="300"
   version="1.1"
   id="svg2"
   inkscape:version="0.48.2 r9819"
   sodipodi:docname="Coat_of_Arms_of_Odessa.svg">
  <metadata
     id="metadata115">
    <rdf:RDF>
      <cc:Work
         rdf:about="">
        <dc:format>image/svg+xml</dc:format>
        <dc:type
           rdf:resource="http://purl.org/dc/dcmitype/StillImage" />
      </cc:Work>
    </rdf:RDF>
  </metadata>
  <defs
     id="defs113" />
  <sodipodi:namedview
     pagecolor="#ffffff"
     bordercolor="#666666"
     borderopacity="1"
     objecttolerance="10"
     gridtolerance="10"
     guidetolerance="10"
     inkscape:pageopacity="0"
     inkscape:pageshadow="2"
     inkscape:window-width="1366"
     inkscape:window-height="706"
     id="namedview111"
     showgrid="false"
     fit-margin-bottom="2"
     fit-margin-top="0"
     fit-margin-left="0"
     fit-margin-right="0"
     inkscape:zoom="1.3862181"
     inkscape:cx="151.00225"
     inkscape:cy="186.78887"
     inkscape:window-x="-8"
     inkscape:window-y="-8"
     inkscape:window-maximized="1"
     inkscape:current-layer="XMLID_3_" />
  <g
     id="XMLID_3_"
     transform="translate(-96.71875,-153.09375)">
    <path
       style="fill:#ff0000;stroke:#000000;stroke-width:1.98675501;stroke-miterlimit:4;stroke-opacity:1;stroke-dasharray:none"
       d="m 97.714377,154.09622 0,236.42384 c 0,38.11824 44.335273,133.85338 149.006623,134.04387 104.67135,-0.19049 149.00662,-95.92563 149.00662,-134.04387 l 0,-236.42384 c -99.33775,0 -198.67549,0 -298.013243,0 z"
       id="path3869"
       inkscape:connector-curvature="0"
       sodipodi:nodetypes="cscscc" />
    <g
       id="g3880"
       transform="matrix(0.99337748,0,0,0.99337748,0.64053642,3.480512)">
      <path
         sodipodi:nodetypes="sscsccccsccccccccsccsccccccccsccccsccsccccccccccccscsccsccccccccscccscsssscccsscscscss"
         inkscape:connector-curvature="0"
         id="path7"
         transform="translate(97.721,151.61981)"
         d="m 149.34375,53.9375 c -13.72624,0 -24.875,11.14876 -24.875,24.875 0,10.13598 5.9983,19.04539 14.96875,22.875 l -4.84375,0 c -0.28097,0 -0.55227,0.10437 -0.75,0.3125 -0.19772,0.19773 -0.29166,0.46903 -0.28125,0.75 l 4.40625,107.8125 0,0.0312 c -0.14569,1.4257 -3.03217,24.46875 -25.40625,24.46875 -11.62412,0 -18.25177,-8.65892 -20.0625,-11.40625 l 5.03125,-3.1875 c 0.30179,-0.17691 0.45834,-0.48993 0.46875,-0.84375 0.0104,-0.34342 -0.15652,-0.66687 -0.4375,-0.875 -7.73206,-5.45304 -18.17718,-20.56266 -18.28125,-20.71875 -0.23935,-0.35383 -0.68792,-0.52072 -1.125,-0.40625 -0.40585,0.10407 -0.73962,0.43793 -0.78125,0.875 -0.14569,1.06147 -3.08707,25.90705 3.78125,37.4375 0.19772,0.3122 0.52118,0.5 0.875,0.5 0.36423,0 0.71893,-0.18781 0.90625,-0.5 L 86,230.84375 c 2.63286,4.19384 11.0153,15.125 26.75,15.125 14.1425,0 21.75349,-6.56693 25.34375,-11.125 -4.31871,23.18579 -22.72926,31.39697 -33.53125,32.5625 -11.2807,1.20716 -21.17546,-3.66721 -30.21875,-14.9375 l 7.0625,-3.09375 c 0.37464,-0.1665 0.60419,-0.5108 0.625,-0.90625 C 82.06245,248.0733 81.85383,247.69773 81.5,247.5 70.67719,241.57868 56.16651,218.8227 56,218.59375 c -0.22894,-0.38504 -0.70877,-0.56238 -1.15625,-0.4375 -0.44748,0.12487 -0.78125,0.54211 -0.78125,1 0,1.44651 -0.17203,35.84937 5.03125,52.34375 0.12487,0.40585 0.45874,0.67712 0.875,0.71875 0.41626,0.0312 0.82312,-0.18786 1.03125,-0.5625 L 66.5,261 c 8.80394,14.2986 24.27167,20.625 35.84375,20.625 0.45789,0 0.90667,-0.0104 1.34375,-0.0312 32.67656,-1.47773 42.95067,-29.27139 45.78125,-40.5625 3.22603,11.56168 14.53156,40.59375 47,40.59375 l 0.0625,0 c 9.40752,-0.0104 30.20271,-8.82282 35.125,-19.4375 l 6.40625,9.9375 c 0.20813,0.34341 0.61499,0.53119 1.03125,0.46875 0.40586,-0.0728 0.73969,-0.35455 0.84375,-0.75 7.03483,-27.20272 4.18747,-50.57315 4.15625,-50.8125 -0.052,-0.45789 -0.39627,-0.79174 -0.84375,-0.875 -0.44748,-0.0833 -0.91687,0.13581 -1.125,0.53125 -0.0937,0.17692 -9.48256,17.67352 -23.6875,24.71875 -0.30179,0.14569 -0.51047,0.41699 -0.5625,0.75 -0.0624,0.32261 0.0523,0.63565 0.28125,0.875 l 5.65625,6.15625 c -2.09171,2.83058 -11.32813,13.96875 -27.40625,13.96875 -23.00888,0 -32.09688,-20.3335 -35.3125,-31.21875 3.86083,4.45401 11.32531,10.03125 24.5,10.03125 15.7243,0 24.12755,-10.94157 26.75,-15.125 l 3.0625,5.09375 c 0.18732,0.31219 0.54203,0.5 0.90625,0.5 0.36423,0 0.68768,-0.1878 0.875,-0.5 6.86832,-11.53045 3.91654,-36.37603 3.78125,-37.4375 -0.052,-0.43707 -0.36498,-0.77093 -0.78125,-0.875 -0.41626,-0.11447 -0.8544,0.0628 -1.09375,0.40625 -0.10407,0.15609 -10.58043,15.26571 -18.3125,20.71875 -0.28098,0.19772 -0.4479,0.53158 -0.4375,0.875 0.0104,0.35382 0.17736,0.66684 0.46875,0.84375 l 5.03125,3.1875 c -1.81074,2.74733 -8.40717,11.40625 -20.0625,11.40625 -21.02123,0 -24.7922,-19.952 -25.34375,-24.15625 l 4.875,-108.1563 c 0.0104,-0.28097 -0.11482,-0.54186 -0.3125,-0.75 -0.19772,-0.20813 -0.43777,-0.3125 -0.71875,-0.3125 l -5.3125,0 C 168.04327,97.81626 174.25,88.8236 174.25,78.8125 c 0,-13.72624 -11.19041,-24.875 -24.90625,-24.875 z m 0,11.09375 c 7.59678,0 13.78125,6.17407 13.78125,13.78125 0,5.51547 -3.22357,10.40837 -8.1875,12.59375 l -0.0312,-0.8125 c 0,-0.0416 0.0104,-0.08342 0,-0.125 -0.15609,-1.05106 -1.04384,-3.03125 -3.28125,-3.03125 l -0.0312,0 c -1.17594,0 -1.99011,0.46936 -2.53125,1.09375 -0.60358,-0.64521 -1.43856,-1.15625 -2.53125,-1.15625 -2.3831,0 -3.41687,2.01144 -3.625,3.0625 -0.0104,0.0624 0,0.11465 0,0.1875 l 0,0.34375 c -4.50604,-2.37269 -7.34375,-6.98419 -7.34375,-12.15625 0,-7.60718 6.17407,-13.78125 13.78125,-13.78125 z" />
      <g
         style="fill:#ffffff"
         transform="matrix(1.0406549,0,0,1.0406549,-3.9728393,-21.326635)"
         id="g79">
        <path
           inkscape:connector-curvature="0"
           id="path81"
           d="m 231.06,387.19 v 0.01 c -0.73,1.58 -6.85,13.37 -24.99,13.37 -17.3,0 -24.7,-14.79 -24.77,-14.94 -0.16,-0.33 -0.49,-0.54 -0.85,-0.56 -0.38,-0.03 -0.72,0.17 -0.91,0.48 l -2.91,4.81 c -4.12,-8.81 -3.34,-24.36 -2.82,-30.54 2.96,4.08 9.58,12.76 15.33,17.34 l -4.43,2.8 c -0.45,0.28 -0.6,0.86 -0.35,1.32 0.29,0.53 7.11,12.78 21.54,12.78 15.61,0 22.08,-10.72 24.7,-18.22 l 0.46,11.35 z" />
        <path
           inkscape:connector-curvature="0"
           id="path83"
           d="m 308.33,359.83 c 0.52,6.17 1.3,21.72 -2.82,30.54 l -2.92,-4.82 c -0.19,-0.31 -0.54,-0.51 -0.9,-0.48 -0.36,0.02 -0.69,0.23 -0.85,0.56 -0.07,0.15 -7.47,14.94 -24.77,14.94 -17.39,0 -23.66,-10.65 -24.9,-13.17 -0.05,-0.27 -0.08,-0.45 -0.1,-0.55 l 0.5,-11.04 c 2.62,7.47 9.1,18.26 24.67,18.26 14.43,0 21.25,-12.26 21.54,-12.78 0.25,-0.47 0.1,-1.05 -0.35,-1.33 l -4.43,-2.8 c 5.75,-4.58 12.37,-13.26 15.33,-17.33 z" />
        <path
           inkscape:connector-curvature="0"
           id="path85"
           d="m 151.71,380.13 c 3.94,5.84 13.42,19.07 21.7,24.62 l -6.24,2.73 c -0.28,0.13 -0.49,0.37 -0.57,0.67 -0.07,0.3 -0.01,0.62 0.18,0.86 9.37,12.14 19.72,17.43 31.65,16.13 11.66,-1.25 32.07,-10.59 34.64,-37.65 v -0.09 -0.04 l -0.77,-18.73 c 0.01,-0.02 0.01,-0.05 0.01,-0.07 0,-0.06 -0.01,-0.12 -0.02,-0.18 v -0.02 L 228.11,265.9 h 12.98 13.43 l -4.61,102.3 c -0.06,0.13 -0.08,0.28 -0.07,0.44 0,0 0.01,0.1 0.04,0.3 l -0.81,17.92 c 0,0.06 0,0.12 0.01,0.18 0,0 0.01,0.04 0.02,0.12 v 0.01 c -0.04,0.19 -0.04,0.38 0.03,0.57 0,0 0.03,0.1 0.12,0.28 1.24,6.45 8.66,36.88 37.2,36.88 18.7,0 28.07,-14.35 28.46,-14.96 0.25,-0.38 0.2,-0.88 -0.11,-1.22 l -5.11,-5.54 c 10.35,-5.62 17.77,-16.22 20.87,-21.24 0.47,6.7 0.96,23.51 -3.65,42.72 l -6,-9.3 c -0.22,-0.34 -0.6,-0.52 -1,-0.46 -0.39,0.08 -0.71,0.36 -0.81,0.74 -2.42,9.48 -22.62,19.14 -32.53,19.16 h -0.05 c -37.02,0 -44.19,-41.4 -44.25,-41.82 -0.08,-0.49 -0.49,-0.84 -1.01,-0.84 -0.5,0.01 -0.91,0.38 -0.97,0.88 -0.05,0.4 -5.42,40.05 -43.01,41.75 -9.24,0.4 -26.12,-4.68 -34.84,-20.37 -0.17,-0.31 -0.51,-0.51 -0.87,-0.51 h -0.02 c -0.36,0.01 -0.7,0.21 -0.87,0.54 l -4.96,9.63 c -3.37,-13.15 -3.93,-35.5 -4.01,-43.93 z" />
        <path
           inkscape:connector-curvature="0"
           id="path87"
           d="m 242.05,253.39 c 0.02,-0.1 0.08,-0.37 0.25,-0.62 0.2,-0.29 0.54,-0.57 1.11,-0.57 0.87,0 1.12,0.89 1.17,1.17 l 0.04,2.08 v 0.03 c 0,0.02 0,0.03 0.01,0.05 l 0.16,7.98 c -0.79,0.11 -1.85,0.19 -2.74,0.25 v -10.37 z" />
        <path
           inkscape:connector-curvature="0"
           id="path89"
           d="m 237.03,253.39 c 0.09,-0.33 0.44,-1.23 1.5,-1.23 0.87,0 1.36,0.94 1.52,1.3 v 10.28 c -1.07,-0.07 -2.23,-0.18 -3.09,-0.32 l 0.06,-8.22 v -0.06 l 0.01,-1.75 z" />
        <path
           inkscape:connector-curvature="0"
           id="path91"
           d="m 263.15,241.94 c 0,9.85 -6.81,18.55 -16.37,21.14 l -0.14,-6.9 c 5.91,-2.24 9.84,-7.88 9.84,-14.26 0,-8.41 -6.83,-15.25 -15.24,-15.25 -8.41,0 -15.26,6.84 -15.26,15.25 0,6.06 3.52,11.45 9.03,13.9 l -0.05,7.12 c -9.28,-2.74 -15.64,-11.21 -15.64,-21 0,-12.09 9.83,-21.92 21.92,-21.92 12.08,0 21.91,9.83 21.91,21.92 z" />
      </g>
    </g>
  </g>
</svg>
