<?xml version="1.0" encoding="UTF-8"?>
<!-- Creator: CorelDRAW X8 -->
<svg xmlns="http://www.w3.org/2000/svg" xml:space="preserve" version="1.1" style="fill-rule:evenodd;"
viewBox="1148 1068 570 760"
 xmlns:xlink="http://www.w3.org/1999/xlink">
     <g style="stroke:#000;stroke-width:3.15133;stroke-linecap:round;stroke-linejoin:round">
      <g>
       <path fill="#EAC102" d="M1477 1500c-8,-13 -17,-25 -17,-43 -1,-2 -2,-5 -3,-8 -4,-11 -12,-22 -24,-22 -1,0 -1,0 -2,0 -22,2 -32,23 -33,41 -1,13 10,24 16,35 6,9 4,29 15,37 -1,27 4,41 16,56 2,3 -1,25 -1,25 -2,3 -9,6 -19,7 0,6 2,11 0,16 -2,6 -10,7 -13,12 -3,6 -1,14 -4,20 -2,5 -10,12 -13,17 -3,5 -3,15 -6,20 -5,7 -13,8 -18,20 56,38 116,76 144,89 -1,-47 0,-108 18,-149 30,10 59,12 84,10 16,-2 23,-10 23,-27 1,-11 2,-20 5,-31 2,-8 10,-7 13,-11 2,-2 2,-9 -1,-12 -6,0 -26,-11 -26,-11 11,2 20,0 31,0 2,1 2,2 6,2 -3,-9 -4,-18 -1,-27 9,-6 39,-15 36,-21 -12,-24 -17,-53 -20,-92 -2,-14 3,-29 -2,-46 -3,3 -6,4 -11,5 -4,2 -10,2 -15,3 -4,3 -8,3 -12,6 -4,9 -9,11 -20,22 -6,7 -5,18 -10,26 -2,3 -8,4 -11,7 -5,6 -5,15 -11,20 -6,5 -14,5 -21,9 -5,3 -9,9 -15,12 -6,2 -14,-1 -21,0 -6,1 -13,6 -20,4 -7,-1 -13,-7 -20,-11 -6,-4 -13,-5 -17,-10zm-23 -33c1,7 -4,13 -2,23 0,3 4,8 6,14 2,3 -1,7 -6,3 -3,-2 -5,-6 -10,-7 -4,-2 -6,1 -9,2 -5,-6 -6,-16 -1,-25 5,-11 16,-7 22,-10zm-2 -12c-8,6 -14,-1 -25,16 -1,-12 11,-19 14,-30 3,1 6,3 8,7 2,2 2,4 3,7zm200 36c-13,-3 -18,-10 -24,-13 10,-1 13,-5 32,-4 3,1 6,3 9,1 0,2 0,3 0,5 0,4 -1,8 -5,10 -4,3 -8,2 -12,1zm-1 -29c-10,1 -18,5 -28,8 9,-6 17,-14 27,-17 8,-3 16,-2 24,-1 2,0 1,3 1,5 -1,2 -2,5 -4,5 -7,1 -14,-1 -20,0zm-224 9c11,-17 17,-10 25,-16 -1,-3 -1,-5 -3,-7 -2,-4 -5,-6 -8,-7 -3,11 -15,18 -14,30zm27 -4c-6,3 -17,-1 -22,10 -5,9 -4,19 1,25 3,-1 5,-4 9,-2 5,1 7,5 10,7 5,4 8,0 6,-3 -2,-6 -6,-11 -6,-14 -2,-10 3,-16 2,-23zm208 124c-11,0 -20,2 -31,0 0,0 20,11 26,11 5,-2 8,-5 11,-9 -4,0 -4,-1 -6,-2z"/>
       <path fill="#EAC102" d="M1395 1693c3,-5 11,-12 13,-17 3,-6 1,-14 4,-20 3,-5 11,-6 13,-12 2,-5 0,-10 0,-16 -9,2 -20,3 -33,3 1,5 3,10 1,14 0,0 -8,4 -10,9 -3,7 0,12 -1,14 -2,5 -6,1 -13,12 -2,4 1,10 -1,14 -3,3 -9,3 -11,7 -3,6 -2,14 -3,20 6,4 12,8 17,12 5,-12 13,-13 18,-20 3,-5 3,-15 6,-20zm-26 -13c7,-11 11,-7 13,-12 1,-2 -2,-7 1,-14 2,-5 10,-9 10,-9 2,-4 0,-9 -1,-14 -8,0 -18,1 -28,1 -3,3 -7,5 -9,8 -1,5 3,10 1,14 -3,5 -11,6 -13,12 -3,4 1,10 -1,14 -2,5 -8,6 -10,11 -2,4 0,10 0,15 7,5 15,10 22,15 1,-6 0,-14 3,-20 2,-4 8,-4 11,-7 2,-4 -1,-10 1,-14zm-26 -14c2,-6 10,-7 13,-12 2,-4 -2,-9 -1,-14 2,-3 6,-5 9,-8 -10,0 -21,0 -32,-1 -2,3 -4,5 -5,8 -1,5 1,10 -1,15 -3,5 -10,6 -12,11 -2,5 2,11 1,16 -1,3 -5,5 -7,8 7,5 15,11 24,17 0,-5 -2,-11 0,-15 2,-5 8,-6 10,-11 2,-4 -2,-10 1,-14zm-17 -12c2,-5 0,-10 1,-15 1,-3 3,-5 5,-8 -8,0 -16,0 -24,0 -2,3 -5,7 -6,11 -1,4 3,9 1,13 -1,4 -7,5 -10,8 -2,4 -2,9 -4,13 6,4 12,8 19,13 2,-3 6,-5 7,-8 1,-5 -3,-11 -1,-16 2,-5 9,-6 12,-11zm-23 1c2,-4 -2,-9 -1,-13 1,-4 4,-8 6,-11 -11,-1 -20,-1 -29,-2 1,5 3,10 2,14 -2,4 -7,5 -9,9 -1,4 0,8 0,12 5,3 11,7 17,12 2,-4 2,-9 4,-13 3,-3 9,-4 10,-8zm379 -289c-1,4 3,9 2,14 -1,5 -7,8 -9,13 -1,4 3,7 2,11 -1,3 -4,6 -7,8 5,-1 8,-2 11,-5 15,-15 14,-47 8,-66 -1,-4 -4,-8 -6,-11 3,5 4,14 3,19 0,6 -4,11 -4,17zm2 14c1,-5 -3,-10 -2,-14 0,-6 4,-11 4,-17 1,-5 0,-14 -3,-19 -3,-4 -5,-7 -8,-11 -1,1 -2,2 -3,2 2,5 5,10 5,15 1,3 -2,6 -3,10 -1,5 2,10 0,15 -2,5 -9,8 -10,13 -2,5 2,9 1,13 -2,5 -6,7 -8,11 -3,5 5,12 -2,17 5,-1 11,-1 15,-3 3,-2 6,-5 7,-8 1,-4 -3,-7 -2,-11 2,-5 8,-8 9,-13zm-20 -6c1,-5 8,-8 10,-13 2,-5 -1,-10 0,-15 1,-4 4,-7 3,-10 0,-5 -3,-10 -5,-15 -2,1 -4,2 -6,3 0,7 2,14 -1,21 -2,6 -10,10 -12,17 -2,7 1,14 -1,21 -1,5 -7,9 -8,15 -2,7 2,16 -1,23 4,-3 8,-3 12,-6 7,-5 -1,-12 2,-17 2,-4 6,-6 8,-11 1,-4 -3,-8 -1,-13zm-11 -12c2,-7 10,-11 12,-17 3,-7 1,-14 1,-21 -6,3 -12,5 -17,8 -1,4 0,9 -2,13 -3,5 -9,7 -11,13 -3,6 1,13 -1,19 -2,6 -10,9 -12,14 -2,9 4,19 -1,29 -3,4 -14,4 -17,10 -4,6 2,15 -2,21 -3,6 -13,4 -17,9 -5,5 -4,14 -10,18 -5,5 -13,2 -19,6 -4,2 -3,10 -8,11 -6,2 -12,-4 -19,-4 -5,0 -9,7 -14,6 -5,-1 -6,-10 -11,-12 -6,-3 -15,0 -20,-4 -4,-3 -2,-11 -5,-15 -3,-5 -8,-7 -12,-10 -3,-3 -7,-5 -11,-7 1,3 2,6 3,8 0,18 9,30 17,43 4,5 11,6 17,10 7,4 13,10 20,11 7,2 14,-3 20,-4 7,-1 15,2 21,0 6,-3 10,-9 15,-12 7,-4 15,-4 21,-9 6,-5 6,-14 11,-20 3,-3 9,-4 11,-7 5,-8 4,-19 10,-26 11,-11 16,-13 20,-22 3,-7 -1,-16 1,-23 1,-6 7,-10 8,-15 2,-7 -1,-14 1,-21zm-18 15c2,-6 -2,-13 1,-19 2,-6 8,-8 11,-13 2,-4 1,-9 2,-13 -9,4 -18,8 -28,12 -1,3 -1,7 -3,10 -2,3 -6,4 -7,8 -3,6 -1,12 -3,18 -1,4 -7,5 -8,8 -2,6 1,12 -1,18 -2,4 -9,4 -11,9 -2,4 1,10 -2,15 -2,4 -10,3 -13,7 -3,4 0,9 -2,13 -2,3 -5,5 -8,5 -5,1 -10,-2 -14,0 -4,1 -2,7 -5,9 -9,6 -14,-1 -21,-2 -9,-1 -6,8 -20,-1 -4,-2 -4,-9 -8,-12 -4,-3 -11,-1 -16,-4 -3,-2 -2,-8 -4,-11 -1,-3 -2,-6 -4,-8 -4,-2 -10,0 -14,-2 -3,0 -6,-2 -8,-4 -2,-1 -3,-5 -5,-5 -5,-2 -9,0 -14,1l1 11c1,0 1,0 2,0 12,0 20,11 24,22 4,2 8,4 11,7 4,3 9,5 12,10 3,4 1,12 5,15 5,4 14,1 20,4 5,2 6,11 11,12 5,1 9,-6 14,-6 7,0 13,6 19,4 5,-1 4,-9 8,-11 6,-4 14,-1 19,-6 6,-4 5,-13 10,-18 4,-5 14,-3 17,-9 4,-6 -2,-15 2,-21 3,-6 14,-6 17,-10 5,-10 -1,-20 1,-29 2,-5 10,-8 12,-14zm-27 3c2,-6 0,-12 3,-18 1,-4 5,-5 7,-8 2,-3 2,-7 3,-10 -10,5 -21,9 -32,14 -1,9 -7,12 -9,19 -1,4 2,11 0,15 -2,6 -8,4 -11,10 -4,6 -1,15 -6,21 -4,5 -14,3 -20,6 -5,3 -7,12 -13,13 -4,0 -6,-8 -11,-9 -5,-2 -11,3 -16,0 -6,-4 -7,-13 -13,-18 -3,-3 -9,0 -13,-2 -3,-2 -3,-7 -6,-8 -4,-2 -8,0 -13,-2 -10,2 -19,5 -28,7l0 6c5,-1 9,-3 14,-1 2,0 3,4 5,5 2,2 5,4 8,4 4,2 10,0 14,2 2,2 3,5 4,8 2,3 1,9 4,11 5,3 12,1 16,4 4,3 4,10 8,12 14,9 11,0 20,1 7,1 12,8 21,2 3,-2 1,-8 5,-9 4,-2 9,1 14,0 3,0 6,-2 8,-5 2,-4 -1,-9 2,-13 3,-4 11,-3 13,-7 3,-5 0,-11 2,-15 2,-5 9,-5 11,-9 2,-6 -1,-12 1,-18 1,-3 7,-4 8,-8zm-28 -3c2,-7 8,-10 9,-19 -8,3 -16,6 -23,9 2,5 -6,10 -7,16 -1,4 1,9 -1,12 -4,4 -11,4 -15,8 -3,3 -1,10 -5,12 -4,1 -8,-4 -13,-4 -4,-1 -9,1 -13,-1 -4,-2 -6,-8 -10,-10 -6,-3 -15,-1 -19,-5 -8,3 -17,5 -25,8 5,2 9,0 13,2 3,1 3,6 6,8 4,2 10,-1 13,2 6,5 7,14 13,18 5,3 11,-2 16,0 5,1 7,9 11,9 6,-1 8,-10 13,-13 6,-3 16,-1 20,-6 5,-6 2,-15 6,-21 3,-6 9,-4 11,-10 2,-4 -1,-11 0,-15zm-21 6c1,-6 9,-11 7,-16 -7,2 -13,5 -19,7 -1,5 0,9 -3,13 -3,3 -9,-1 -14,0 -2,1 -3,4 -5,4 -4,1 -9,1 -12,0 -2,-1 -3,-2 -4,-4 -9,3 -17,6 -26,8 4,4 13,2 19,5 4,2 6,8 10,10 4,2 9,0 13,1 5,0 9,5 13,4 4,-2 2,-9 5,-12 4,-4 11,-4 15,-8 2,-3 0,-8 1,-12zm-15 4c3,-4 2,-8 3,-13 -13,5 -25,9 -38,13 1,2 2,3 4,4 3,1 8,1 12,0 2,0 3,-3 5,-4 5,-1 11,3 14,0z"/>
       <path fill="#EAC102" d="M1623 1470c10,-3 18,-7 28,-8 6,-1 13,1 20,0 2,0 3,-3 4,-5 0,-2 1,-5 -1,-5 -8,-1 -16,-2 -24,1 -10,3 -18,11 -27,17z"/>
       <path fill="#EAC102" d="M1445 1596c-12,-15 -17,-29 -16,-56 -11,-8 -9,-28 -15,-37 -6,-11 -17,-22 -16,-35 -37,15 -88,31 -108,31 9,24 13,50 2,75 -9,19 -24,24 -42,26 -2,0 0,28 0,28 4,0 15,1 29,1 9,1 18,1 29,2 8,0 16,0 24,0 11,1 22,1 32,1 10,0 20,-1 28,-1 13,0 24,-1 33,-3 10,-1 17,-4 19,-7 0,0 3,-22 1,-25zm-47 -128c1,-18 11,-39 33,-41l-1 -11 0 -6c-7,2 -13,2 -18,-1 -3,-2 -7,-6 -9,-11 -4,-13 -13,-47 5,-52 84,-24 157,-48 220,-72 -26,-21 -73,-42 -112,-55 -61,-21 -123,-16 -179,21 -60,40 -85,97 -85,170 0,42 20,69 38,89 20,0 71,-16 108,-31zm14 -59c5,3 11,3 18,1 9,-2 18,-5 28,-7 8,-3 17,-5 25,-8 9,-2 17,-5 26,-8 13,-4 25,-8 38,-13 6,-2 12,-5 19,-7 7,-3 15,-6 23,-9 11,-5 22,-9 32,-14 10,-4 19,-8 28,-12 5,-3 11,-5 17,-8 2,-1 4,-2 6,-3 1,0 2,-1 3,-2 0,-18 2,-34 5,-49 2,-11 -10,-12 -17,-9 -12,5 -23,9 -35,13 -63,24 -136,48 -220,72 -18,5 -9,39 -5,52 2,5 6,9 9,11z"/>
       <path fill="#EAC102" d="M1658 1475c-4,0 -8,4 -8,8 0,5 4,8 8,8 5,0 8,-3 8,-8 0,-4 -3,-8 -8,-8z"/>
       <path fill="#EAC102" d="M1650 1483c0,-4 4,-8 8,-8 5,0 8,4 8,8 0,5 -3,8 -8,8 -4,0 -8,-3 -8,-8zm19 -8c-3,2 -6,0 -9,-1 -19,-1 -22,3 -32,4 6,3 11,10 24,13 4,1 8,2 12,-1 4,-2 5,-6 5,-10 0,-2 0,-3 0,-5z"/>
       <g>
        <path fill="none" d="M1460 1527c-1,10 -12,16 -23,16 -3,0 -6,-1 -8,-3"/>
        <path fill="none" d="M1533 1673c-16,-5 -31,-10 -43,-17"/>
        <path fill="none" d="M1652 1540c-5,14 -3,21 3,23 5,0 7,-5 12,-7 3,-1 9,-2 7,2"/>
        <path fill="none" d="M1671 1471c0,2 -1,3 -2,4"/>
        <path fill="none" d="M1441 1441c-4,-2 -8,-2 -14,-1 -9,2 -18,14 -18,27 0,13 8,18 12,28 6,12 10,47 32,32"/>
        <path fill="none" d="M1454 1467c-1,-3 -1,-8 -2,-12"/>
       </g>
      </g>
      <path fill="#EAC102" d="M1472 1148c59,8 107,30 151,58 3,2 7,5 10,7 12,7 22,15 33,23 4,3 14,-2 12,-6 -65,-64 -153,-98 -250,-97 -101,1 -215,116 -215,225 1,52 6,78 15,108 3,4 8,2 11,-2 1,-1 1,-2 1,-3 1,-1 1,-1 0,-2 -8,-33 -11,-66 -10,-106 0,-19 4,-38 11,-58 2,-6 5,-12 8,-19 13,-28 36,-58 70,-89 40,-28 79,-42 116,-42 1,0 2,0 3,0 12,1 23,2 34,3z"/>
      <path fill="#EAC102" d="M1428 1133c97,-1 185,33 250,97 4,-14 12,-29 29,-46 -73,-66 -180,-115 -281,-109 -147,9 -277,139 -266,319 3,52 16,97 26,123 11,-15 30,-39 42,-51 -9,-30 -14,-56 -15,-108 0,-109 114,-224 215,-225z"/>
      <path fill="#EAC102" d="M1337 1240c56,-37 118,-42 179,-21 37,12 83,32 110,53l32 -42c-8,-6 -16,-11 -25,-17l-10 -7c-44,-28 -92,-50 -151,-58 -11,-1 -22,-2 -34,-3l-3 0c-37,0 -76,14 -116,42 -34,31 -57,61 -70,89 -3,7 -6,13 -8,19 -7,20 -11,39 -11,58 -1,40 2,73 10,106l17 -16c-3,-10 -5,-21 -5,-33 0,-73 25,-130 85,-170z"/>
     </g>
</svg>
