<?xml version="1.0" encoding="UTF-8"?>
<svg width="589.24" height="800" version="1.1" viewBox="0 0 589.24 800" xml:space="preserve" xmlns="http://www.w3.org/2000/svg" xmlns:xlink="http://www.w3.org/1999/xlink"><g transform="translate(-29.071 56.714)"><path d="m32.284-53.5v674.6c0 42.325 31.027 72.685 69.558 72.685h164.64c47.14 0 57.212 37.218 57.212 37.218s10.101-37.218 57.241-37.218h164.61c38.533 0 69.558-30.361 69.558-72.685v-674.6z" style="fill-rule:evenodd;fill:#33b5ff;stroke-linecap:round;stroke-miterlimit:5;stroke-width:6.4274;stroke:#000"/><g transform="matrix(1.1853 0 0 1.1853 -6.4098 10.509)" style="fill:#fff"><path id="c" d="m192.8 266.34c-9.344 8.5147-41.105 21.013-62.291 30.668 25.228-1.5161 55.375-14.706 62.291-18.963 3.8197 2.3511 13.97 6.5938 27.22 10.923 3.0073-1.3169 5.9835-2.6288 8.9688-3.9551-15.738-6.9398-30.193-13.21-36.189-18.673z" style="fill-rule:evenodd;fill:#fff"/><use transform="matrix(-1 0 0 1 556.99 0)" style="fill:#ffffff" xlink:href="#c"/></g><path d="m427.38 369.9c-35.264-16.072-88.13-36.874-103.68-51.047-15.553 14.173-68.419 34.975-103.68 51.047 41.993-2.5236 92.172-24.477 103.68-31.562 11.511 7.0854 61.69 29.039 103.68 31.562z" style="fill-rule:evenodd;fill:#fff"/><g transform="matrix(1.1853 0 0 1.1853 -6.9984 9.4381)"><path id="b" d="m58.018 531.76s30.862-16.317 47.592-16.49c16.731-0.17285 30.791 15.774 47.592 15.396 16.801-0.37729 30.501-18.192 47.592-17.794s47.592 20.365 47.592 20.365" style="fill:none;stroke-linecap:round;stroke-linejoin:round;stroke-miterlimit:5;stroke-width:10.5;stroke:#fff"/><path id="a" d="m87.111 549.56c6.7409-2.2811 15.172-7.5616 20.499-7.6166 16.731-0.17285 30.791 15.774 47.592 15.396 16.801-0.37729 30.501-18.192 47.592-17.794s47.592 20.365 47.592 20.365" style="fill:none;stroke-linecap:round;stroke-linejoin:round;stroke-miterlimit:5;stroke-width:10.5;stroke:#fff"/><use transform="matrix(-1 0 0 1 557.99 0)" xlink:href="#b"/><use transform="matrix(-1 0 0 1 557.99 0)" xlink:href="#a"/></g><g transform="matrix(1.1853 0 0 1.1853 -5.3894 10.509)"><path d="m210.72-20.267v103.38h-26.328v-56.832h-27.055v56.832h-26.33v-56.832h-27.055v103.38h-26.328v-56.832h-23.462v341.23h84.212v-106.59c0-77.148 62.11-139.26 139.26-139.26 77.148 0 139.26 62.108 139.26 139.26v106.59h84.212v-341.23h-23.462v56.832h-26.328v-103.38h-27.055v56.832h-26.33v-56.832h-27.055v56.832h-26.328v-103.38h-27.055v56.834h-26.33v-56.834h-27.055v56.834h-26.33v-56.834z" style="fill-rule:evenodd;fill:#c00;stroke-linecap:round;stroke-linejoin:round;stroke-miterlimit:5;stroke-width:4.4049;stroke:#000"/><g transform="matrix(1.4692 0 0 1.4692 541.72 -150.83)" style="fill:#ffd700;stroke-width:1.4763"><g style="fill:#ffd700;stroke-width:1.4763"><path d="m-161.71 170.1c0 6.6803-6.8658 13.731-16.86 13-6.6628-0.48749-8.3253-2.1037-8.3253-2.1037l-1.2639 1.0915c-0.6029-0.69803-1.6575-0.7752-2.3556-0.17236-0.10727 0.0931-0.20223 0.19948-0.28258 0.3166-1.1392-0.42064-2.417-0.18986-3.3371 0.60271-0.63998 0.55393-1.0458 1.3302-1.1354 2.1718-2.7523 1.2379-7.3427 3.7093-9.5566 7.2121l3e-3 3e-3c-0.6702 0.98586-0.76416 2.2542-0.24656 3.328 0.80336 1.6606 2.8009 2.3556 4.4616 1.5523 3.7887-1.6808 6.9027-5.8637 8.5278-8.4062 0.84517 0.034 1.6718-0.25394 2.3129-0.80562 0.41112-0.35602 0.72909-0.80703 0.92628-1.3138 2.3766 2.5867 8.2614 6.2695 14.871 6.7531 9.9942 0.73124 20.111-5.7547 21.086-19.08 1.2187-16.656-20.036-35.04-32.411-40.215 9.0937 13.72 23.586 20.256 23.586 36.065z" style="fill:#ffd700;paint-order:markers fill stroke;stroke-linecap:round;stroke-linejoin:round;stroke-width:1.4763;stroke:#000"/></g><path d="m-173.91 155.44-17.536-2.6e-4 2.2e-4 9.1855 8.3506 1.9e-4 1e-3 38.817c8e-5 1.8447 1.4955 3.3402 3.3402 3.3402 1.8447 1e-5 3.3401-1.4954 3.3401-3.3401l-9e-4 -38.817 2.5052 6e-5 7.5155 3.2e-4z" style="fill:#ffd700;paint-order:markers fill stroke;stroke-linecap:round;stroke-linejoin:round;stroke-width:1.4763;stroke:#000"/></g></g><path d="m303.21 386.15c-0.71236-0.0187-1.4037 0.24221-1.9261 0.72692-18.776 17.416-32.585 35.832-43.421 54.776-7.3199-3.1558-15.082-4.816-23.067-4.5745-3.8143 0.11533-7.6763 0.6572-11.561 1.6599-15.54 4.0107-31.271 15.279-46.011 35.436-1.1144 1.5238-0.38032 3.6918 1.4307 4.225 67.89 19.986 112.5 51.698 125.3 100.4-14.739-2.0696-25.246-9.2696-35.441-19.097-11.082-10.682-21.618-24.391-36.175-36.839-29.113-24.895-74.333-44.026-171.34-24.229-1.6557 0.33797-2.6084 2.0853-1.9956 3.6601 17.608 45.271 39.297 71.832 62.777 86.788 23.48 14.956 48.57 18.181 72.505 17.411 23.934-0.77005 46.842-5.4674 66.219-6.5678 19.014-1.0797 34.107 1.2158 44.419 13.205v64.541c9.1e-4 1.5045 1.2203 2.7239 2.7248 2.7248h32.093c1.5054 3.6e-4 2.7262-1.2194 2.7271-2.7248v-64.543c10.312-11.987 25.406-14.282 44.419-13.203 19.378 1.1003 42.283 5.7977 66.217 6.5678 23.934 0.77004 49.024-2.4551 72.505-17.411 23.48-14.956 45.172-41.517 62.779-86.788 0.6128-1.5748-0.33985-3.3221-1.9956-3.6601-97.008-19.797-142.23-0.66626-171.34 24.229-14.557 12.448-25.095 26.157-36.177 36.839-10.195 9.8274-20.701 17.027-35.441 19.097 12.794-48.698 57.409-80.41 125.3-100.4 1.811-0.53318 2.5451-2.7011 1.4307-4.225-14.74-20.157-30.469-31.426-46.009-35.436-12.019-3.1019-23.811-1.7443-34.628 2.9193-10.836-18.946-24.646-37.363-43.423-54.781-1.7478-1.6188-4.5851-0.37513-4.5791 2.0071 6e-3 1.7752-0.0827 8.0007-0.11343 9.7629-3.7928-2.8147-9.6335-10.439-17.715-10.439-8.0809 0-13.922 7.6242-17.715 10.439-0.0307-1.7622-0.11883-7.9876-0.11343-9.7629 5e-3 -1.4814-1.1744-2.6954-2.6553-2.734z" style="-inkscape-stroke:none;color:#000000;fill-rule:evenodd;fill:#093"/><path d="m97.928 521.89c44.107 28.269 94.471 44.62 147.85 55.229" style="fill:none;stroke-linecap:round;stroke-linejoin:round;stroke-miterlimit:5;stroke-width:5.4524;stroke:#000"/><path d="m549.46 521.89c-44.107 28.269-94.471 44.62-147.85 55.229" style="fill:none;stroke-linecap:round;stroke-linejoin:round;stroke-miterlimit:5;stroke-width:5.4524;stroke:#000"/><path d="m339.82 400.07s-3.0079-9.1398-16.123-9.1398-16.12 9.1398-16.12 9.1398" style="fill:none;stroke-linejoin:round;stroke-miterlimit:5;stroke-width:5.4524;stroke:#000"/><path d="m323.69 483.46c-4.5836-29.116-6.3188-62.134-20.556-94.587-19.263 17.868-33.245 36.757-44.139 56.243" style="fill:none;stroke-linejoin:round;stroke-miterlimit:5;stroke-width:5.4524;stroke:#000"/><path d="m335.78 540.65c4.2732-79.127 74.26-144.08 132.19-64.872-70.117 20.642-116.53 54.068-128.22 106.22 70.44-5.1964 53.075-120.09 246.1-80.701-69.858 179.61-201.85 56.71-246.1 110.74v65.628h-32.093v-65.628c-44.252-54.028-176.25 68.875-246.1-110.74 193.03-39.393 175.66 75.505 246.1 80.701-11.693-52.149-58.104-85.576-128.22-106.22 57.925-79.21 127.91-14.255 132.19 64.872" style="fill:none;stroke-linejoin:round;stroke-miterlimit:5;stroke-width:5.4524;stroke:#000"/><path d="m323.69 483.46c4.5836-29.116 6.3188-62.134 20.556-94.587 19.263 17.868 33.245 36.757 44.139 56.243" style="fill:none;stroke-linejoin:round;stroke-miterlimit:5;stroke-width:5.4524;stroke:#000"/></g></svg>
