<svg xmlns="http://www.w3.org/2000/svg" viewBox="0 0 198.99883 255.62004"><defs><style>.a,.f{fill:#e6e6e6;}.a,.b,.c,.f,.g,.i,.l,.m,.n{stroke:#000;}.a,.b,.c,.n{stroke-linecap:round;stroke-linejoin:round;}.a,.b,.c,.m,.n{stroke-width:1.13px;}.a,.c,.d,.e{fill-rule:evenodd;}.b,.i,.k{fill:none;}.c,.m,.n{fill:#fa8004;}.d{fill:#005bb2;}.e,.j{fill:#e3295f;}.f{stroke-miterlimit:11.34;}.f,.g{stroke-width:0.75px;}.g,.h,.l{fill:gold;}.g,.i,.k,.l,.m{stroke-miterlimit:10;}.i,.k,.l{stroke-width:0.5px;}.k{stroke:gold;}</style></defs><path class="a" d="M99.2225,40.285c-16.7-.1-25.8,2.59-31.8,4.5l-1.2-5.6,2.3-.7-2.5-12.8-8.8-2.2-2.8-15.6,20.7-4.8,8,8.1,1.3,11,6.2-.6-2.1-4.2-1.3-16.82h24.2l-1.4,16.8-1.9,4.2,6.2.61,1.3-11,8-8.11,20.7,4.8-2.7,15.7-8.8,2.21-2.6,12.79,2.4.8-1.2,5.41C126.4225,43.285,116.0225,40.375,99.2225,40.285Z"/><path class="b" d="M66.1225,25.785a119.92,119.92,0,0,1,33-4.4,119.9997,119.9997,0,0,1,33.6,4.6m-65.3,6.2a116.6098,116.6098,0,0,1,31.8-4.18,116.70014,116.70014,0,0,1,32.3,4.3m-63.4,6.41a115.1398,115.1398,0,0,1,31-4,113.35,113.35,0,0,1,31.4,4.2m-74.3-23.1,20-4.5,7.6,6.19m-26.4,6.11,20.2-4.31,4.6,3m-10.9,2.1-6.9-2.5-1.3-7.2m5.6-2-1.1-7.5m9.9,14.2-2.4-16.2m7.9,25.7-.8-6.3m9.5,12-.4-6.3m-15.1,8.2-.9-6.2m24.1-2.3v-6.61m43-5.5-19.8-4.5-7.7,6m26.5,6.21-19.47-4.42-5.4,3.2m11,2,6.9-2.5,1.2-7.2m-5.5-2,1.1-7.7m-9.2,14.2,1.7-16.1m-8,25.8.8-6.31m-9.4,12,.4-6.29m14.8,8.38.9-6.2m-23.83-2.46v-6.61m2.6-.29,1.3-4.2v-7.9m-7.2-.31V1.005m-7.9,8h22.3m-21.57,7.88h21"/><path class="c" d="M99.4225,40.285c9.2,0,15,.29,24.4,2.4s20.5,7.7,26.4,7.7a9.35,9.35,0,0,0,6.2-2.2,6.24,6.24,0,0,0,2.4-5.4c-.1-2.41-3.5-2.71,0-2.71,3.1,0,4.5,2.41,5,4.41a7.11,7.11,0,0,1,7.1-4.8c4.7,0,6.2,4.6,6.5,7.5.2,2.3,5.9,7.8,6.4,8.3s2.9,2.7,3.9,2a6,6,0,0,1,3.3-1.1c4.6,0,7.4,2.6,7.4,6.6a5.83,5.83,0,0,1-5.45839,6.17929l-.0116.00071h0a4.99554,4.99554,0,0,1-.55,0,4.92,4.92,0,0,1-4.81-5,.14.14,0,0,0,0-.09,3.92,3.92,0,0,1,3.9-3.59c3.8,0,3.5,4.9,1.9,5.09,1.6-.3,1.8-5.09-1.9-5.09-1.3,0-2.4.5-3.9,2.4a15.19967,15.19967,0,0,0-2.8,6.3c-1.3,5.2-2.3,26.8-2.3,26.8,3-1.7,6.2-3.2,3.6-8,1.4.5,3.4,1.19,4,3.3s-.1,3.2-1.1,5.3c1.1-.4,3.3.9,3.5,2.9a2.68,2.68,0,0,1-2.23,3.06h-.37c-1.3,0-2.2-.7-2.2-1.6s.2-1.3.7-1.4c.9-.1.2-.4-.4-.5a3.7,3.7,0,0,0-4.32111,2.95094h0l-.00889.04905h0a3.07885,3.07885,0,0,0-.06.61c2.3.6,3.7,2,3.9,2.9.6,2.2-1.9.3-3.4,2.2a5.16992,5.16992,0,0,0-1.3,3.5c0,.9.1,2.4,1.4,3a2.39,2.39,0,0,0,3.22916-.99839h0l.00082-.00161a2.3501,2.3501,0,0,0,.27-1.3c-.1-2.6,2.4-4.7,4.9-4.81a5.48,5.48,0,0,1,5.69964,5.25118h0l.00035.00882v.44a7.64,7.64,0,0,1-6.7,7.4c-5.5,1.2-5.8,12-8,14.9,1.4-.3,2.1-1.6,2.4-3a3.73,3.73,0,0,1,.8,3,5.86,5.86,0,0,1-3.6,4.2c0,.61-.1,1.7-.1,2.7.3,3.8,7.6,12.7,7.6,26.1s-7.7,34.7-34.3,50.1c-24,13.9-34.2,16.1-38.3,29.6a43.16047,43.16047,0,0,0-7.5-3.2c-1,1-1.9,2.5-3.4,6.61-1.5-.9-2.1-2.8-2.8-2.9-.5,0-3,4.5-5,6.7-2-2.2-4.4-6.7-4.9-6.7-.7,0-1.4,1.9-2.8,2.9-1.5-4-2.4-5.61-3.4-6.61a40.29019,40.29019,0,0,0-7.5,3.2c-4.1-13.5-14.3-15.8-38.3-29.6-26.6-15.4-34.3-36.6-34.3-50.1s7.3-22.3,7.6-26.1a21.99678,21.99678,0,0,0-.1-2.7,5.86,5.86,0,0,1-3.6-4.2,3.73,3.73,0,0,1,.8-3c.3,1.4.9,2.7,2.4,3-2.2-2.9-2.4-13.7-8-14.9a7.65,7.65,0,0,1-6.7-7.4,5.48,5.48,0,0,1,5.25-5.7h.45a5.09,5.09,0,0,1,4.9,4.8,2.38,2.38,0,0,0,2.14,2.58,2.46,2.46,0,0,0,1.36-.28c1.3-.6,1.4-2.1,1.4-3a5.22,5.22,0,0,0-1.3-3.5c-1.5-1.9-4,0-3.4-2.2.2-.8,1.6-2.3,3.9-2.9a3.65,3.65,0,0,0-3.56-3.64,4.56814,4.56814,0,0,0-.82.09c-.6.1-1.3.4-.4.5.4.1.7.5.7,1.4s-.9,1.6-2.2,1.6a2.74,2.74,0,0,1-2.63-2.83h0v-.26c.2-1.9,2.4-3.3,3.5-2.9-1-2.1-1.8-3.2-1.1-5.31s2.7-2.8,4-3.3c-2.6,4.8.6,6.3,3.6,8,0,0-1.1-21.6-2.3-26.8a15.51,15.51,0,0,0-2.8-6.3c-1.5-1.9-2.6-2.4-3.9-2.4-3.7,0-3.6,4.8-1.9,5.1-1.6-.2-1.9-5.1,1.9-5.1a4,4,0,0,1,3.9,3.6,4.91,4.91,0,0,1-4.7126,5.09967l-.00735.0003h0A5.81,5.81,0,0,1,.573,63.5809h0L.5725,63.565h0a5.23042,5.23042,0,0,1,0-.56c0-4,2.8-6.6,7.4-6.6a6.06,6.06,0,0,1,3.3,1.1c1.1.7,3.4-1.5,3.9-2s6.2-6.1,6.4-8.3c.3-2.9,1.8-7.5,6.5-7.5a7.25,7.25,0,0,1,7.1,4.8c.5-2,1.8-4.4,5-4.4,3.5,0,.1.3,0,2.7a6.56,6.56,0,0,0,2.4,5.4,9.16,9.16,0,0,0,6.2,2.2c6,0,17-5.5,26.4-7.7S90.2225,40.285,99.4225,40.285Z"/><path class="b" d="M85.6225,40.875c6.2-.5,9.6,3.2,10,6.41a7.1,7.1,0,0,1-1.8,6.29c2.5-.29,4.9.59,5.6,2,.7-1.41,3.1-2.29,5.6-2a7.1,7.1,0,0,1-1.8-6.29c.5-3.21,4-6.91,10.2-6.41"/><path class="b" d="M74.7225,47.375l1.6-.59.4,1.7m-13.3,1,1.7-.41-.4,1.41m12.3-5.41,1-.2.1,1m-12.17,1.91,1-.1v.9m57.2-1.2-1.6-.6-.4,1.7m13.4,1-1.7-.4.4,1.4m-12.3-5.41-1-.2-.1,1m12.1,1.91-1-.1v.9"/><path class="b" d="M93.7225,53.665a6.31,6.31,0,0,1-3.8,1.6,4.22,4.22,0,0,1-4.4-4v-.16a3.75,3.75,0,0,1,3.35-4.1h.65a2.71,2.71,0,0,1,2.89,2.5v.3a2.55,2.55,0,0,1-2.1,2.7c-1.1.1-1.9-.4-1.9-1.4a1.08,1.08,0,0,1,.97249-1.17773h0l.02749-.00227h0"/><path class="b" d="M35.1225,44.575c0,5.71,3.4,10.5,9,10.8s1.5-2.09,5.7-2.09,2.3,1.79.9,2.59c5.7.29,8.3-4.71,12.2-4.91a4.7,4.7,0,0,1-2.7,3.7c6.9,2.6,11.4-5.59,14.5-5.29-2.6,4.2,1.6,7.59,7.3,5.29a5,5,0,0,1-1.9-5.29,6.13,6.13,0,0,1,5.83-4.09c3.2-.1,5,1.29,5.9,2.7"/><path class="b" d="M17.3225,60.665a13.17989,13.17989,0,0,0-2.7-3.79m6.33-2.21a20.86987,20.86987,0,0,0-2.4-2.2m.4,4.91a13.88026,13.88026,0,0,0-2.3-2.71m6.2-2.59a17.32088,17.32088,0,0,1-2.7-1.41m4.5-1.29a8.13018,8.13018,0,0,1-3.4-.71m5.8-4.4c-2.2,0-3.8,1.3-5.2,2.9m3.9-.5a7.8,7.8,0,0,0-4.1,1.3"/><polygon class="b" points="98.323 49.275 99.423 50.885 100.522 49.275 99.423 47.665 98.323 49.275"/><path class="d" d="M156.83493,201.24a1.99509,1.99509,0,0,1,1.25-.5,71.29964,71.29964,0,0,1-115.7,1.98,7.74107,7.74107,0,0,0,4.34-1.48,2.23207,2.23207,0,0,1,2.84,0,8.15746,8.15746,0,0,0,9.4,0,2.01514,2.01514,0,0,1,1.42005-.51,2.06175,2.06175,0,0,1,1.42.51,8.15758,8.15758,0,0,0,9.4,0,2.218,2.218,0,0,1,2.82995,0,8.15758,8.15758,0,0,0,9.4,0,2.06174,2.06174,0,0,1,1.42-.51,2.01512,2.01512,0,0,1,1.42.51,8.15748,8.15748,0,0,0,9.4,0,2.00731,2.00731,0,0,1,1.41-.51,2.06185,2.06185,0,0,1,1.42.51,8.15748,8.15748,0,0,0,9.4,0,2.21813,2.21813,0,0,1,2.83,0,8.15758,8.15758,0,0,0,9.4,0,2.232,2.232,0,0,1,2.84,0,8.15758,8.15758,0,0,0,9.4,0,2.00717,2.00717,0,0,1,1.41-.51,2.046,2.046,0,0,1,1.42005.51,8.15746,8.15746,0,0,0,9.4,0,2.21814,2.21814,0,0,1,2.83,0,8.15756,8.15756,0,0,0,9.4,0Z"/><path class="e" d="M170.82492,159.76v.31a70.96126,70.96126,0,0,1-9.35,35.32,7.60031,7.60031,0,0,0-3.23-.66,7.86687,7.86687,0,0,0-4.7,1.49,2.21794,2.21794,0,0,1-2.83,0,8.15773,8.15773,0,0,0-9.4,0,2.21794,2.21794,0,0,1-2.83,0,8.15773,8.15773,0,0,0-9.4,0,2.00743,2.00743,0,0,1-1.41.51,2.046,2.046,0,0,1-1.42-.51,8.15783,8.15783,0,0,0-9.4,0,2.23179,2.23179,0,0,1-2.84,0,8.15783,8.15783,0,0,0-9.4,0,2.02256,2.02256,0,0,1-1.41.51,2.04615,2.04615,0,0,1-1.42005-.51,8.15773,8.15773,0,0,0-9.4,0,2.21794,2.21794,0,0,1-2.83,0,8.15783,8.15783,0,0,0-9.4,0,2.046,2.046,0,0,1-1.42.51,2.02256,2.02256,0,0,1-1.41-.51,8.17362,8.17362,0,0,0-9.41,0,2.02257,2.02257,0,0,1-1.41.51,2.046,2.046,0,0,1-1.42-.51,8.15783,8.15783,0,0,0-9.4,0,2.01522,2.01522,0,0,1-1.42.51,2.04612,2.04612,0,0,1-1.42-.51,8.15773,8.15773,0,0,0-9.4,0,2.0697,2.0697,0,0,1-1.43.51,2.04612,2.04612,0,0,1-1.42-.51,7.93945,7.93945,0,0,0-3.33-1.38,70.91,70.91,0,0,1-9.04-34.77V57.38h142.5S170.72488,159.79,170.82492,159.76Z"/><path class="b" d="M18.1225,98.065a8.8,8.8,0,0,0-1.6-2"/><path class="b" d="M7.3225,113.485a1.85,1.85,0,0,0,.334-2.59488l-.004-.00512a1.83,1.83,0,0,0-1.53-.71,2.8,2.8,0,0,0-2.7,2.89h0a3.43,3.43,0,0,0,3.35876,3.49978l.01124.00022h.23a4.35,4.35,0,0,0,4.1-4.19"/><path class="b" d="M5.2225,116.275c4.2,3.1,8.5,0,10.2-2.6"/><path class="b" d="M7.2225,120.275a6.55966,6.55966,0,0,0,1.4.1,13.16,13.16,0,0,0,11.2-6.5c2.4-4.31,2.7-5.81,2.6-11.31a12.45,12.45,0,0,1,1.7-7.3c.6-.9.7-1-.5-1a6.12,6.12,0,0,0-3.7,1.5,7,7,0,0,0-1.5,8.4,3.55,3.55,0,0,0-3.5-1.4"/><path class="b" d="M11.2225,57.375c3.5,2.29,6.3,8,7.1,16,.9,10.5,1.1,17.3,2.1,22.09"/><path class="b" d="M15.3225,121.065a19.53032,19.53032,0,0,1-4.7,1.31m4.8,1.3a20.20979,20.20979,0,0,1-3.5.9m4.1,1.5a19.79129,19.79129,0,0,1-3.4.81m4.1,1.49a20.72172,20.72172,0,0,1-3.4.7m4.5,1.5a11.56965,11.56965,0,0,1-4,.6m5.6,1.61a10.8499,10.8499,0,0,1-5,.39m7.9,1.2c-1.1,1-4.4,1.61-7.2.8"/><path class="b" d="M99.3225,249.085c-1.9-1.8-5.1-7.1-6.3-9.4-1.1,0-1.7,1-4.6,1a8.78,8.78,0,0,0-4.9,1.2c-11.1-14.2-21.7-14.9-34.6-25.4-6.1-4.9-5.2-9.4-7.6-13.5s-6.4-3-8.3-4.6c1.9,1.5,5.9.4,8.3,4.6"/><path class="b" d="M105.2225,53.665a6.34,6.34,0,0,0,3.8,1.6,4.2,4.2,0,0,0,4.39-4,.43.43,0,0,0,0-.16,3.76,3.76,0,0,0-3.34-4.1h-.65a2.72,2.72,0,0,0-2.9,2.5,1.49779,1.49779,0,0,0,0,.3,2.55,2.55,0,0,0,2.1,2.7c1.1.1,1.9-.4,1.9-1.4a1.1,1.1,0,0,0-1-1.19h0"/><path class="b" d="M163.82249,44.575c.2,5-3.4,10.6-9,10.91s-1.5-2.1-5.7-2.1-2.3,1.8-.9,2.6c-5.7.3-8.3-4.7-12.2-4.91a4.75,4.75,0,0,0,2.7,3.71c-6.9,2.59-11.4-5.6-14.5-5.3,2.6,4.2-1.6,7.59-7.3,5.3a5,5,0,0,0,1.9-5.3,6.15,6.15,0,0,0-5.8-4.1c-3.2-.1-5,1.3-5.9,2.7"/><path class="b" d="M99.4225,237.005c.6,0,1.9.11,1.9,2s-.9,5.11-1.9,5.11-1.9-3.2-1.9-5.11S98.7225,237.005,99.4225,237.005Zm-8.1,6.11,2.1,3.3m13.9-3.3-2.1,3.3"/><path class="b" d="M181.32249,60.665a13.18022,13.18022,0,0,1,2.7-3.79m-6.3-2.21a19.997,19.997,0,0,1,2.4-2.2m-.3,4.91a13.87933,13.87933,0,0,1,2.3-2.71m-6.17-2.59a16.8902,16.8902,0,0,0,2.7-1.41m-4.5-1.29a8.13011,8.13011,0,0,0,3.4-.71m-5.8-4.4c2.2,0,3.8,1.3,5.2,2.9m-3.9-.5a7.99993,7.99993,0,0,1,4.1,1.3"/><path class="b" d="M180.6225,98.065a9.08024,9.08024,0,0,1,1.6-2"/><path class="b" d="M191.4225,113.485a1.86,1.86,0,0,1-.32-2.6,1.81,1.81,0,0,1,1.52-.71,2.81,2.81,0,0,1,2.7,2.9h0a3.47,3.47,0,0,1-3.38,3.51h-.22a4.33,4.33,0,0,1-4.1-4.19"/><path class="b" d="M193.4225,116.275c-4.2,3.1-8.5,0-10.2-2.6"/><path class="b" d="M191.4225,120.275a6.55957,6.55957,0,0,1-1.4.1,13.15,13.15,0,0,1-11.2-6.5c-2.4-4.31-2.7-5.81-2.6-11.31a12.56,12.56,0,0,0-1.7-7.3c-.6-.9-.7-1,.5-1a6.14983,6.14983,0,0,1,3.7,1.5,7,7,0,0,1,1.5,8.4,3.53,3.53,0,0,1,3.5-1.4"/><path class="b" d="M187.52251,57.575c-3.5,2.3-6.3,7.81-7.1,15.91-.9,10.5-1.1,17.3-2.1,22.08"/><path class="b" d="M183.32249,121.065a18.89,18.89,0,0,0,4.7,1.31m-4.8,1.3a19.35044,19.35044,0,0,0,3.5.9m-4,1.5a20.00076,20.00076,0,0,0,3.4.81m-4.2,1.49a20.93951,20.93951,0,0,0,3.4.7m-4.5,1.5a11.56965,11.56965,0,0,0,4,.6m-5.5,1.61a10.87008,10.87008,0,0,0,5,.39m-8,1.2c1.1,1,4.4,1.61,7.2.8"/><path class="b" d="M99.3225,249.085c1.9-1.8,5.1-7.1,6.3-9.4,1.1,0,1.7,1,4.6,1a8.76006,8.76006,0,0,1,4.9,1.2c11.1-14.2,21.7-14.9,34.6-25.4,6.1-4.9,5.2-9.4,7.6-13.5s6.4-3,8.3-4.6c-1.9,1.5-5.9.4-8.3,4.6"/><polygon class="f" points="100.838 115.806 99.323 115.806 97.807 115.806 97.013 175.408 99.323 175.408 101.632 175.408 100.838 115.806"/><path class="f" d="M98.71956,114.66274V93.96729a12.78341,12.78341,0,0,0-5.66063,1.81461c-3.431,2.24016-4.13229,6.35723-1.97893,9.058,1.07809,1.35215,2.99317,2.50159,3.6817,4.619a3.01909,3.01909,0,0,1,.046,1.91958,4.44357,4.44357,0,0,1-1.67981,2.11454,17.942,17.942,0,0,0,1.86389.58486A20.47529,20.47529,0,0,0,98.71956,114.66274Z"/><path class="f" d="M99.3225,114.26141V93.9673a6.56654,6.56654,0,0,0-3.61764,1.77942,8.13385,8.13385,0,0,0-1.26471,8.88234c.689,1.32593,1.9129,2.45308,2.35293,4.52942a4.3195,4.3195,0,0,1-1.04413,3.95589,8.89949,8.89949,0,0,0,3.57355,1.147Z"/><rect class="f" x="96.51369" y="92.42318" width="5.61763" height="1.45588" rx="0.41912"/><path class="f" d="M101.866,92.42319H96.779a2.61286,2.61286,0,0,1,5.08694,0Z"/><path class="f" d="M99.92545,114.66274V93.96729a12.78325,12.78325,0,0,1,5.66062,1.81461c3.43106,2.24016,4.13229,6.35723,1.97893,9.058-1.07808,1.35215-2.99317,2.50159-3.6817,4.619a3.01916,3.01916,0,0,0-.046,1.91958,4.44369,4.44369,0,0,0,1.67981,2.11454,17.94125,17.94125,0,0,1-1.86389.58486A20.4752,20.4752,0,0,1,99.92545,114.66274Z"/><path class="f" d="M99.3225,114.26141V93.9673a6.56658,6.56658,0,0,1,3.61765,1.77942,8.13385,8.13385,0,0,1,1.26471,8.88234c-.689,1.32593-1.91291,2.45308-2.35294,4.52942a4.3195,4.3195,0,0,0,1.04413,3.95589,8.89931,8.89931,0,0,1-3.57355,1.147Z"/><rect class="f" x="96.51369" y="114.34965" width="5.61763" height="1.45588" rx="0.41912"/><path class="f" d="M96.67842,176.86434h5.2905c.00985,1.10293-1.1874,2.0147-2.64525,2.0147S96.66857,177.96727,96.67842,176.86434Z"/><path class="f" d="M96.302,175.40845h6.04333a.41912.41912,0,0,1,.41912.41912v.70919a.41911.41911,0,0,1-.41911.41911H96.302a.41912.41912,0,0,1-.41912-.41912v-.70919A.41911.41911,0,0,1,96.302,175.40845Z"/><polygon class="g" points="145.767 80.104 149.222 85.789 137.543 85.789 137.543 80.104 145.767 80.104"/><polygon class="g" points="136.93 75.431 138.606 79.3 137.543 80.554 137.543 94.85 136.93 94.85 136.317 94.85 136.317 80.554 135.254 79.3 136.93 75.431"/><polygon class="h" points="156.055 154.406 148.626 115.4 125.106 115.4 117.832 154.406 156.055 154.406"/><line class="i" x1="136.94339" y1="117.68874" x2="149.05077" y2="117.68874"/><line class="i" x1="136.94339" y1="120.3114" x2="149.55104" y2="120.3114"/><line class="i" x1="136.94339" y1="122.93405" x2="150.05133" y2="122.93405"/><line class="i" x1="136.94339" y1="125.55671" x2="150.55161" y2="125.55671"/><line class="i" x1="136.94339" y1="128.17937" x2="151.0519" y2="128.17937"/><line class="i" x1="136.94339" y1="130.80202" x2="151.55217" y2="130.80202"/><line class="i" x1="136.94339" y1="133.42467" x2="152.05246" y2="133.42467"/><line class="i" x1="136.94339" y1="136.04732" x2="152.55273" y2="136.04732"/><line class="i" x1="136.94339" y1="138.66998" x2="153.05302" y2="138.66998"/><line class="i" x1="136.94339" y1="141.29263" x2="153.5533" y2="141.29263"/><line class="i" x1="136.94339" y1="143.91528" x2="154.05359" y2="143.91528"/><line class="i" x1="136.94339" y1="146.53795" x2="154.55386" y2="146.53795"/><line class="i" x1="136.94339" y1="149.1606" x2="155.05415" y2="149.1606"/><line class="i" x1="136.94339" y1="151.78325" x2="155.55443" y2="151.78325"/><line class="i" x1="136.94339" y1="154.4059" x2="156.05472" y2="154.4059"/><line class="i" x1="136.94339" y1="117.68874" x2="124.83601" y2="117.68874"/><line class="i" x1="136.94339" y1="120.3114" x2="124.33572" y2="120.3114"/><line class="i" x1="136.94339" y1="122.93405" x2="123.83544" y2="122.93405"/><line class="i" x1="136.94339" y1="125.55671" x2="123.33516" y2="125.55671"/><line class="i" x1="136.94339" y1="128.17937" x2="122.83488" y2="128.17937"/><line class="i" x1="136.94339" y1="130.80202" x2="122.33459" y2="130.80202"/><line class="i" x1="136.94339" y1="133.42467" x2="121.83431" y2="133.42467"/><line class="i" x1="136.94339" y1="136.04732" x2="121.33403" y2="136.04732"/><line class="i" x1="136.94339" y1="138.66998" x2="120.83375" y2="138.66998"/><line class="i" x1="136.94339" y1="141.29263" x2="120.33347" y2="141.29263"/><line class="i" x1="136.94339" y1="143.91528" x2="119.83318" y2="143.91528"/><line class="i" x1="136.94339" y1="146.53795" x2="119.3329" y2="146.53795"/><line class="i" x1="136.94339" y1="149.1606" x2="118.83262" y2="149.1606"/><line class="i" x1="136.94339" y1="151.78325" x2="118.33234" y2="151.78325"/><line class="i" x1="136.94339" y1="154.4059" x2="117.83205" y2="154.4059"/><polygon class="g" points="136.943 91.924 149.051 111.473 136.943 111.473 124.836 111.473 136.943 91.924"/><polygon class="g" points="124.836 111.473 136.943 111.473 149.051 111.473 154.824 115.4 136.943 115.4 119.063 115.4 124.836 111.473"/><line class="i" x1="139.70445" y1="111.47263" x2="139.70445" y2="96.38177"/><line class="i" x1="142.82317" y1="101.41734" x2="142.82317" y2="111.47263"/><line class="i" x1="145.88365" y1="106.35891" x2="145.88365" y2="111.47263"/><line class="i" x1="149.05077" y1="111.47263" x2="150.32056" y2="115.40016"/><line class="i" x1="146.32291" y1="111.47263" x2="147.31403" y2="115.40016"/><line class="i" x1="143.59506" y1="111.47263" x2="144.30748" y2="115.40016"/><line class="i" x1="140.8672" y1="111.47263" x2="141.30093" y2="115.40016"/><line class="i" x1="138.13936" y1="111.47263" x2="138.29439" y2="115.40016"/><line class="i" x1="134.18231" y1="111.47263" x2="134.18231" y2="96.38177"/><line class="i" x1="131.0636" y1="101.41734" x2="131.0636" y2="111.47263"/><line class="i" x1="128.00311" y1="106.35891" x2="128.00311" y2="111.47263"/><line class="i" x1="124.83601" y1="111.47263" x2="123.56621" y2="115.40016"/><line class="i" x1="127.56386" y1="111.47263" x2="126.57275" y2="115.40016"/><line class="i" x1="130.2917" y1="111.47263" x2="129.57928" y2="115.40016"/><line class="i" x1="133.01956" y1="111.47263" x2="132.58583" y2="115.40016"/><line class="i" x1="135.74741" y1="111.47263" x2="135.59238" y2="115.40016"/><circle class="g" cx="149.05077" cy="116.64042" r="1.04832"/><circle class="g" cx="149.43987" cy="118.68026" r="1.04832"/><circle class="g" cx="149.82898" cy="120.72011" r="1.04832"/><circle class="g" cx="150.21809" cy="122.75995" r="1.04832"/><circle class="g" cx="150.60719" cy="124.79979" r="1.04832"/><circle class="g" cx="150.99631" cy="126.83963" r="1.04832"/><circle class="g" cx="151.38541" cy="128.87947" r="1.04832"/><circle class="g" cx="151.77452" cy="130.91931" r="1.04832"/><circle class="g" cx="152.16364" cy="132.95915" r="1.04832"/><circle class="g" cx="152.55273" cy="134.99901" r="1.04832"/><circle class="g" cx="152.94185" cy="137.03885" r="1.04832"/><circle class="g" cx="153.33095" cy="139.07869" r="1.04832"/><circle class="g" cx="153.72006" cy="141.11853" r="1.04832"/><circle class="g" cx="154.10918" cy="143.15837" r="1.04832"/><circle class="g" cx="154.49828" cy="145.19821" r="1.04832"/><circle class="g" cx="154.88739" cy="147.23805" r="1.04832"/><circle class="g" cx="155.27649" cy="149.27789" r="1.04832"/><circle class="g" cx="155.6656" cy="151.31774" r="1.04832"/><circle class="g" cx="156.05472" cy="153.35759" r="1.04832"/><circle class="g" cx="124.83601" cy="116.64042" r="1.04832"/><circle class="g" cx="124.4469" cy="118.68026" r="1.04832"/><path class="g" d="M125.10611,120.72011a1.04833,1.04833,0,1,0-1.04832,1.04832A1.04833,1.04833,0,0,0,125.10611,120.72011Z"/><circle class="g" cx="123.66868" cy="122.75995" r="1.04832"/><circle class="g" cx="123.27957" cy="124.79979" r="1.04832"/><circle class="g" cx="122.89046" cy="126.83963" r="1.04832"/><circle class="g" cx="122.50136" cy="128.87947" r="1.04832"/><circle class="g" cx="122.11224" cy="130.91931" r="1.04832"/><circle class="g" cx="121.72314" cy="132.95915" r="1.04832"/><circle class="g" cx="121.33403" cy="134.99901" r="1.04832"/><circle class="g" cx="120.94492" cy="137.03885" r="1.04832"/><circle class="g" cx="120.55582" cy="139.07869" r="1.04832"/><circle class="g" cx="120.1667" cy="141.11853" r="1.04832"/><circle class="g" cx="119.7776" cy="143.15837" r="1.04832"/><circle class="g" cx="119.38849" cy="145.19821" r="1.04832"/><circle class="g" cx="118.99938" cy="147.23805" r="1.04832"/><circle class="g" cx="118.61028" cy="149.27789" r="1.04832"/><circle class="g" cx="118.22117" cy="151.31774" r="1.04832"/><circle class="g" cx="117.83205" cy="153.35759" r="1.04832"/><line class="i" x1="136.94337" y1="91.92365" x2="136.94337" y2="111.47263"/><path class="j" d="M140.84293,126.68827a3.962,3.962,0,0,0-3.95728-3.95727h-.47554a3.962,3.962,0,0,0-3.95727,3.95727v9.96624h8.39009Z"/><line class="k" x1="136.64787" y1="122.731" x2="136.64787" y2="136.65451"/><line class="k" x1="132.45284" y1="127.13758" x2="140.84293" y2="127.13758"/><line class="k" x1="132.45284" y1="132.95915" x2="140.84293" y2="132.95915"/><path class="l" d="M131.44881,126.68827a4.967,4.967,0,0,1,4.9613-4.9613h.47554a4.967,4.967,0,0,1,4.9613,4.9613v9.96624H131.44881Zm9.39412,0a3.962,3.962,0,0,0-3.95728-3.95727h-.47554a3.962,3.962,0,0,0-3.95727,3.95727v9.96624h8.39009Z"/><rect class="l" x="136.05008" y="121.18681" width="1.19557" height="1.54418"/><rect class="l" x="140.84293" y="126.5398" width="1.54418" height="1.19557"/><rect class="l" x="140.84293" y="132.36139" width="1.54419" height="1.19557"/><rect class="l" x="130.90865" y="126.5398" width="1.54418" height="1.19557"/><rect class="l" x="130.90866" y="132.36136" width="1.54419" height="1.19557"/><polygon class="g" points="53.847 80.104 50.392 85.789 62.071 85.789 62.071 80.104 53.847 80.104"/><polygon class="g" points="62.684 75.431 61.008 79.3 62.071 80.554 62.071 94.85 62.683 94.85 63.296 94.85 63.296 80.554 64.359 79.3 62.684 75.431"/><polygon class="h" points="43.559 154.406 50.988 115.4 74.508 115.4 81.782 154.406 43.559 154.406"/><line class="i" x1="62.67026" y1="117.68874" x2="50.56288" y2="117.68874"/><line class="i" x1="62.67026" y1="120.3114" x2="50.0626" y2="120.3114"/><line class="i" x1="62.67026" y1="122.93405" x2="49.56231" y2="122.93405"/><line class="i" x1="62.67026" y1="125.55671" x2="49.06203" y2="125.55671"/><line class="i" x1="62.67026" y1="128.17937" x2="48.56175" y2="128.17937"/><line class="i" x1="62.67026" y1="130.80202" x2="48.06147" y2="130.80202"/><line class="i" x1="62.67026" y1="133.42467" x2="47.56119" y2="133.42467"/><line class="i" x1="62.67026" y1="136.04732" x2="47.06091" y2="136.04732"/><line class="i" x1="62.67026" y1="138.66998" x2="46.56062" y2="138.66998"/><line class="i" x1="62.67026" y1="141.29263" x2="46.06034" y2="141.29263"/><line class="i" x1="62.67026" y1="143.91528" x2="45.56006" y2="143.91528"/><line class="i" x1="62.67026" y1="146.53795" x2="45.05978" y2="146.53795"/><line class="i" x1="62.67026" y1="149.1606" x2="44.55949" y2="149.1606"/><line class="i" x1="62.67026" y1="151.78325" x2="44.05921" y2="151.78325"/><line class="i" x1="43.55893" y1="154.4059" x2="62.67026" y2="154.4059"/><line class="i" x1="62.67026" y1="117.68874" x2="74.77764" y2="117.68874"/><line class="i" x1="62.67026" y1="120.3114" x2="75.27792" y2="120.3114"/><line class="i" x1="62.67026" y1="122.93405" x2="75.7782" y2="122.93405"/><line class="i" x1="62.67026" y1="125.55671" x2="76.27848" y2="125.55671"/><line class="i" x1="62.67026" y1="128.17937" x2="76.77876" y2="128.17937"/><line class="i" x1="62.67026" y1="130.80202" x2="77.27905" y2="130.80202"/><line class="i" x1="62.67026" y1="133.42467" x2="77.77933" y2="133.42467"/><line class="i" x1="62.67026" y1="136.04732" x2="78.27961" y2="136.04732"/><line class="i" x1="62.67026" y1="138.66998" x2="78.77989" y2="138.66998"/><line class="i" x1="62.67026" y1="141.29263" x2="79.28017" y2="141.29263"/><line class="i" x1="62.67026" y1="143.91528" x2="79.78046" y2="143.91528"/><line class="i" x1="62.67026" y1="146.53795" x2="80.28074" y2="146.53795"/><line class="i" x1="62.67026" y1="149.1606" x2="80.78102" y2="149.1606"/><line class="i" x1="62.67026" y1="151.78325" x2="81.2813" y2="151.78325"/><line class="i" x1="62.67026" y1="154.4059" x2="81.78159" y2="154.4059"/><polygon class="g" points="62.67 91.924 50.563 111.473 62.67 111.473 74.778 111.473 62.67 91.924"/><polygon class="g" points="74.778 111.473 62.67 111.473 50.563 111.473 44.79 115.4 62.67 115.4 80.551 115.4 74.778 111.473"/><line class="i" x1="59.90918" y1="111.47263" x2="59.90918" y2="96.38177"/><line class="i" x1="56.79048" y1="101.41734" x2="56.79048" y2="111.47263"/><line class="i" x1="53.72999" y1="106.35891" x2="53.72999" y2="111.47263"/><line class="i" x1="50.56288" y1="111.47263" x2="49.29308" y2="115.40016"/><line class="i" x1="53.29073" y1="111.47263" x2="52.29962" y2="115.40016"/><line class="i" x1="56.01858" y1="111.47263" x2="55.30617" y2="115.40016"/><line class="i" x1="58.74643" y1="111.47263" x2="58.31271" y2="115.40016"/><line class="i" x1="61.47429" y1="111.47263" x2="61.31925" y2="115.40016"/><line class="i" x1="65.43133" y1="111.47263" x2="65.43133" y2="96.38177"/><line class="i" x1="68.55004" y1="101.41734" x2="68.55004" y2="111.47263"/><line class="i" x1="71.61053" y1="106.35891" x2="71.61053" y2="111.47263"/><line class="i" x1="74.77764" y1="111.47263" x2="76.04744" y2="115.40016"/><line class="i" x1="72.04979" y1="111.47263" x2="73.04089" y2="115.40016"/><line class="i" x1="69.32194" y1="111.47263" x2="70.03435" y2="115.40016"/><line class="i" x1="66.59409" y1="111.47263" x2="67.02781" y2="115.40016"/><line class="i" x1="63.86623" y1="111.47263" x2="64.02126" y2="115.40016"/><circle class="g" cx="50.56288" cy="116.64042" r="1.04832"/><circle class="g" cx="50.17377" cy="118.68026" r="1.04832"/><circle class="g" cx="49.78466" cy="120.72011" r="1.04832"/><circle class="g" cx="49.39555" cy="122.75995" r="1.04832"/><circle class="g" cx="49.00645" cy="124.79979" r="1.04832"/><circle class="g" cx="48.61734" cy="126.83963" r="1.04832"/><circle class="g" cx="48.22823" cy="128.87947" r="1.04832"/><circle class="g" cx="47.83912" cy="130.91931" r="1.04832"/><circle class="g" cx="47.45001" cy="132.95915" r="1.04832"/><circle class="g" cx="47.06091" cy="134.99901" r="1.04832"/><circle class="g" cx="46.67179" cy="137.03885" r="1.04832"/><circle class="g" cx="46.28269" cy="139.07869" r="1.04832"/><circle class="g" cx="45.89358" cy="141.11853" r="1.04832"/><circle class="g" cx="45.50447" cy="143.15837" r="1.04832"/><circle class="g" cx="45.11536" cy="145.19821" r="1.04832"/><circle class="g" cx="44.72625" cy="147.23805" r="1.04832"/><circle class="g" cx="44.33715" cy="149.27789" r="1.04832"/><circle class="g" cx="43.94804" cy="151.31774" r="1.04832"/><circle class="g" cx="43.55893" cy="153.35759" r="1.04832"/><circle class="g" cx="74.77764" cy="116.64042" r="1.04832"/><circle class="g" cx="75.16675" cy="118.68026" r="1.04832"/><circle class="g" cx="75.55585" cy="120.72011" r="1.04832"/><circle class="g" cx="75.94496" cy="122.75995" r="1.04832"/><circle class="g" cx="76.33407" cy="124.79979" r="1.04832"/><circle class="g" cx="76.72318" cy="126.83963" r="1.04832"/><circle class="g" cx="77.11229" cy="128.87947" r="1.04832"/><circle class="g" cx="77.5014" cy="130.91931" r="1.04832"/><circle class="g" cx="77.8905" cy="132.95915" r="1.04832"/><circle class="g" cx="78.27961" cy="134.99901" r="1.04832"/><circle class="g" cx="78.66872" cy="137.03885" r="1.04832"/><circle class="g" cx="79.05783" cy="139.07869" r="1.04832"/><circle class="g" cx="79.44694" cy="141.11853" r="1.04832"/><circle class="g" cx="79.83604" cy="143.15837" r="1.04832"/><circle class="g" cx="80.22515" cy="145.19821" r="1.04832"/><circle class="g" cx="80.61426" cy="147.23805" r="1.04832"/><circle class="g" cx="81.00337" cy="149.27789" r="1.04832"/><circle class="g" cx="81.39248" cy="151.31774" r="1.04832"/><circle class="g" cx="81.78159" cy="153.35759" r="1.04832"/><line class="i" x1="62.67027" y1="91.92365" x2="62.67027" y2="111.47263"/><path class="j" d="M58.77071,136.65451H67.1608v-9.96624a3.962,3.962,0,0,0-3.95727-3.95727H62.728a3.962,3.962,0,0,0-3.95728,3.95727Z"/><line class="k" x1="62.96576" y1="122.731" x2="62.96576" y2="136.65451"/><line class="k" x1="67.16081" y1="127.13758" x2="58.77071" y2="127.13758"/><line class="k" x1="67.16081" y1="132.95915" x2="58.77071" y2="132.95915"/><path class="l" d="M68.16483,136.65451H57.76669v-9.96624a4.967,4.967,0,0,1,4.9613-4.9613h.47554a4.967,4.967,0,0,1,4.9613,4.9613Zm-9.39412,0H67.1608v-9.96624a3.962,3.962,0,0,0-3.95727-3.95727H62.728a3.962,3.962,0,0,0-3.95728,3.95727Z"/><rect class="l" x="62.36798" y="121.18681" width="1.19557" height="1.54418"/><rect class="l" x="57.22653" y="126.53979" width="1.54418" height="1.19557"/><rect class="l" x="57.22654" y="132.36137" width="1.54419" height="1.19557"/><rect class="l" x="67.16081" y="126.5398" width="1.54418" height="1.19557"/><rect class="l" x="67.16081" y="132.36138" width="1.54419" height="1.19557"/><path class="g" d="M65.62762,151.56642v29.305H88.409V166.82511c.0201-.06025.0402-.13053.07029-.20083a9.44474,9.44474,0,0,1,2.04826-3.60441,7.73561,7.73561,0,0,1,.763-.753,8.7208,8.7208,0,0,1,1.03259-.77808c.00009-.00006.21525-.13818.44337-.26614a26.87847,26.87847,0,0,1,6.55626-1.23494V159.967l.012.02065a26.88288,26.88288,0,0,1,6.55626,1.23494c.22815.128.44331.26606.44343.26614a8.71769,8.71769,0,0,1,1.03253.77809,7.73561,7.73561,0,0,1,.763.753,9.44468,9.44468,0,0,1,2.04826,3.60442c.03009.07028.05019.14058.07029.20082v14.04633h22.78137v-29.305H65.62762Z"/><circle class="i" cx="68.86298" cy="153.08724" r="0.72349"/><circle class="i" cx="68.86298" cy="154.89118" r="0.72349"/><circle class="i" cx="68.86298" cy="156.69512" r="0.72349"/><circle class="i" cx="68.86298" cy="158.49907" r="0.72349"/><circle class="i" cx="68.86298" cy="160.30301" r="0.72349"/><circle class="i" cx="68.86298" cy="162.10695" r="0.72349"/><circle class="i" cx="68.86298" cy="163.91091" r="0.72349"/><circle class="i" cx="68.86298" cy="165.71485" r="0.72349"/><circle class="i" cx="68.86298" cy="167.51878" r="0.72349"/><circle class="i" cx="68.86298" cy="169.32272" r="0.72349"/><circle class="i" cx="68.86298" cy="171.12668" r="0.72349"/><circle class="i" cx="68.86298" cy="172.93062" r="0.72349"/><circle class="i" cx="68.86298" cy="174.73456" r="0.72349"/><circle class="i" cx="68.86298" cy="176.53851" r="0.72349"/><circle class="i" cx="68.86298" cy="178.34245" r="0.72349"/><circle class="i" cx="68.86298" cy="180.14639" r="0.72349"/><line class="i" x1="65.62942" y1="154.01743" x2="99.3225" y2="154.01743"/><line class="i" x1="65.63359" y1="155.81815" x2="99.32668" y2="155.81815"/><line class="i" x1="65.63776" y1="157.61885" x2="99.33084" y2="157.61885"/><line class="i" x1="65.64192" y1="159.41956" x2="99.33501" y2="159.41956"/><line class="i" x1="92.76649" y1="161.22266" x2="65.64773" y2="161.22266"/><line class="i" x1="90.5275" y1="163.01985" x2="65.64773" y2="163.01985"/><line class="i" x1="89.24236" y1="164.81706" x2="65.65777" y2="164.81706"/><line class="i" x1="88.47929" y1="166.62431" x2="65.65777" y2="166.62431"/><line class="i" x1="88.40901" y1="168.42153" x2="65.65777" y2="168.42153"/><line class="i" x1="88.40901" y1="170.22878" x2="65.66781" y2="170.22878"/><line class="i" x1="88.40901" y1="172.02597" x2="65.66781" y2="172.02597"/><line class="i" x1="88.40901" y1="173.82318" x2="65.67785" y2="173.82318"/><line class="i" x1="88.40901" y1="175.63043" x2="65.67785" y2="175.63043"/><line class="i" x1="88.40901" y1="177.42764" x2="65.68789" y2="177.42764"/><line class="i" x1="88.40901" y1="179.22485" x2="65.68789" y2="179.22485"/><circle class="i" cx="129.79454" cy="153.08724" r="0.7235"/><circle class="i" cx="129.79454" cy="154.89118" r="0.7235"/><circle class="i" cx="129.79454" cy="156.69512" r="0.7235"/><circle class="i" cx="129.79454" cy="158.49907" r="0.7235"/><circle class="i" cx="129.79454" cy="160.30301" r="0.7235"/><circle class="i" cx="129.79454" cy="162.10695" r="0.7235"/><circle class="i" cx="129.79454" cy="163.91091" r="0.7235"/><circle class="i" cx="129.79454" cy="165.71485" r="0.7235"/><circle class="i" cx="129.79454" cy="167.51878" r="0.7235"/><circle class="i" cx="129.79454" cy="169.32272" r="0.7235"/><circle class="i" cx="129.79454" cy="171.12668" r="0.7235"/><circle class="i" cx="129.79454" cy="172.93062" r="0.7235"/><circle class="i" cx="129.79454" cy="174.73456" r="0.7235"/><circle class="i" cx="129.79454" cy="176.53851" r="0.7235"/><circle class="i" cx="129.79454" cy="178.34245" r="0.7235"/><circle class="i" cx="129.79454" cy="180.14639" r="0.7235"/><line class="i" x1="133.02811" y1="154.01743" x2="99.33501" y2="154.01743"/><line class="i" x1="133.02393" y1="155.81815" x2="99.33084" y2="155.81815"/><line class="i" x1="133.01976" y1="157.61885" x2="99.32668" y2="157.61885"/><line class="i" x1="133.01559" y1="159.41956" x2="99.3225" y2="159.41956"/><line class="i" x1="133.0098" y1="161.22266" x2="105.89103" y2="161.22266"/><line class="i" x1="133.0098" y1="163.01985" x2="108.13001" y2="163.01985"/><line class="i" x1="132.99976" y1="164.81706" x2="109.41517" y2="164.81706"/><line class="i" x1="132.99976" y1="166.62431" x2="110.17822" y2="166.62431"/><line class="i" x1="132.99976" y1="168.42153" x2="110.2485" y2="168.42153"/><line class="i" x1="132.98972" y1="170.22878" x2="110.2485" y2="170.22878"/><line class="i" x1="132.98972" y1="172.02597" x2="110.2485" y2="172.02597"/><line class="i" x1="132.97968" y1="173.82318" x2="110.2485" y2="173.82318"/><line class="i" x1="132.97968" y1="175.63043" x2="110.2485" y2="175.63043"/><line class="i" x1="132.96963" y1="177.42764" x2="110.2485" y2="177.42764"/><line class="i" x1="132.96963" y1="179.22485" x2="110.2485" y2="179.22485"/><rect class="l" x="98.30978" y="158.61087" width="2.02546" height="2.02547"/><path class="l" d="M89.4303,179.62161V167.20346c0-3.71116,3.50968-6.00908,8.1204-6.4747v-1.5433c-5.72205.506-10.12845,3.458-10.12845,8.018v13.955h2.00806V179.6216Z"/><path class="l" d="M101.09432,159.18547v1.54331c4.61072.4656,8.1204,2.76352,8.1204,6.4747v13.955h2.00806v-13.955c0-4.56-4.4064-7.51194-10.12845-8.018Z"/><path class="l" d="M84.49834,179.62161V167.20346c0-3.71116-3.50968-6.00908-8.1204-6.4747v-1.5433c5.72205.506,10.12845,3.458,10.12845,8.018v13.955h-2.008V179.6216Z"/><path class="l" d="M83.89485,180.86989V167.0127a5.84668,5.84668,0,0,0-.75188-2.07218c-2.01416-3.35158-6.81876-3.39541-7.32463-3.39282v19.32217h8.07651Z"/><polygon class="l" points="89.433 166.579 83.536 166.579 81.025 164.721 80.427 165.529 81.846 166.579 79.848 166.579 78.575 165.379 77.887 166.11 78.384 166.579 75.818 166.579 75.818 167.583 78.384 167.583 77.887 168.051 78.575 168.783 79.848 167.583 81.848 167.583 80.427 168.635 81.025 169.441 83.535 167.583 89.433 167.583 89.433 166.579"/><polygon class="l" points="89.433 175.435 83.536 175.435 81.025 173.577 80.427 174.385 81.846 175.435 79.848 175.435 78.575 174.235 77.887 174.967 78.384 175.435 75.818 175.435 75.818 176.439 78.384 176.439 77.887 176.908 78.575 177.64 79.848 176.439 81.848 176.439 80.427 177.492 81.025 178.297 83.535 176.439 89.433 176.439 89.433 175.435"/><path class="l" d="M114.14667,179.62161V167.20346c0-3.71116,3.50968-6.00908,8.1204-6.4747v-1.5433c-5.72205.506-10.12845,3.458-10.12845,8.018v13.955h2.00806V179.6216Z"/><path class="l" d="M114.75016,180.86989V167.0127a5.84688,5.84688,0,0,1,.75188-2.07218c2.01416-3.35158,6.81876-3.39541,7.32464-3.39282v19.32217h-8.07653Z"/><polygon class="l" points="109.212 166.579 115.109 166.579 117.62 164.721 118.218 165.529 116.799 166.579 118.797 166.579 120.07 165.379 120.758 166.11 120.261 166.579 122.827 166.579 122.827 167.583 120.261 167.583 120.758 168.051 120.07 168.783 118.797 167.583 116.797 167.583 118.218 168.635 117.62 169.441 115.11 167.583 109.212 167.583 109.212 166.579"/><polygon class="l" points="109.212 175.435 115.109 175.435 117.62 173.577 118.218 174.385 116.799 175.435 118.797 175.435 120.07 174.235 120.758 174.967 120.261 175.435 122.827 175.435 122.827 176.439 120.261 176.439 120.758 176.908 120.07 177.64 118.797 176.439 116.797 176.439 118.218 177.492 117.62 178.297 115.11 176.439 109.212 176.439 109.212 175.435"/><polygon class="g" points="118.298 146.305 100.861 146.305 97.797 146.305 80.36 146.305 63.768 152.064 97.797 152.064 100.861 152.064 134.89 152.064 118.298 146.305"/><line class="i" x1="80.35999" y1="146.3055" x2="75.1432" y2="152.06387"/><line class="i" x1="82.93101" y1="146.3055" x2="81.31664" y2="152.06387"/><line class="i" x1="86.11489" y1="146.3055" x2="85.35255" y2="152.06387"/><line class="i" x1="89.74721" y1="146.3055" x2="89.52299" y2="152.06387"/><line class="i" x1="93.60374" y1="146.3055" x2="93.42437" y2="152.06387"/><line class="i" x1="97.46027" y1="146.3055" x2="97.46027" y2="152.06387"/><line class="i" x1="118.29752" y1="146.3055" x2="123.51431" y2="152.06387"/><line class="i" x1="115.7265" y1="146.3055" x2="117.34086" y2="152.06387"/><line class="i" x1="112.54262" y1="146.3055" x2="113.30495" y2="152.06387"/><line class="i" x1="108.9103" y1="146.3055" x2="109.13451" y2="152.06387"/><line class="i" x1="105.05376" y1="146.3055" x2="105.23314" y2="152.06387"/><line class="i" x1="101.19723" y1="146.3055" x2="101.19723" y2="152.06387"/><path class="g" d="M65.63215,154.40531v26.46612H31.28444a71.584,71.584,0,0,1-3.06233-20.76326v-5.70286Z"/><line class="i" x1="62.57462" y1="154.33565" x2="62.57462" y2="180.79962"/><line class="i" x1="59.67369" y1="154.33565" x2="59.67369" y2="180.79962"/><line class="i" x1="56.77276" y1="154.33565" x2="56.77276" y2="180.79962"/><line class="i" x1="53.87183" y1="154.33565" x2="53.87183" y2="180.79962"/><line class="i" x1="50.97091" y1="154.33565" x2="50.97091" y2="180.79962"/><line class="i" x1="48.06998" y1="154.33565" x2="48.06998" y2="180.79962"/><line class="i" x1="45.16906" y1="154.33565" x2="45.16906" y2="180.79962"/><line class="i" x1="42.26813" y1="154.33565" x2="42.26813" y2="180.79962"/><line class="i" x1="39.3672" y1="154.33565" x2="39.3672" y2="180.79962"/><line class="i" x1="36.46627" y1="154.33565" x2="36.46627" y2="180.79962"/><line class="i" x1="33.56535" y1="154.33565" x2="33.56535" y2="180.79962"/><line class="i" x1="30.66442" y1="154.33565" x2="30.66442" y2="178.94078"/><path class="g" d="M133.01286,154.40531v26.46612h34.34771a71.584,71.584,0,0,0,3.06233-20.76326v-5.70286h-37.41Z"/><line class="i" x1="136.07039" y1="154.33565" x2="136.07039" y2="180.79962"/><line class="i" x1="138.97133" y1="154.33565" x2="138.97133" y2="180.79962"/><line class="i" x1="141.87225" y1="154.33565" x2="141.87225" y2="180.79962"/><line class="i" x1="144.77318" y1="154.33565" x2="144.77318" y2="180.79962"/><line class="i" x1="147.6741" y1="154.33565" x2="147.6741" y2="180.79962"/><line class="i" x1="150.57503" y1="154.33565" x2="150.57503" y2="180.79962"/><line class="i" x1="153.47595" y1="154.33565" x2="153.47595" y2="180.79962"/><line class="i" x1="156.37688" y1="154.33565" x2="156.37688" y2="180.79962"/><line class="i" x1="159.27782" y1="154.33565" x2="159.27782" y2="180.79962"/><line class="i" x1="162.17874" y1="154.33565" x2="162.17874" y2="180.79962"/><line class="i" x1="165.07967" y1="154.33565" x2="165.07967" y2="180.79962"/><line class="i" x1="167.98059" y1="154.33565" x2="167.98059" y2="178.94078"/><path class="f" d="M161.47488,195.39q-1.575,2.76-3.38995,5.35a1.99509,1.99509,0,0,0-1.25.5,8.15756,8.15756,0,0,1-9.4,0,2.21814,2.21814,0,0,0-2.83,0,8.15746,8.15746,0,0,1-9.4,0,2.046,2.046,0,0,0-1.42005-.51,2.00717,2.00717,0,0,0-1.41.51,8.15758,8.15758,0,0,1-9.4,0,2.232,2.232,0,0,0-2.84,0,8.15758,8.15758,0,0,1-9.4,0,2.21813,2.21813,0,0,0-2.83,0,8.15748,8.15748,0,0,1-9.4,0,2.06185,2.06185,0,0,0-1.42-.51,2.00731,2.00731,0,0,0-1.41.51,8.15748,8.15748,0,0,1-9.4,0,2.01512,2.01512,0,0,0-1.42-.51,2.06174,2.06174,0,0,0-1.42.51,8.15758,8.15758,0,0,1-9.4,0,2.218,2.218,0,0,0-2.82995,0,8.15758,8.15758,0,0,1-9.4,0,2.06175,2.06175,0,0,0-1.42-.51,2.01514,2.01514,0,0,0-1.42005.51,8.15746,8.15746,0,0,1-9.4,0,2.23207,2.23207,0,0,0-2.84,0,7.74107,7.74107,0,0,1-4.34,1.48,71.36091,71.36091,0,0,1-5.12-7.88,7.93945,7.93945,0,0,1,3.33,1.38,2.04612,2.04612,0,0,0,1.42.51,2.0697,2.0697,0,0,0,1.43-.51,8.15773,8.15773,0,0,1,9.4,0,2.04612,2.04612,0,0,0,1.42.51,2.01522,2.01522,0,0,0,1.42-.51,8.15783,8.15783,0,0,1,9.4,0,2.046,2.046,0,0,0,1.42.51,2.02257,2.02257,0,0,0,1.41-.51,8.17362,8.17362,0,0,1,9.41,0,2.02256,2.02256,0,0,0,1.41.51,2.046,2.046,0,0,0,1.42-.51,8.15783,8.15783,0,0,1,9.4,0,2.21794,2.21794,0,0,0,2.83,0,8.15773,8.15773,0,0,1,9.4,0,2.04615,2.04615,0,0,0,1.42005.51,2.02256,2.02256,0,0,0,1.41-.51,8.15783,8.15783,0,0,1,9.4,0,2.23179,2.23179,0,0,0,2.84,0,8.15783,8.15783,0,0,1,9.4,0,2.046,2.046,0,0,0,1.42.51,2.00743,2.00743,0,0,0,1.41-.51,8.15773,8.15773,0,0,1,9.4,0,2.21794,2.21794,0,0,0,2.83,0,8.15773,8.15773,0,0,1,9.4,0,2.21794,2.21794,0,0,0,2.83,0,7.86687,7.86687,0,0,1,4.7-1.49A7.60031,7.60031,0,0,1,161.47488,195.39Z"/><path class="m" d="M99.453,231.30821h-.023a71.37643,71.37643,0,0,1-71.22743-71.52412V57.295H170.60258l.09992,102.53345A71.3761,71.3761,0,0,1,99.453,231.30821ZM30.42544,59.5258V159.7841a69.14873,69.14873,0,0,0,69.00448,69.29332h.023a69.14839,69.14839,0,0,0,69.02658-69.248l-.098-100.30362H30.42544Z"/><path class="n" d="M89.97792,231.63155c.18238.37549-.14815,1.01478-1.66033,2.52978-1.82833,1.83171-2.42829,1.98233-3.77955,3.24326-2.52787,2.35892-3.02648,4.25664-4.83948,4.44928a1.86314,1.86314,0,0,1-1.32893-.263c-.83135-.62129-.4319-1.89939-.89637-2.08536-.64365-.25772-1.58279,2.12784-4.12785,3.61034-.75854.44186-2.13822,1.24553-3.00522.67871-.80241-.5246-.86266-2.02657-.46666-3.035a4.4198,4.4198,0,0,1,1.09374-1.45078,27.56163,27.56163,0,0,1-3.76859,2.73993,9.985,9.985,0,0,1-5.4862,1.4307c-1.0439-.06853-3.07417-.39868-3.21478-1.22155-.10235-.599.82981-1.26287,2.62739-2.54309,1.59232-1.134,2.37636-1.45983,2.30134-1.69773-.115-.36445-2.14753-.21038-3.90075.28624a15.664,15.664,0,0,1-2.95685.86366,4.9135,4.9135,0,0,1-2.37335-.12389c-1.76455-.648-3.02322-2.8215-2.515-3.67773.37459-.63117,1.59375-.08936,3.52424-.99222.24388-.114,1.697-.79369,1.60178-1.261-.1355-.66472-3.17444.22755-6.25107-1.17084-2.2497-1.02254-4.15127-3.10059-3.756-4.14818.44406-1.17683,3.65393-.7016,3.84654-1.70447.08066-.42-.449-.67721-1.094-1.4151a6.65489,6.65489,0,0,1-1.55445-5.62229A3.57156,3.57156,0,0,1,50.0187,216.661a3.556,3.556,0,0,1,3.055.66466c1.9492,1.50967,1.64483,4.71873,2.19368,4.70192.22275-.00682.38706-.53481.548-1.05191.40284-1.29457.0837-1.89374.45684-2.312.4518-.50635,1.59916-.38965,2.37914-.02379,2.31234,1.08466,2.59931,4.92392,2.6541,5.65723.11844,1.58453-.1216,3.04354-.01163,3.05723A7.692,7.692,0,0,1,62.6604,223.952c.35457-.4156,1.19467-1.39021,2.14239-1.30418,1.7578.15954,2.89737,4.10681,3.15961,5.01515a27.61093,27.61093,0,0,0,.98158,2.75063c.46026,1.17036.64052,1.48472.80449,1.46806.33819-.03438.15458-1.4307.84614-3.07858.2825-.67313,1.01006-2.40679,2.07221-2.50191,1.697-.152,3.48323,3.947,3.66518,4.37308.49149,1.151.78349,2.31555,1.04817,2.27426.17949-.028.23136-.61424.27795-1.13857.13579-1.52835-.21258-2.0571.13684-2.58513a1.75385,1.75385,0,0,1,1.50063-.6309c.81333.04266,1.21164.64947,2.98552,2.4368,1.57967,1.59164,1.70388,1.654,1.90179,1.69134,1.31444.24782,1.9603-1.34941,4.13-1.50149.31-.02173,1.42122-.091,1.665.41095Z"/><path class="b" d="M86.81684,233.74367a24.7225,24.7225,0,0,1-9.55793,2.94034A25.65477,25.65477,0,0,1,65.174,234.757a26.37535,26.37535,0,0,1-10.96541-8.66036"/><path class="b" d="M58.56723,225.93385q.27541,2.621.55082,5.2421-2.991-.61581-5.98191-1.23163"/><path class="b" d="M66.07781,229.56633q.62143,2.99,1.24288,5.98007-3.87469.31252-7.74942.625"/><path class="b" d="M71.6968,236.5354l-5.96719,3.16974"/><path class="b" d="M73.12234,233.13365q2.06829,1.77519,4.13656,3.55036-1.08558,1.39251-2.17119,2.78505"/><path class="b" d="M80.04025,232.0836q1.60386,1.63221,3.20775,3.26441l-1.62423,3.2529"/><path class="n" d="M13.29562,181.48168a37.46764,37.46764,0,0,1-5.35293-19.78931c.27109-11.28,5.94754-19.74651,6.38641-19.58824.35636.12851-2.4635,6.0411-3.187,15.28615a56.11082,56.11082,0,0,0,.58814,13.49681"/><path class="n" d="M11.7302,170.8871a45.17156,45.17156,0,0,1,.75659-17.69472c1.65857-6.63644,4.75259-12.25427,5.2059-12.08822.40115.14694-1.42157,4.75711-2.47061,11.11764A54.51043,54.51043,0,0,0,15.243,169.915"/><path class="n" d="M15.243,169.915a40.43073,40.43073,0,0,1-.3555-12.52469c1.23935-9.56457,5.78281-17.08383,6.33463-16.87439.45218.17163-2.00623,5.44579-3.21415,13.29413a61.35768,61.35768,0,0,0,.92273,22.94118"/><path class="n" d="M20.28241,175.357a38.31649,38.31649,0,0,1-2.784-16.72474c.72836-11.13955,6.57147-19.41854,7.106-19.20456.50736.20311-3.877,8.0098-4,19.58823a48.30748,48.30748,0,0,0,1.65946,12.98779"/><path class="n" d="M22.26389,172.00369a42.06824,42.06824,0,0,1-.722-17.32931c1.49155-8.62491,5.64817-15.49091,6.29782-15.25269.67661.24811-2.96133,8.01221-3.76471,18.94715A62.14,62.14,0,0,0,26.55475,180.541"/><path class="n" d="M44.58972,216.31a16.333,16.333,0,0,0-2.94116-15.76471,7.9267,7.9267,0,0,0-2.94119,5.94118,7.37179,7.37179,0,0,0,1.29413,4.05882,12.13168,12.13168,0,0,0-6.88236-2.11764,11.67611,11.67611,0,0,0-4,.76471A15.06345,15.06345,0,0,0,44.58972,216.31Z"/><path class="n" d="M36.94269,208.19237a14.02245,14.02245,0,0,1-8.52942-.23529,14.51234,14.51234,0,0,1-8.17648-7.86731A11.33455,11.33455,0,0,1,31.0015,203.0159a10.362,10.362,0,0,1,3.88235-11.72777,14.28372,14.28372,0,0,1,4.05884,9.43366,13.91675,13.91675,0,0,1-2,7.47059Z"/><path class="n" d="M8.70737,181.42766c.34817.98036,2.66562,7.18907,8.94119,9.35295a13.60291,13.60291,0,0,0,6.23529.58823,16.15475,16.15475,0,0,0-1.29413-19.76471,14.48112,14.48112,0,0,0-2.88235,13.41177,12.27022,12.27022,0,0,0-4.23529-2.88235A12.41862,12.41862,0,0,0,8.70737,181.42766Z"/><path class="n" d="M17.68155,183.31291a9.37652,9.37652,0,0,1-6.41534-5.88524,8.86785,8.86785,0,0,1,2.02942-8.81268,10.68769,10.68769,0,0,1,4.38592,4.22444C20.35175,177.66525,17.95172,182.76267,17.68155,183.31291Z"/><path class="n" d="M29.11914,199.89826A15.15378,15.15378,0,0,1,18.178,197.48648a14.56524,14.56524,0,0,1-4.88235-5.99013,14.56645,14.56645,0,0,1,12,2.22542,10.145,10.145,0,0,1-.47062-7,9.85456,9.85456,0,0,1,2.64707-4.23529,12.17232,12.17232,0,0,1,4.05884,5.88236C33.34467,194.32263,29.54065,199.3589,29.11914,199.89826Z"/><path class="n" d="M108.76868,231.63155c-.18238.37549.14815,1.01478,1.66034,2.52978,1.82833,1.83171,2.42829,1.98233,3.77954,3.24326,2.52787,2.35892,3.02649,4.25664,4.83948,4.44928a1.86314,1.86314,0,0,0,1.32893-.263c.83135-.62129.4319-1.89939.89637-2.08536.64364-.25772,1.58278,2.12784,4.12784,3.61034.75855.44186,2.13823,1.24553,3.00524.67871.80241-.5246.86265-2.02657.46666-3.035a4.41991,4.41991,0,0,0-1.09375-1.45078,27.56212,27.56212,0,0,0,3.7686,2.73993,9.985,9.985,0,0,0,5.4862,1.4307c1.0439-.06853,3.07418-.39868,3.21479-1.22155.10235-.599-.82981-1.26287-2.62738-2.54309-1.59232-1.134-2.37636-1.45983-2.30133-1.69773.115-.36445,2.14753-.21038,3.90074.28624a15.664,15.664,0,0,0,2.95685.86366,4.91351,4.91351,0,0,0,2.37335-.12389c1.76455-.648,3.02322-2.8215,2.515-3.67773-.37459-.63117-1.59376-.08936-3.52424-.99222-.24388-.114-1.697-.79369-1.60178-1.261.1355-.66472,3.17444.22755,6.25107-1.17084,2.24969-1.02254,4.15126-3.10059,3.756-4.14818-.44406-1.17683-3.65393-.7016-3.84654-1.70447-.08066-.42.449-.67721,1.094-1.4151a6.65492,6.65492,0,0,0,1.55446-5.62229,3.0346,3.0346,0,0,0-5.07628-1.72559c-1.9492,1.50967-1.64483,4.71873-2.19368,4.70192-.22275-.00682-.38707-.53481-.548-1.05191-.40283-1.29457-.0837-1.89374-.45683-2.312-.4518-.50635-1.59917-.38965-2.37914-.02379-2.31235,1.08466-2.5993,4.92392-2.65411,5.65723-.11844,1.58453.12161,3.04354.01162,3.05723a7.69186,7.69186,0,0,0-1.36656-3.40239c-.35457-.4156-1.19467-1.39021-2.14238-1.30418-1.75781.15954-2.89737,4.10681-3.1596,5.01515a27.61569,27.61569,0,0,1-.98157,2.75063c-.46027,1.17036-.64052,1.48472-.80451,1.46806-.33818-.03438-.15458-1.4307-.84614-3.07858-.2825-.67313-1.01006-2.40679-2.07221-2.50191-1.697-.152-3.48322,3.947-3.66517,4.37308-.4915,1.151-.7835,2.31555-1.04817,2.27426-.17949-.028-.23137-.61424-.278-1.13857-.13579-1.52835.21258-2.0571-.13684-2.58513a1.75386,1.75386,0,0,0-1.50064-.6309c-.81332.04266-1.21163.64947-2.98551,2.4368-1.57967,1.59164-1.70389,1.654-1.90179,1.69134-1.31444.24782-1.96031-1.34941-4.13-1.50149-.31-.02173-1.42121-.091-1.665.41095Z"/><path class="b" d="M111.92976,233.74367a24.7225,24.7225,0,0,0,9.55793,2.94034,25.65485,25.65485,0,0,0,12.08493-1.927,26.3753,26.3753,0,0,0,10.9654-8.66036"/><path class="b" d="M140.17938,225.93385q-.27543,2.621-.55082,5.2421,2.991-.61581,5.9819-1.23163"/><path class="b" d="M132.66879,229.56633q-.62143,2.99-1.24289,5.98007,3.87472.31252,7.74942.625"/><path class="b" d="M127.0498,236.5354l5.9672,3.16974"/><path class="b" d="M125.62425,233.13365q-2.06827,1.77519-4.13656,3.55036,1.08559,1.39251,2.1712,2.78505"/><path class="b" d="M118.70635,232.0836q-1.60386,1.63221-3.20775,3.26441.81211,1.62644,1.62423,3.2529"/><path class="n" d="M185.451,181.48168a37.46772,37.46772,0,0,0,5.35294-19.78931c-.27109-11.28-5.94754-19.74651-6.38641-19.58824-.35636.12851,2.4635,6.0411,3.187,15.28615a56.11082,56.11082,0,0,1-.58814,13.49681"/><path class="n" d="M187.0164,170.8871a45.17156,45.17156,0,0,0-.75659-17.69472c-1.65857-6.63644-4.75259-12.25427-5.2059-12.08822-.40115.14694,1.42157,4.75711,2.47061,11.11764a54.51072,54.51072,0,0,1-.02087,17.69319"/><path class="n" d="M183.50365,169.915a40.43073,40.43073,0,0,0,.3555-12.52469c-1.23935-9.56457-5.78281-17.08383-6.33463-16.87439-.45218.17163,2.00623,5.44579,3.21414,13.29413a61.35725,61.35725,0,0,1-.92273,22.94118"/><path class="n" d="M178.46419,175.357a38.31649,38.31649,0,0,0,2.784-16.72474c-.72836-11.13955-6.57147-19.41854-7.106-19.20456-.50736.20311,3.87695,8.0098,4,19.58823a48.30789,48.30789,0,0,1-1.65946,12.98779"/><path class="n" d="M176.48271,172.00369a42.06841,42.06841,0,0,0,.722-17.32931c-1.49155-8.62491-5.64817-15.49091-6.29782-15.25269-.67661.24811,2.96133,8.01221,3.76471,18.94715a62.14,62.14,0,0,1-2.47974,22.17215"/><path class="n" d="M154.15688,216.31A16.333,16.333,0,0,1,157.098,200.5453a7.9267,7.9267,0,0,1,2.94119,5.94118,7.37179,7.37179,0,0,1-1.29413,4.05882,12.13168,12.13168,0,0,1,6.88236-2.11764,11.67616,11.67616,0,0,1,4,.76471A15.06345,15.06345,0,0,1,154.15688,216.31Z"/><path class="n" d="M161.80391,208.19237a14.02245,14.02245,0,0,0,8.52942-.23529,14.51234,14.51234,0,0,0,8.17648-7.86731,11.33455,11.33455,0,0,0-10.76471,2.92613,10.362,10.362,0,0,0-3.88235-11.72777,14.28372,14.28372,0,0,0-4.05884,9.43366,13.91675,13.91675,0,0,0,2,7.47059Z"/><path class="n" d="M190.03923,181.42766c-.34817.98036-2.66562,7.18907-8.94119,9.35295a13.60291,13.60291,0,0,1-6.23529.58823,16.15475,16.15475,0,0,1,1.29413-19.76471,14.48112,14.48112,0,0,1,2.88235,13.41177,12.27,12.27,0,0,1,4.23529-2.88235A12.41861,12.41861,0,0,1,190.03923,181.42766Z"/><path class="n" d="M181.06505,183.31291a9.37652,9.37652,0,0,0,6.41534-5.88524A8.86785,8.86785,0,0,0,185.451,168.615a10.68769,10.68769,0,0,0-4.38592,4.22444C178.39485,177.66525,180.79488,182.76267,181.06505,183.31291Z"/><path class="n" d="M169.62746,199.89826a15.15378,15.15378,0,0,0,10.94116-2.41178,14.56524,14.56524,0,0,0,4.88235-5.99013,14.56645,14.56645,0,0,0-12,2.22542,10.14506,10.14506,0,0,0,.47062-7,9.85456,9.85456,0,0,0-2.64707-4.23529,12.17225,12.17225,0,0,0-4.05884,5.88236C165.40193,194.32263,169.206,199.3589,169.62746,199.89826Z"/></svg>