<svg xmlns="http://www.w3.org/2000/svg" viewBox="0 0 198.98965 255.61002"><defs><style>.a{fill:#db251a;}.a,.b,.c,.e,.f{stroke:#000;}.a,.b,.c{stroke-linecap:round;stroke-linejoin:round;}.a,.b,.c,.e{stroke-width:1.13px;}.a,.c,.d{fill-rule:evenodd;}.b,.e{fill:none;}.c{fill:#fa8004;}.d{fill:gold;}.e{stroke-miterlimit:11.34;}.f{fill:#005bb2;stroke-miterlimit:10;}</style></defs><path class="a" d="M99.2125,40.285c-16.7-.09-25.8,2.59-31.8,4.5l-1.2-5.59,2.3-.71-2.52-12.79-8.8-2.21-2.8-15.6,20.7-4.8,8,8.1,1.3,11,6.2-.61-2.1-4.19L87.2125.565h24.2l-1.42,16.8-1.9,4.2,6.2.61,1.3-11,8-8.11,20.7,4.8-2.7,15.7-8.8,2.21-2.6,12.79,2.4.8-1.2,5.41C126.4125,43.285,115.9925,40.375,99.2125,40.285Z"/><path class="b" d="M66.1125,25.795a119.49049,119.49049,0,0,1,33-4.4,119.6601,119.6601,0,0,1,33.6,4.6m-65.3,6.2a116.62,116.62,0,0,1,31.8-4.19,117.08008,117.08008,0,0,1,32.3,4.3m-63.4,6.41a115.54,115.54,0,0,1,31-4,113.72971,113.72971,0,0,1,31.4,4.2m-74.3-23.1,20-4.5,7.6,6.19m-26.4,6.12,20.2-4.31,4.6,3m-10.9,2.1-6.9-2.5-1.3-7.2m5.6-2-1.1-7.5m9.9,14.2-2.4-16.2m7.88,25.7-.8-6.3m9.5,12-.4-6.3m-15.1,8.2-.9-6.2m24.12-2.31v-6.61m43-5.5-19.8-4.5-7.7,6m26.5,6.21-19.42-4.41-5.4,3.2m11,2,6.9-2.5,1.2-7.2m-5.5-2,1.1-7.7m-9.2,14.2,1.7-16.11m-8,25.8.8-6.31m-9.4,12,.4-6.29m14.8,8.38.9-6.2m-23.88-2.46v-6.61m2.6-.29,1.3-4.2v-7.9m-7.2-.31V1.005m-7.9,8h22.3m-21.52,7.88h21"/><path class="c" d="M99.4125,40.285c9.2,0,15,.29,24.4,2.41s20.5,7.7,26.4,7.7a9.35,9.35,0,0,0,6.2-2.2,6.25,6.25,0,0,0,2.4-5.41c-.1-2.41-3.5-2.71,0-2.71,3.1,0,4.5,2.41,5,4.41a7.11,7.11,0,0,1,7.1-4.79c4.7,0,6.2,4.59,6.5,7.5.2,2.29,5.9,7.79,6.4,8.29s2.9,2.71,3.9,2a6,6,0,0,1,3.3-1.09c4.6,0,7.4,2.59,7.4,6.59a5.82,5.82,0,0,1-5.42,6.18h0a4.99554,4.99554,0,0,1-.55,0,4.94,4.94,0,0,1-4.81-5,.14.14,0,0,0,0-.09,3.92,3.92,0,0,1,3.9-3.59c3.8,0,3.5,4.9,1.9,5.09,1.6-.3,1.8-5.09-1.9-5.09-1.3,0-2.4.5-3.9,2.4a15.19992,15.19992,0,0,0-2.8,6.3c-1.3,5.2-2.3,26.8-2.3,26.8,3-1.7,6.2-3.2,3.6-8,1.4.5,3.4,1.19,4,3.3s-.1,3.2-1.1,5.3c1.1-.4,3.3.9,3.5,2.9a2.68,2.68,0,0,1-2.23,3.06h-.37c-1.3,0-2.2-.7-2.2-1.6s.2-1.3.7-1.4c.9-.1.2-.4-.4-.5a3.7,3.7,0,0,0-4.31323,2.96243l-.00678.03757h0a3.07958,3.07958,0,0,0-.06.61c2.3.6,3.7,2,3.9,2.9.6,2.2-1.9.3-3.4,2.2a5.17,5.17,0,0,0-1.3,3.5c0,.9.1,2.4,1.4,3a2.4,2.4,0,0,0,3.23-1h0a2.26993,2.26993,0,0,0,.27-1.3c-.1-2.6,2.4-4.7,4.9-4.81a5.47,5.47,0,0,1,5.6992,5.23076l.0008.01924h0v.44a7.65,7.65,0,0,1-6.7,7.4c-5.5,1.2-5.8,12-8,14.9,1.4-.3,2.1-1.6,2.4-3a3.73,3.73,0,0,1,.8,3,5.86,5.86,0,0,1-3.6,4.2c0,.61-.1,1.7-.1,2.7.3,3.8,7.6,12.7,7.6,26.1s-7.7,34.7-34.3,50.1c-24,13.9-34.2,16.1-38.3,29.6a41.66943,41.66943,0,0,0-7.5-3.2c-1,1-1.9,2.5-3.4,6.61-1.5-.9-2.1-2.8-2.8-2.9-.5,0-3,4.5-5,6.7-2-2.2-4.4-6.7-4.9-6.7-.7,0-1.4,1.9-2.8,2.9-1.5-4-2.4-5.61-3.4-6.61a40.2909,40.2909,0,0,0-7.5,3.2c-4.1-13.5-14.3-15.8-38.3-29.6-26.6-15.4-34.3-36.6-34.3-50.1s7.3-22.3,7.6-26.1a22.00289,22.00289,0,0,0-.1-2.7,5.88,5.88,0,0,1-3.6-4.2,3.73,3.73,0,0,1,.8-3c.3,1.4.9,2.7,2.4,3-2.2-2.9-2.4-13.7-8-14.9a7.67,7.67,0,0,1-6.7-7.4,5.48,5.48,0,0,1,5.25-5.7h.39a5.08,5.08,0,0,1,4.9,4.8,2.39,2.39,0,0,0,2.14,2.58,2.55,2.55,0,0,0,1.36-.28c1.3-.6,1.4-2.1,1.4-3a5.17,5.17,0,0,0-1.3-3.5c-1.5-1.9-4,0-3.4-2.2.2-.8,1.6-2.3,3.9-2.9a3.65,3.65,0,0,0-3.56-3.63,5.71017,5.71017,0,0,0-.82.09c-.6.1-1.3.4-.4.5.4.1.7.5.7,1.4s-.9,1.6-2.2,1.6a2.74,2.74,0,0,1-2.63-2.83h0v-.26c.2-1.9,2.4-3.3,3.5-2.9-1-2.1-1.8-3.2-1.1-5.31s2.7-2.8,4-3.3c-2.6,4.8.6,6.3,3.6,8,0,0-1.1-21.6-2.3-26.8a15.51,15.51,0,0,0-2.8-6.3c-1.5-1.9-2.6-2.4-3.9-2.4-3.7,0-3.6,4.8-1.9,5.1-1.6-.2-1.9-5.1,1.9-5.1a4,4,0,0,1,3.9,3.6,4.9,4.9,0,0,1-4.69225,5.0993l-.01775.0007h0a5.81,5.81,0,0,1-6-5.61h0a5.23042,5.23042,0,0,1,0-.56c0-4,2.8-6.6,7.4-6.6a6.09,6.09,0,0,1,3.3,1.1c1.1.7,3.4-1.5,3.9-2s6.2-6.1,6.4-8.3c.3-2.9,1.8-7.5,6.5-7.5a7.27,7.27,0,0,1,7.1,4.8c.5-2,1.8-4.4,5-4.4,3.5,0,.1.3,0,2.7a6.56,6.56,0,0,0,2.4,5.4,9.15,9.15,0,0,0,6.2,2.2c6,0,17-5.5,26.4-7.7S90.2125,40.285,99.4125,40.285Z"/><path class="b" d="M85.6125,40.875c6.2-.5,9.6,3.2,10,6.41a7.08,7.08,0,0,1-1.8,6.29c2.5-.29,4.9.59,5.6,2,.7-1.41,3.1-2.29,5.6-2a7.08,7.08,0,0,1-1.8-6.29c.5-3.21,4-6.91,10.2-6.41"/><path class="b" d="M74.7125,47.375l1.6-.59.4,1.7m-13.3,1,1.7-.41-.4,1.41m12.28-5.41,1-.2.1,1m-12.1,1.91,1-.09v.9m57.2-1.2-1.6-.6-.4,1.7m13.4,1-1.7-.4.4,1.4m-12.3-5.42-1-.2-.1,1m12.1,1.91-1-.09v.9"/><path class="b" d="M93.7125,53.665a6.25,6.25,0,0,1-3.8,1.6,4.22,4.22,0,0,1-4.4-4v-.16a3.77,3.77,0,0,1,3.35-4.1h.65a2.71,2.71,0,0,1,2.89,2.5v.3a2.54,2.54,0,0,1-2.1,2.7c-1.1.1-1.9-.4-1.9-1.4a1.08,1.08,0,0,1,.98333-1.1687l.01667-.0013h0"/><path class="b" d="M35.1125,44.575c0,5.71,3.4,10.5,9,10.8s1.5-2.09,5.7-2.09,2.3,1.79.9,2.59c5.7.29,8.3-4.71,12.2-4.91a4.68,4.68,0,0,1-2.7,3.7c6.9,2.6,11.4-5.59,14.5-5.29-2.6,4.2,1.6,7.59,7.3,5.29a5,5,0,0,1-1.9-5.29,6.15,6.15,0,0,1,5.88-4.09c3.2-.09,5,1.29,5.9,2.7"/><path class="b" d="M17.3125,60.665a13.30993,13.30993,0,0,0-2.7-3.79m6.38-2.21a20.86987,20.86987,0,0,0-2.4-2.2m.4,4.91a14.11967,14.11967,0,0,0-2.3-2.71m6.2-2.59a16.51026,16.51026,0,0,1-2.7-1.41m4.5-1.29a7.99993,7.99993,0,0,1-3.4-.71m5.8-4.4c-2.2,0-3.8,1.3-5.2,2.9m3.9-.5a8,8,0,0,0-4.1,1.3"/><polygon class="b" points="98.313 49.275 99.412 50.885 100.512 49.275 99.412 47.665 98.313 49.275"/><path class="d" d="M170.7125,57.375h-142.5v102.69a71.3,71.3,0,0,0,142.6,0v-.3C170.7125,159.785,170.7125,57.375,170.7125,57.375Z"/><path class="b" d="M18.1125,98.065a8.79975,8.79975,0,0,0-1.6-2"/><path class="b" d="M7.3125,113.495a1.86,1.86,0,0,0,.34-2.6h0a1.79,1.79,0,0,0-1.53-.71,2.8,2.8,0,0,0-2.7,2.89h0a3.42,3.42,0,0,0,3.34876,3.48978l.01124.00022h.21a4.35,4.35,0,0,0,4.1-4.19"/><path class="b" d="M5.2125,116.275c4.2,3.1,8.5,0,10.2-2.6"/><path class="b" d="M7.2125,120.275a6.00014,6.00014,0,0,0,1.4.1,13.12,13.12,0,0,0,11.2-6.5c2.4-4.31,2.7-5.81,2.6-11.31a12.54,12.54,0,0,1,1.7-7.3c.6-.9.7-1-.5-1a6.24,6.24,0,0,0-3.7,1.5,7,7,0,0,0-1.5,8.4,3.57,3.57,0,0,0-3.5-1.4"/><path class="b" d="M11.2125,57.375c3.5,2.29,6.3,8,7.1,16,.9,10.5,1.1,17.3,2.1,22.09"/><path class="b" d="M24.9925,188.375c-1.4,2.61-2.1,9.8-1.3,14.8m-2.4-34.58c0,7.89-6.4,10.1-5.6,24.39m23.9,16.5.3,2-1.4-.11m-1.2-5,.5,3-2.1-.11m5.5,2.4.6,1.3-1.1-.3m-21.3-28.8c.1,2,.5,4,2.6,3.5m-10.5-19.7a9.53,9.53,0,0,0,1.1,6.3c1.3,2.3.1-1.3,2.6-2.3m-.3-19.6c-.1,1.3.4,2.5,1.7,2.5-.2.8.4,1.7-1.3,3.6"/><path class="b" d="M15.7125,139.375a6.56,6.56,0,0,0,5.5-.61c-3,1.9-.7,4-3.1,6.2a3,3,0,0,0,2.7-1c.6,4.3-3.8,4-3.2,8.4a2.6,2.6,0,0,0,2.9-1.3c1.6,7.2-6.4,9.7-7,15.3-.4,4.2,2,3.1,2.6,1.8s.3-3,.3-4.1c3,1.4,3.1.5,3.1-2.1a4.45,4.45,0,0,1,3.9-4.7c-1.2,6.3,2.2,9.4,2.2,15,.1,7.3-4.4,8.2-4.3,11,.1,2.3,2.3,2.9,2.3-3.1a5.86019,5.86019,0,0,1,2.7,2,5.83,5.83,0,0,1,3-1.4,15.14007,15.14007,0,0,1,1,6.1c-.1,2.6-1.8,4.5-3.1,6s-2.4,5.4-.8,5.5c2.9.1.2-4.3,3-8.6,1.9,3.3,3.6,5.7,3.3,9.8-.2,2.3-.8,6.4,1.6,7.4"/><path class="b" d="M15.3125,121.065a18.6605,18.6605,0,0,1-4.7,1.31m4.8,1.3a19.14031,19.14031,0,0,1-3.5.9m4.1,1.5a18.70008,18.70008,0,0,1-3.4.81m4.1,1.49a19.72953,19.72953,0,0,1-3.4.7m4.5,1.5a11.33013,11.33013,0,0,1-4,.6m5.6,1.61a10.72,10.72,0,0,1-5,.39m7.9,1.2c-1.1,1-4.4,1.61-7.2.8"/><path class="b" d="M99.3125,249.095c-1.9-1.81-5.1-7.11-6.3-9.4-1.1,0-1.7,1-4.6,1a8.7,8.7,0,0,0-4.9,1.2c-11.1-14.2-21.7-14.9-34.6-25.4-6.1-4.9-5.2-9.4-7.6-13.5s-6.4-3-8.3-4.6c1.9,1.5,5.9.39,8.3,4.6"/><path class="b" d="M105.2125,53.665a6.28,6.28,0,0,0,3.8,1.6,4.2,4.2,0,0,0,4.39-4,.43.43,0,0,0,0-.16,3.76,3.76,0,0,0-3.34-4.1h-.65a2.73,2.73,0,0,0-2.9,2.5,1.49927,1.49927,0,0,0,0,.3,2.55,2.55,0,0,0,2.1,2.7c1.1.1,1.9-.4,1.9-1.4a1.1,1.1,0,0,0-1-1.19h0"/><path class="b" d="M163.81251,44.575c.2,5-3.4,10.6-9,10.91s-1.5-2.09-5.7-2.09-2.3,1.8-.9,2.59c-5.7.3-8.3-4.7-12.2-4.91a4.78,4.78,0,0,0,2.7,3.71c-6.9,2.59-11.4-5.59-14.5-5.3,2.6,4.21-1.6,7.59-7.3,5.3a5,5,0,0,0,1.9-5.3,6.14,6.14,0,0,0-5.8-4.09c-3.2-.1-5,1.3-5.9,2.7"/><path class="b" d="M99.4125,237.005c.6,0,1.9.12,1.9,2s-.9,5.12-1.9,5.12-1.9-3.2-1.9-5.12S98.7125,237.005,99.4125,237.005Zm-8.1,6.12,2.1,3.3m13.9-3.3-2.1,3.3"/><path class="b" d="M181.31251,60.665a13.30973,13.30973,0,0,1,2.7-3.79m-6.3-2.21a20.86987,20.86987,0,0,1,2.4-2.2m-.3,4.91a14.48966,14.48966,0,0,1,2.3-2.71m-6.12-2.59a15.41061,15.41061,0,0,0,2.7-1.41m-4.5-1.29a7.99988,7.99988,0,0,0,3.4-.71m-5.8-4.4c2.2,0,3.8,1.3,5.2,2.9m-3.9-.5a8.17,8.17,0,0,1,4.1,1.3"/><path class="b" d="M180.6125,98.065a9.63007,9.63007,0,0,1,1.6-2"/><path class="b" d="M191.4125,113.495a1.87,1.87,0,0,1-.32-2.6,1.78,1.78,0,0,1,1.52-.71,2.8,2.8,0,0,1,2.70012,2.89643l-.00013.00357h0a3.47,3.47,0,0,1-3.38,3.51h-.22a4.33,4.33,0,0,1-4.1-4.19"/><path class="b" d="M193.4125,116.275c-4.2,3.1-8.5,0-10.2-2.6"/><path class="b" d="M191.4125,120.275a6.00009,6.00009,0,0,1-1.4.1,13.15,13.15,0,0,1-11.2-6.5c-2.4-4.31-2.7-5.81-2.6-11.31a12.56,12.56,0,0,0-1.7-7.3c-.6-.9-.7-1,.5-1a6.21011,6.21011,0,0,1,3.7,1.5,7,7,0,0,1,1.5,8.4,3.55,3.55,0,0,1,3.5-1.4"/><path class="b" d="M187.51251,57.575c-3.5,2.3-6.3,7.81-7.1,15.91-.9,10.5-1.1,17.3-2.1,22.08"/><path class="b" d="M159.1125,209.485l-.3,2,1.4-.11m1.2-5-.5,3,2.1-.11m-5.5,2.4-.52,1.34,1.1-.3m21.3-28.81c-.1,2-.5,4-2.6,3.5m10.6-19.69a9.52994,9.52994,0,0,1-1.1,6.3c-1.3,2.31-.1-1.3-2.6-2.3m.3-19.61c.1,1.3-.4,2.5-1.7,2.5.2.8-.4,1.7,1.3,3.61m-9.7,30.19c1.4,2.61,2.1,9.81,1.3,14.81m2.4-34.58c0,7.88,6.4,10.1,5.6,24.38"/><path class="b" d="M182.9925,139.375a6.5,6.5,0,0,1-5.5-.61c3,1.9.7,4,3.1,6.2a3,3,0,0,1-2.7-1c-.6,4.3,3.8,4,3.2,8.4a2.59,2.59,0,0,1-2.9-1.3c-1.6,7.2,6.4,9.7,7,15.3.4,4.2-2,3.1-2.6,1.8s-.3-3-.3-4.1c-3,1.4-3.1.5-3.1-2.1a4.45,4.45,0,0,0-3.9-4.7c1.2,6.3-2.2,9.4-2.2,15-.1,7.3,4.4,8.2,4.3,11-.1,2.3-2.3,2.9-2.3-3.1a5.79,5.79,0,0,0-2.7,2,5.87,5.87,0,0,0-3-1.4,14.81012,14.81012,0,0,0-1,6.1c.1,2.6,1.8,4.5,3.1,6s2.4,5.4.8,5.5c-2.9.1-.2-4.3-3-8.6-1.9,3.3-3.6,5.7-3.3,9.8.2,2.3.8,6.4-1.6,7.4"/><path class="b" d="M183.31251,121.065a18.89034,18.89034,0,0,0,4.7,1.31m-4.8,1.3a19.35062,19.35062,0,0,0,3.5.9m-4,1.5a20.00089,20.00089,0,0,0,3.4.81m-4.2,1.49a19.72961,19.72961,0,0,0,3.4.7m-4.5,1.5a11.33013,11.33013,0,0,0,4,.6m-5.5,1.61a10.74,10.74,0,0,0,5,.39m-8,1.2c1.1,1,4.4,1.61,7.2.8"/><path class="b" d="M99.3125,249.095c1.9-1.81,5.1-7.11,6.3-9.4,1.1,0,1.7,1,4.6,1a8.67993,8.67993,0,0,1,4.9,1.2c11.1-14.2,21.7-14.9,34.6-25.4,6.1-4.9,5.2-9.4,7.6-13.5s6.4-3,8.3-4.6c-1.9,1.5-5.9.39-8.3,4.6"/><path class="e" d="M170.7125,57.375h-142.5v102.69a71.3,71.3,0,0,0,142.6,0v-.3C170.7125,159.785,170.7125,57.375,170.7125,57.375Z"/><path class="f" d="M147.9925,165.715h-42v-39.46h42v-13.25h-42v-42h-13.53l-41.83,41.77v13.48h42.05v39.46h-42v13.29h42v42h13.31v-42h42Zm-55.31-52.71h-23.53l23.53-23.54Z"/><path class="f" d="M130.4925,78.785c-2.89-1-5.5-.89-9.06-.76-3.8.13-6.68.27-9.15,2.3-.7.58-3,2.51-2.91,5.34.09,2.12,1.57,5,4,5.06a4.31,4.31,0,0,0,4.18-4.12,3.34994,3.34994,0,0,0-.74-1.88h2.4v18.35h-6.35v6.66h18.13a16.66,16.66,0,0,0,11.61-16C142.26251,85.555,135.3625,80.425,130.4925,78.785Zm-4.5,25.35V84.745a9.73,9.73,0,0,1,0,19.39Z"/></svg>