<svg xmlns="http://www.w3.org/2000/svg" viewBox="0 0 500 500"><defs><style>.a{fill:#fec10d;}.b{fill:#004a8f;}</style></defs><rect class="a" width="500" height="500"/><rect class="b" y="3.5" width="496.5" height="493"/><path class="a" d="M16.06469,3.5,0,50H32.12937Z"/><path class="a" d="M32.12937,50H64.29021L48.20979,3.5Z"/><path class="a" d="M64.29021,50H96.41958L80.3549,3.5Z"/><path class="a" d="M96.41958,50h32.16083L112.5,3.5Z"/><path class="a" d="M128.58041,50h32.12937L144.64508,3.5,128.5804,50Z"/><path class="a" d="M160.70979,50h32.16085L176.79022,3.5,160.70981,50Z"/><path class="a" d="M192.87064,50H225L208.9353,3.5Z"/><path class="a" d="M225,50h32.16083L241.08041,3.5Z"/><path class="a" d="M257.16083,50h32.12936L273.22549,3.5Z"/><path class="a" d="M289.29022,50h32.14511L305.37067,3.5,289.29025,50Z"/><path class="a" d="M321.4353,50h32.14511L337.51572,3.5Z"/><path class="a" d="M353.58041,50h32.14511L369.66086,3.5,353.58044,50Z"/><path class="a" d="M385.72552,50h32.14512L401.80594,3.5Z"/><path class="a" d="M417.87064,50H450L433.9353,3.5Z"/><path class="a" d="M16.06469,496.5,0,450H32.12937Z"/><path class="a" d="M32.12937,450H64.29021L48.20979,496.5Z"/><path class="a" d="M64.29021,450H96.41958L80.35489,496.5Z"/><path class="a" d="M96.41958,450h32.16083L112.5,496.5Z"/><path class="a" d="M128.58041,450h32.12937l-16.0647,46.5L128.5804,450Z"/><path class="a" d="M160.70979,450h32.16085l-16.08042,46.5L160.70981,450Z"/><path class="a" d="M192.87064,450H225l-16.0647,46.5Z"/><path class="a" d="M225,450h32.16083l-16.08042,46.5Z"/><path class="a" d="M257.16083,450h32.12936l-16.0647,46.5Z"/><path class="a" d="M289.29022,450h32.14511l-16.06466,46.5L289.29025,450Z"/><path class="a" d="M321.4353,450h32.14511l-16.06469,46.5Z"/><path class="a" d="M353.58041,450h32.14511l-16.06466,46.5L353.58044,450Z"/><path class="a" d="M385.72552,450h32.14512l-16.0647,46.5Z"/><path class="a" d="M417.87064,450H450l-16.0647,46.5Z"/><path class="a" d="M496.5,66.65918,450,50V83.31836Z"/><path class="a" d="M450,83.31836v33.351l46.5-16.67553Z"/><path class="a" d="M450,116.66937v33.31836l46.5-16.65918Z"/><path class="a" d="M450,149.98773v33.351l46.5-16.67548Z"/><path class="a" d="M450,183.33875V216.6571l46.5-16.65918Z"/><path class="a" d="M450,216.65717v33.351l46.5-16.67548Z"/><path class="a" d="M450,250.00818v33.31836l46.5-16.65918Z"/><path class="a" d="M450,283.32654v33.35095L496.5,300.002Z"/><path class="a" d="M450,316.67749v33.31836l46.5-16.65918Z"/><path class="a" d="M450,349.99585v33.33472l46.5-16.65906Z"/><path class="a" d="M450,383.33057v33.33471l46.5-16.659Z"/><path class="a" d="M450,416.66528V450l46.5-16.65906Z"/><path class="a" d="M496.5,33.3125,466.07813,3.5,450.00781,49.98438Z"/><path class="a" d="M466.07813,496.5,496.5,466.6875l-46.49219-16.67187Z"/><path d="M363.22548,196.58253l5.34333,182.8518h6.36782v32.159h-45.416l1.62464-32.159h3.2042A155.04848,155.04848,0,0,0,227.49836,230.4658,155.04748,155.04748,0,0,0,120.64727,379.43433h3.205l1.62464,32.159H80.06009v-32.159h6.367l5.34251-182.85181H85.42289l-3.04671-11.54637H92.65855v-43.75H84.08341V109.1288h17.67713V124.636h11.4457V109.1288h17.67713V124.636h11.4457V109.1288H160.0062V141.287h-8.57432v43.75h12.0992v-20.7133h17.67713V185.037H195.798v-69.3796h-7.79417V83.5h18.75846V99.008h11.89625V83.5h17.67713V99.008h11.89543V83.5H266.9896v32.15818h-7.79418v69.378h14.58981v-20.7133h17.67632v20.7133h12.09839v-43.75h-8.57433V109.1288h17.67631V124.636h11.44651V109.1288H341.784V124.636h11.44733V109.1288h17.67631V141.287h-8.57512v43.75h10.28235l-3.04671,11.54635-6.34263-.00079,6.34672.00082-6.34672-.00082Z"/><path class="a" d="M166.59566,185.46075h11.54716V167.81122H166.59566Zm-46.08315,0V174.87314h-3.688v-9.75551H95.72313v20.34393l24.78938-.00081Zm27.85478-23.40769V141.70913H95.72313v20.34393h21.10134V149.233H127.266v12.82009Zm0,3.06538H127.266v9.7555H123.5779v10.58762h24.78939ZM83.12466,408.9525h39.28689l-1.62464-26.029H83.12466ZM288.40024,185.46075h-11.5488V167.81122h11.5488Zm46.08316,0V174.87314h3.68886v-9.75551H359.2728v20.34393l-24.7894-.00081Zm-27.854-23.40769V141.70913h52.64417v20.34393H338.17224V149.233H327.73075v12.82009Zm0,3.06538H327.73v9.7555h3.688v10.58762H306.62942V165.11844ZM371.87124,408.9525h-39.2877l1.62464-26.029h37.66306ZM112.7013,197.0071h40.92408v17.27854H112.7013V197.0071Zm22.01381,20.34312h44.28417v20.40725H134.7151V217.35022ZM156.69,197.0071h43.0007v17.27854H156.69V197.0071ZM112.7013,240.82124h40.92408v19.99323H112.7013ZM298.30675,197.0071H255.30442v17.27854h43.00233V197.0071ZM202.756,214.28564h49.4838V197.0071H202.756v17.27854ZM94.83582,197.0071h14.8009v17.27854H94.33087l.50495-17.27854Zm-.59425,20.34312h37.409v20.40725H93.64489l.59668-20.40725Zm-.686,23.471h16.08193v19.99323H92.97191Zm-.67381,23.05862h38.76794v21.172H92.2632l.61859-21.172ZM92.1739,288.1164h17.46363v19.99646H91.58939Zm-.67381,23.06187h32.28158a165.85826,165.85826,0,0,0-7.68052,21.17442H90.88149l.6186-21.17442Zm-.7079,24.23736h18.84534V354.938H90.2215Zm-.66,22.587H110.869a166.08742,166.08742,0,0,0-1.23232,21.8547H89.4933Zm22.5691-69.88618h23.52378a166.13842,166.13842,0,0,0-11.05359,19.99646H112.7013Zm22.01381-24.23654H153.6262v1.79166a165.94441,165.94441,0,0,0-15.37078,19.38112h-3.5403ZM156.69,240.82124h25.79928A166.14648,166.14648,0,0,0,158.29,260.81447H156.69V240.82124ZM112.7013,335.41563h2.54907l-2.54907,11.04466ZM342.2946,197.0071H301.3705v17.27854h40.9241V197.0071Zm-22.013,20.34312H275.99744v20.40725H320.2816Zm22.013,23.471H301.3705v19.99323h40.9241Zm17.86549-43.81414H345.36v17.27854h15.30584l-.50577-17.27854Zm.59343,20.34312H323.34535v20.40725h38.004Zm.68679,23.471H345.3592v19.99323h16.664Zm.67379,23.05862H323.34535v21.172H362.7327l-.6186-21.172Zm.70709,24.23654h-17.462v19.99646h18.0457l-.58369-19.99646Zm.67382,23.06187h-32.28a166.22944,166.22944,0,0,1,7.68053,21.17442h25.218l-.61859-21.17442Zm.70869,24.23736H345.35918V354.938h19.416l-.57152-19.52238ZM342.2946,288.1164H318.77a166.02644,166.02644,0,0,1,11.05359,19.99646h12.47019l.00081-19.99646Zm-22.013-24.23654H301.3705v1.79166a166.03556,166.03556,0,0,1,15.3716,19.38112h3.53947V263.87986Zm-21.97485-23.05862h-25.8001a166.16021,166.16021,0,0,1,24.20083,19.99323h1.60008V240.82124Zm43.98785,94.59439h-2.54988l2.54988,11.04466Zm22.56912,22.587H344.12687a166.37222,166.37222,0,0,1,1.23315,21.8547h20.1434ZM227.49836,219.34808a166.148,166.148,0,0,1,40.32092,18.40939h5.11359V217.35022h-90.8682v20.40725h5.11277a166.01042,166.01042,0,0,1,40.32092-18.40939Zm0,8.32022A158.1135,158.1135,0,0,0,117.5827,379.8597h-4.87978A162.98934,162.98934,0,0,1,227.49836,222.5531a162.99257,162.99257,0,0,1,114.79627,157.305H337.414A158.11155,158.11155,0,0,0,227.49836,227.6683ZM367.84792,112.61715h-11.548v15.508h-17.574v-15.508h-11.548v15.508H309.60226v-15.508H298.05509v26.029h69.79363l-.0008-26.029Zm-.63,81.30589,1.419-5.37823H86.35891l1.41985,5.37823ZM207.4897,161.31349h40.01649V138.69812H232.71828v12.77462H222.2768V138.69812H207.4897Zm43.08107-22.61617h5.56332v22.61537h-5.56332Zm-17.85249-3.06377h23.41581V116.082H229.03024v9.75063h3.688Zm-3.688,49.8272h27.10385v-21.0843H229.03024v21.0843Zm4.24088-98.4716H221.724v15.508H203.69774v-15.508H191.06843v26.029h72.85821v-26.029H251.29733v15.508H233.26949v-15.508Zm-28.846,51.70817h-5.56252v22.61537h5.56252Zm17.85167-3.06377H198.86261V116.082h27.10305v9.75063H222.2768Zm3.68886,49.8272H198.86261v-21.0843h27.10305ZM87.1488,112.61715H98.696v15.508h17.57566v-15.508h11.54716v15.508h17.57566v-15.508h11.54717v26.029H87.1488v-26.029Z"/><path d="M331.26376,385.84273c-1.104-.211-2.21622-.43023-3.32845-.64131a8.53232,8.53232,0,0,0,1.03914-1.36383,8.78884,8.78884,0,0,0,1.24209-4.34316,5.18294,5.18294,0,0,1-3.48269.81181,4.83174,4.83174,0,0,1-1.73728-.60078c-.04871-.12987-.11361-.36528-.16232-.552a6.08322,6.08322,0,0,0-1.91591-3.33652,5.64033,5.64033,0,0,0-4.01841-1.20958,9.60483,9.60483,0,0,1-2.36239-.22734,8.51118,8.51118,0,0,1-1.09592-.3734,14.6592,14.6592,0,0,1-2.72772-1.46129c-.5926-.49519-2.45975-3.80734-3.13357-9.628.45461.12179.90922.22733,1.372.30849l9.25464,1.61549-7.29815-5.90994a16.33542,16.33542,0,0,1-2.50852-2.51664l5.93433.09742-5.04943-5.155c-.29229-.30036-.58453-.60073-.8849-.9011l3.46644.755-1.70482-4.25387a21.63689,21.63689,0,0,0-2.411-4.44062c-.14612-.21108-.30037-.414-.45461-.617.95793-.06491,1.90773-.16232,2.84945-.30844,4.01034-.60078,7.8096-1.169,10.78892-4.34321a13.08274,13.08274,0,0,0,3.51515-9.02731c-.2192-6.72175-6.09669-10.797-9.60371-13.2406a71.249,71.249,0,0,0-8.08563-4.262c-2.68709-1.32326-5.3985-2.60593-8.05313-3.80739l-2.42079-1.0951a6.3228,6.3228,0,0,0-2.718-2.74474l-.32469-.2192c-2.4273-1.61549-3.5314-2.37047-4.14833-3.26349a4.46794,4.46794,0,0,1-.69819-1.648,6.2714,6.2714,0,0,1,.755-4.01846,10.749,10.749,0,0,1,2.00519-2.93874c-.86051.37345-1.72915.73872-2.58967,1.11217l-3.3609-4.23762c-1.03909-1.31512-2.14318-2.5978-3.30407-3.82363a15.43431,15.43431,0,0,0,5.86942-1.851l6.89224-3.81546-7.8421-.73878a13.60538,13.60538,0,0,1-6.20218-2.00514,18.37314,18.37314,0,0,1-1.61554-1.22584,23.33485,23.33485,0,0,0-4.00221-2.74392l-.29224-.16237a12.62641,12.62641,0,0,0-3.68559-1.5262c-1.18526.01625-2.36239.04058-3.5476.05683a8.98155,8.98155,0,0,0-1.43692.44648c-.138.065-.28411.12179-.42216.18675-.17044.08116-.414.211-.67376.3572l-1.34763-.72252a13.19542,13.19542,0,0,0-3.9048-1.36383,12.26218,12.26218,0,0,0-5.14684.138,12.05311,12.05311,0,0,0-6.24281,3.94538,12.468,12.468,0,0,0-2.84133,7.04649,13.78522,13.78522,0,0,0,.33282,4.59487,13.475,13.475,0,0,0,1.19333,3.13357l-3.89667-2.27306a11.01755,11.01755,0,0,1-4.3107-4.17271,12.81932,12.81932,0,0,1-.57636-1.26642A17.16283,17.16283,0,0,0,238.75,277.239a17.77024,17.77024,0,0,0-3.94538-4.327l-1.39629-1.09593a22.54406,22.54406,0,0,0-1.03914-6.91662l-.5926-1.89961-1.989.211a18.18128,18.18128,0,0,0-7.77714,2.69521c-.00812.00813-.01625.01625-.02433.01625l-1.55058-.552a21.36639,21.36639,0,0,0-8.55644-1.20151,18.76254,18.76254,0,0,0-7.93952,2.0539,16.38619,16.38619,0,0,0-1.94163,1.21771c-.76086.01891-1.84954.07192-3.14838.22733a23.38344,23.38344,0,0,0-8.15871,2.11881,17.54617,17.54617,0,0,0-5.27676,4.11588l-.29224.33282-.16237.414a3.364,3.364,0,0,0,1.49375,4.13208l.276.17049a7.4769,7.4769,0,0,0,.12986,3.14983,7.74486,7.74486,0,0,0,2.79453,4.12972l1.12818.45365a3.07581,3.07581,0,0,0-.17908,1.28936,3.16261,3.16261,0,0,0,.77,1.80866l-2.37047-.66735-.617,2.01327a9.32354,9.32354,0,0,0-.341,3.75055,6.08215,6.08215,0,0,0,.9498,2.89,6.22911,6.22911,0,0,0,4.25387,2.41109,15.93421,15.93421,0,0,0,3.6694.16238,16.94,16.94,0,0,1-2.38672,2.24867,17.13149,17.13149,0,0,1-6.47015,3.10112l-6.28339,1.5262,5.73137,3.0037c.138.073.276.138.414.21108a20.8233,20.8233,0,0,0-5.13876,2.28931,18.68289,18.68289,0,0,0-2.63026,1.98889,17.29379,17.29379,0,0,1-2.71141,2.01332,25.44,25.44,0,0,1-3.60443,1.83465l-6.69742,2.76017,6.99778,1.84282a14.63448,14.63448,0,0,0,2.37047.414,18.22389,18.22389,0,0,0-3.70184,4.15646,17.63781,17.63781,0,0,0-2.45168,5.21992,22.63418,22.63418,0,0,1-.91735,2.52471,20.208,20.208,0,0,1-5.34167,6.98154l-3.4096,2.97125,4.35128,1.21771a18.95337,18.95337,0,0,0,2.70334.53577l-.77936.341a92.35858,92.35858,0,0,1-10.43172,3.848,34.336,34.336,0,0,1-7.85023,1.57491c-2.35421.1867-4.58669.3572-5.08188-.16237-.81181-.86864-1.36388-3.81551-1.59929-5.0738a7.95663,7.95663,0,0,0-1.56678-3.507,5.22444,5.22444,0,0,0-1.98894-1.42067.82914.82914,0,0,0-.11367-.03245l-.86859-1.33951a6.49592,6.49592,0,0,0-2.35427-2.2,6.57878,6.57878,0,0,0-4.1727-.69814l-3.17415.49519,1.33137,2.92254c.47894,1.05534.95793,2.11069,1.43687,3.15795l.3572.77118.5926,1.29892.02438.04871c-.07308.00813-.15424.02433-.22733.03245l-3.5638-.12174a7.411,7.411,0,0,0-6.09669,2.85754l-1.648,2.14318,7.079,4.34316a8.003,8.003,0,0,0,.47894.90115l.966,1.5262.08934-.02438a.008.008,0,0,1-.00813.00813l-2.01332,1.42879a6.87286,6.87286,0,0,0-2.338,2.93874,6.71547,6.71547,0,0,0-.50337,3.30407l.31662,3.20665,3.0037-1.18525c.38966-.1218.77936-.23541,1.17714-.34908,1.859-.53582,3.67746-.966,5.42287-1.307a9.25315,9.25315,0,0,0,1.6642-.24358,6.96782,6.96782,0,0,0,1.50188-.57635l-.86057,3.26344a7.92089,7.92089,0,0,0,.53582,5.71516l1.40442,2.87379L140.513,375.614c.77935-.69,1.55871-1.38821,2.34614-2.07823l3.10016-2.75681q.198.32224.42816.65827.11922.17334.23848.33693h.00813a19.181,19.181,0,0,0,3.33652,3.49889l4.86273,3.96164-.98226-6.665a13.80587,13.80587,0,0,0,3.645,2.14318l4.30258,1.68853-1.03914-4.4974c-.1867-.83614-.3572-1.63175-.51952-2.41918.1867.08929.3734.17045.56015.25166a29.91583,29.91583,0,0,0,11.31662,2.43543q-.04877.77935-.12179,1.583a52.01091,52.01091,0,0,1-1.05534,6.673,32.07534,32.07534,0,0,0,5.82065-6.62434c.09741-.14612.19483-.30036.29224-.44653-.073.64136-.15425,1.33138-.24353,2.0539l-.29224,2.2406h-.00813l-.21108.2354c-.60073.66569-1.5262,1.71291-2.58967,3.03616-1.35571,1.68045-2.08635,2.73579-2.79262,3.75868-.51957.755-1.01476,1.46937-1.76161,2.45168-2.62213,3.43393-3.61256,4.65165-5.10626,5.431a12.70919,12.70919,0,0,1-4.72474,1.25829,28.39185,28.39185,0,0,1-3.19852-.08928c-.58453-.04058-1.08785-.08929-1.54246-.12992a8.09692,8.09692,0,0,0-4.35941.3572l.01625-.5439-3.48269,1.4775a8.16047,8.16047,0,0,0-4.83835,5.69891l-.64136,2.84133,7.66348.34095.30036.479a5.63328,5.63328,0,0,0-.073,1.17708,6.19692,6.19692,0,0,0,.138.99043l-.93355,1.6642a6.355,6.355,0,0,0-.81993,3.31219A6.49556,6.49556,0,0,0,148.64737,414.8l1.61549,2.38671,2.08635-1.98894c.82807-.78748,1.65608-1.57491,2.476-2.37046l1.43692-1.38009a6.92254,6.92254,0,0,0,4.16458-1.27454l.82806,2.4273a8.71719,8.71719,0,0,0,1.15276,2.25685,8.33852,8.33852,0,0,0,2.43542,2.26493l2.11881,1.29074,1.25017-2.14313a14.73053,14.73053,0,0,0,1.713-4.54616L170.485,408.89c.10554-.16237.203-.32469.29224-.47894l1.71291,2.5653c.46274.69.92547,1.38008,1.38821,2.07823l1.75348,2.6465,2.10261-2.38672a7.77251,7.77251,0,0,0,1.583-2.752,7.541,7.541,0,0,0,.3572-2.90629l-.26792-3.66934a7.41872,7.41872,0,0,0,.03246-2.83321,47.21491,47.21491,0,0,0,5.30113-2.82513,49.279,49.279,0,0,0,4.9764-3.52322c.58447.10554,1.16088.1867,1.74536.24353a26.53446,26.53446,0,0,0,4.01033.10554l5.845-.31661-4.34316-3.92913c-.73878-.66569-1.42067-1.372-2.07015-2.08636a31.92682,31.92682,0,0,0,3.71809.15425,33.55611,33.55611,0,0,0,11.68194-2.32181c-1.41254-.85239-2.82507-1.71291-4.23766-2.56529.56015-.00813,1.1203-.00813,1.6967-.00813h3.3771l-1.06347-3.20665a22.96018,22.96018,0,0,0-1.21771-2.89c.94985.12992,1.89966.24353,2.84133.30849a44.32572,44.32572,0,0,0,11.56828-.69814l3.01995-.59261-1.25829-2.80075a8.36162,8.36162,0,0,1-.47087-1.25022c.30037.02438.60073.04063.90923.04876a16.752,16.752,0,0,0,4.01846-.3897l6.36455-1.38816-5.71511-3.1255-.00813-.00812c1.29892-.67377,2.77637-1.445,4.4-2.28931,10.42365-5.41475,12.6805-6.47009,13.752-6.97341,6.57568-3.05241,10.26128-4.70035,12.89153-4.89523-.14612.30849-.3572.72252-.64944,1.24209a20.391,20.391,0,0,1-4.4974,5.34979,16.84906,16.84906,0,0,0-4.44875,5.54467,13.183,13.183,0,0,0-1.26642,8.17492c.85244,4.25387,3.94543,6.82729,5.79633,8.36162a30.25161,30.25161,0,0,0,5.017,3.29594c1.59929.893,2.58155,1.46938,2.70334,2.02953a6.8647,6.8647,0,0,1,.10554,1.65612,10.04419,10.04419,0,0,1-.70627,2.679,13.5409,13.5409,0,0,1-3.31219,5.14684,4.69736,4.69736,0,0,1-1.22584.87676,3.94452,3.94452,0,0,1-2.28931-.05683,5.77813,5.77813,0,0,1-1.8509-.755,10.01882,10.01882,0,0,0-1.519-.74581,8.30755,8.30755,0,0,0-1.85-.46377,10.28029,10.28029,0,0,0-4.28633.4059l-3.5801.98231a7.19567,7.19567,0,0,0-5.26051,5.65016l-.37345,1.99706,1.89966.72252c1.28267.4952,2.57342.99039,3.85609,1.48558l2.21622.85244-1.02289,3.13357a9.57636,9.57636,0,0,0,.15425,6.29152l1.43692,3.848,2.68708-3.10924a10.348,10.348,0,0,1,1.08785-1.06347,9.80316,9.80316,0,0,1,1.583-1.02288l3.78306-1.97269.138,1.57491a8.03957,8.03957,0,0,0,.60886,2.46793,8.41159,8.41159,0,0,0,2.84946,3.57193l1.87527,1.36383,1.45312-1.81032c.39783-.479.79561-1.00663,1.18526-1.583a20.7971,20.7971,0,0,0,3.02-7.11145,11.17227,11.17227,0,0,0,.73059-1.19333l.08122.15424c.5601,1.06347,1.12837,2.11881,1.69665,3.17415l2.09448,3.91293,2.32176-2.476a9.18714,9.18714,0,0,0,2.50038-5.99928l.09742-3.40961h-.00813a4.09656,4.09656,0,0,0,.04871-.69814c0-.08929-.00813-.1867-.00813-.276a7.26689,7.26689,0,0,0-.79555-2.58967,10.17414,10.17414,0,0,0-.65757-1.20151,8.27569,8.27569,0,0,1,2.28931-.47894,8.58431,8.58431,0,0,1,2.89816.3572l4.335,1.35571-1.27454-4.35941a11.79921,11.79921,0,0,0-.66569-1.73729c.42215.14612.84431.29224,1.25834.46274l3.94538,1.61549-.60886-4.22141a10.22,10.22,0,0,0-.6251-2.34609l-.00813-.00813a10.25207,10.25207,0,0,0-1.59111-2.67088,3.66224,3.66224,0,0,0,1.33132-1.42067l.065-.14612c.85239-2.01327-.33282-4.40811-2.77637-5.67453-2.11073-1.16088-3.40148-3.18228-3.20665-5.04943a4.14714,4.14714,0,0,1,1.031-2.28118,26.75143,26.75143,0,0,0,8.28046,8.78373,26.28,26.28,0,0,0,8.41033,3.25536,19.22985,19.22985,0,0,1,8.56457,3.81551,9.86374,9.86374,0,0,1,3.23911,4.36754c.80368,2.273.5764,3.30406.26791,3.7343a2.00006,2.00006,0,0,1-.38158.37345c-1.02284.74685-2.76824.479-4.61919.203-1.89148-.28411-4.15646-.62511-6.1129.276v-.02438l-.0487.0487a5.38712,5.38712,0,0,0-1.31513.87677,6.30034,6.30034,0,0,0-1.17713,1.45312l-1.55866,1.46125a8.76257,8.76257,0,0,0-2.72772,5.58524l-.25973,2.84134,2.84133-.1867c1.05534-.065,2.10256-.138,3.14982-.21108l3.79113-.26791-.56827,1.40446a6.39735,6.39735,0,0,0,1.39629,6.78671l1.53433,1.53433,1.70482-1.33951c.83614-.66568,1.68045-1.32325,2.52472-1.97268,1.169-1.20147,2.338-2.411,3.507-3.61256a6.17,6.17,0,0,0,.81993-1.0716l.51145,1.713a6.95089,6.95089,0,0,0,3.9697,4.44869l2.11074.893,1.01476-2.062a14.20748,14.20748,0,0,0,.828-2.07823,14.00043,14.00043,0,0,0,.51957-2.55722l.38157-3.44206c.57636.53582,1.15276,1.07159,1.72916,1.61549l2.45975,2.30556,1.41254-3.06053a8.9316,8.9316,0,0,0,.73065-2.42731,9.32125,9.32125,0,0,0,0-3.0037l-.479-2.90624c.72252-2.74391.37345-6.57568-1.01476-10.82142a5.094,5.094,0,0,0,.51957-.24353C329.65639,390.80292,330.78477,387.77484,331.26376,385.84273ZM201.691,288.856a1.79991,1.79991,0,0,1-.91068.71821c-1.60875.67156-5.89816.5931-6.27361.585l1.54005-3.79639a7.51649,7.51649,0,0,1,2.27521-.5795,3.60245,3.60245,0,0,1,2.46788.32878,2.3367,2.3367,0,0,1,1.031,1.32326A1.89579,1.89579,0,0,1,201.691,288.856ZM257.0888,277.174a4.90885,4.90885,0,0,1,2.88191-1.242,4.84064,4.84064,0,0,1,2.338.45461l.43836.20295a19.78073,19.78073,0,0,0-.03245,2.03765c.00812.64944.01625,1.54241.01625,2.8007v.02438c.00807.5926.00807,1.0878,0,1.41254l-.09741,4.22954,3.70992-2.03765a12.94345,12.94345,0,0,0,2.16756-1.51c.073.22728.14612.46269.22728.69814a20.11874,20.11874,0,0,0,3.66939,6.5188l5.00885,5.91812-.72252-7.72031c-.04871-.44648-.08929-.893-.14612-1.34763.3897.28416.77935.56015,1.18526.81994a28.06126,28.06126,0,0,0,6.82729,3.25536l4.23767,1.34763-1.85908.99038c-.38965.2192-3.85609,2.17564-4.00221,5.983v.01625l-.74685-.25979a120.80869,120.80869,0,0,1-13.15131-5.46345c-6.95721-3.37716-9.45754-5.45538-11.43023-7.89894-1.63987-2.02952-2.44356-3.7668-2.39485-5.17934A5.85832,5.85832,0,0,1,257.0888,277.174Zm45.76978,53.99341c-3.76681-1.36383-5.55279-2.12693-6.98971-2.74392-1.22579-.52769-2.27306-.9823-4.01842-1.56678a66.39431,66.39431,0,0,0-14.3934-2.97933,95.58662,95.58662,0,0,0-11.43836-.59265A130.02462,130.02462,0,0,0,245.97513,324.47c-2.34614.33282-4.28637.68194-5.63395.94167a6.93823,6.93823,0,0,1-1.61549-4.13207,7.47557,7.47557,0,0,0,2.17564,1.21771,7.85038,7.85038,0,0,0,4.31883.25166,27.297,27.297,0,0,1-3.01183-8.47529,26.9331,26.9331,0,0,1-.40591-5.32546A18.06557,18.06557,0,0,0,246.17,310.4176l6.15352,1.25017-3.70184-5.07381a34.48122,34.48122,0,0,1-4.57049-8.58082,35.1374,35.1374,0,0,1-1.73728-7.05462l-.07309-.5439q.58851-.0647,1.20558-.16844a21.27674,21.27674,0,0,0,5.85717-1.90979,21.19634,21.19634,0,0,0,3.60443,4.41624,43.3136,43.3136,0,0,0,10.50481,7.33874,93.94559,93.94559,0,0,0,12.42066,5.37422q-.414.38959-.828.828a20.87508,20.87508,0,0,0-3.69377,5.53654c1.62362-.24353,3.24724-.47894,4.87086-.72252,1.20963.00812,2.47605.065,3.74247.1705.70627.065,1.38009.138,2.02952.22733a.34805.34805,0,0,0-.00812.04058,8.36989,8.36989,0,0,0,.56827,3.33652c1.51,3.848,5.44721,5.17934,6.12915,5.39855a7.1391,7.1391,0,0,1-.69814-5.47164c.03245-.10554.073-.20295.11361-.30036a3.4225,3.4225,0,0,1,1.24209-.45461,6.07432,6.07432,0,0,1,1.75349-.1867,9.32275,9.32275,0,0,0,2.6465-.28412,13.02288,13.02288,0,0,0,1.76974-.55207l1.61549.73065c1.00669.44648,2.49226,1.12842,4.27012,1.97269,15.13213,7.27382,16.75575,10.71588,16.88567,11.58452a5.42221,5.42221,0,0,1-.17863,2.1919,5.20184,5.20184,0,0,1-2.541,2.752,9.2458,9.2458,0,0,1-4.72474.6982A25.12344,25.12344,0,0,1,302.85858,331.16743Z"/><path class="a" d="M238.48778,307.45785a10.88193,10.88193,0,0,1-1.32514-1.5759,21.58078,21.58078,0,0,0-.42978,7.52117,9.7793,9.7793,0,0,0,.78792,3.11593,9.02988,9.02988,0,0,0,4.08293,4.0471,27.28919,27.28919,0,0,1-2.22053-12.32038A10.85024,10.85024,0,0,1,238.48778,307.45785Z"/><path class="a" d="M324.94786,386.37043a5.52038,5.52038,0,0,1-1.42874-1.95644,8.48606,8.48606,0,0,0,4.01029-1.95649,8.913,8.913,0,0,1-.97413.01625,7.00766,7.00766,0,0,1-2.752-.64136c-1.71291-.90922-.90923-2.8494-2.45981-4.15645-1.307-1.10405-2.541-.26786-5.37417-.92543a10.54477,10.54477,0,0,1-1.42066-.479,17.238,17.238,0,0,1-3.27157-1.76161c-1.648-1.18526-4.24579-7.03029-4.37566-15.3107a13.50928,13.50928,0,0,0,1.53433.76305,13.82345,13.82345,0,0,0,2.93875.86057,18.36758,18.36758,0,0,1-3.86422-4.262,17.39927,17.39927,0,0,1-1.43692-2.65463c1.4613.02433,2.91442.04871,4.36754.073-1.15276-1.17709-2.30551-2.36234-3.47452-3.53948-.69814-.72252-1.40446-1.43691-2.11073-2.15126-.00808,3.33652.02438,9.75791.43028,16.90181a14.92948,14.92948,0,0,0,1.70478,6.71368,11.05649,11.05649,0,0,0,3.52327,4.10775,23.45962,23.45962,0,0,0,6.55943,2.71959,4.93275,4.93275,0,0,1,1.90773.81181,5.53978,5.53978,0,0,1,.99038.95792c1.372,1.76974,1.01476,7.92327.96606,8.97048a22.806,22.806,0,0,0,1.43691,8.84869,10.6204,10.6204,0,0,1-3.47451-5.47971,16.04478,16.04478,0,0,1-.25166-5.73137c.22728-1.372.63318-2.40292.10549-3.58a4.18966,4.18966,0,0,0-1.721-1.75349c-2.2-1.46937-3.76676-1.43692-5.76382-2.2244a16.98148,16.98148,0,0,1-4.36754-2.93061c-4.05092-3.51515-3.83984-10.2369-4.78156-21.48043-.26787-3.22291-.72248-7.92326-1.52621-13.65463q1.31516,1.86306,2.83326,3.79113c.43835.56828.88484,1.11217,1.3232,1.64795.85244.12991,1.72108.26791,2.614.43028.87677.16237,1.721.32474,2.541.50332a19.21467,19.21467,0,0,0-6.876-8.62953,30.60635,30.60635,0,0,0,8.74319-.04059c3.88855-.58452,6.98154-1.04721,9.40076-3.62881a10.63682,10.63682,0,0,0,2.84133-7.25757c-.17862-5.504-5.37417-9.10847-8.55649-11.31656a72.82881,72.82881,0,0,0-7.769-4.08343c-3.30407-1.62361-6.07236-2.90629-7.98822-3.77493a13.18289,13.18289,0,0,1-1.61549,2.4111c1.01476.45461,2.51659,1.14463,4.32695,2.00514,16.707,8.0288,17.98966,11.79561,18.24132,13.4111a7.0206,7.0206,0,0,1-3.94538,7.43615c-.73064.4059-2.35426,1.169-6.01553,1.00668a27.50846,27.50846,0,0,1-8.662-1.94023c-7.03024-2.541-7.33061-3.06866-10.95942-4.29445a64.51667,64.51667,0,0,0-13.89816-2.86571,92.787,92.787,0,0,0-11.15425-.5764,176.58414,176.58414,0,0,0-24.541,1.76973,9.80864,9.80864,0,0,0,1.19339,2.71959,10.08544,10.08544,0,0,0,1.14462,1.48563,16.63714,16.63714,0,0,1-5.82878-.86052,16.08413,16.08413,0,0,1-3.0037-1.38821,7.35387,7.35387,0,0,0-.24353,1.721,7.71949,7.71949,0,0,0,.24353,2.0539,10.68738,10.68738,0,0,1-4.77339-1.5262,10.40331,10.40331,0,0,1-2.679-2.34614,33.51662,33.51662,0,0,1-14.27969,16.4797q-.48379-1.11384-.9498-2.338c-.447-1.1805-.82982-2.3192-1.15853-3.40529a14.12915,14.12915,0,0,1-2.04546,4.05506c-1.34223,1.836-1.92506,1.6638-3.89983,3.93171a15.59646,15.59646,0,0,0-3.401,5.6798,12.73172,12.73172,0,0,0-.43028,1.96456,6.07818,6.07818,0,0,1-3.34465-.90922,6.17365,6.17365,0,0,1-2.63025-3.82364,14.76808,14.76808,0,0,0,1.33946,11.341,10.00735,10.00735,0,0,1-3.72618.78744,10.17629,10.17629,0,0,1-5.00884-1.21772,21.90809,21.90809,0,0,1-9.88788,17.62439c-.60886.67381-1.4937,1.67232-2.50846,2.93874-2.26493,2.80075-2.67083,3.75055-4.51366,6.15353-2.58154,3.3771-3.87234,5.05755-5.91811,6.11289a15.19575,15.19575,0,0,1-5.73137,1.53433,31.35358,31.35358,0,0,1-3.48264-.09741c-2.79263-.19483-3.99409-.552-5.11439.2354a3.16916,3.16916,0,0,0-1.096,1.43692,3.81632,3.81632,0,0,0,.38158,3.19853,8.91724,8.91724,0,0,1,3.10111-1.38821,9.12992,9.12992,0,0,1,5.06568.29229c-.43028.1867-1.07159.46274-1.86715.7631a18.54125,18.54125,0,0,0-2.86571,1.04722,4.26324,4.26324,0,0,0-1.95644,3.58005,3.86594,3.86594,0,0,0,1.10405,2.48413,4.42163,4.42163,0,0,0,3.24724,1.19339,4.70823,4.70823,0,0,0,3.10111-.83619c1.6642-1.31512.85239-3.26344,2.28931-5.13059a6.20645,6.20645,0,0,1,4.01034-2.15131,11.6275,11.6275,0,0,0-1.71291,2.53284,6.77438,6.77438,0,0,0-.958,3.19853,3.17474,3.17474,0,0,0,.76311,2.53284,3.121,3.121,0,0,0,2.86571.28411,5.39481,5.39481,0,0,0,2.76824-3.00365,9.572,9.572,0,0,0,.95793-2.91442c1.77786,2.30556,4.124,3.19853,5.48784,2.476a3.40634,3.40634,0,0,0,1.38821-2.04572,5.43172,5.43172,0,0,0-.50332-4.14026,45.69826,45.69826,0,0,0,12.63174-7.60664,26.70247,26.70247,0,0,0,2.67083.43028,23.36279,23.36279,0,0,0,3.62881.08929,30.51212,30.51212,0,0,1-2.90628-3.00371c-.56828-.67381-1.07972-1.32325-1.53434-1.95643a35.11035,35.11035,0,0,1-12.12842,6.9247c3.5314-3.27969,6.527-5.86936,8.64578-7.64722,6.08044-5.10626,8.27234-6.38894,11.84427-10.4074a28.40142,28.40142,0,0,0,5.88561-9.10847,25.5544,25.5544,0,0,0,1.46942-6.16978,11.24247,11.24247,0,0,1,.92542,6.63247,62.58707,62.58707,0,0,0,28.91663-10.60222,40.71669,40.71669,0,0,1-16.85311,11.0325,40.17877,40.17877,0,0,1-12.95649,2.10256q-.42624,1.12035-.9985,2.338c-.31662.65756-.63324,1.28267-.94986,1.8672a41.65156,41.65156,0,0,0,18.10333.47894,12.4,12.4,0,0,1-.95793-3.20665,11.82761,11.82761,0,0,1-.138-2.05386,14.09469,14.09469,0,0,0,3.81551.62511,14.5,14.5,0,0,0,3.44206-.33287,9.53976,9.53976,0,0,1-1.86715-1.3395,9.40037,9.40037,0,0,1-1.19339-1.33945c1.80225-.94173,4.38379-2.29744,7.50116-3.91293,10.30181-5.35792,12.63174-6.45389,13.84946-7.02216,7.81767-3.62877,11.80368-5.43908,15.22949-5.10626a18.56192,18.56192,0,0,1,10.6753,5.228c3.80739,3.65314,3.3284,6.24281,7.03024,12.81844,3.00371,5.34984,5.53654,9.83912,10.37494,12.89965,6.16973,3.88855,10.797,2.11073,17.19411,7.23325a12.40717,12.40717,0,0,1,4.01033,5.43908c.33282.94172,1.41254,3.96163-.07308,6.02365a4.08454,4.08454,0,0,1-.88484.86864c-3.58011,2.63838-9.17343-1.24209-11.90923,1.23392a4.09293,4.09293,0,0,0-1.25021,2.338,3.21339,3.21339,0,0,0,.47086,2.07823,3.48739,3.48739,0,0,0,2.752,1.42879,4.57565,4.57565,0,0,1,7.06275-2.9712,5.0102,5.0102,0,0,0-2.83325,1.648,4.82218,4.82218,0,0,0-1.03909,4.01034,3.46567,3.46567,0,0,0,1.61549,2.36234,3.6297,3.6297,0,0,0,3.61256-.57635c2.10255-1.6155,1.07972-4.46495,3.47451-6.37273a4.88258,4.88258,0,0,1,1.2908-.74685,6.56546,6.56546,0,0,0-.46274,2.57342,3.77556,3.77556,0,0,0,.74685,2.68708,2.61375,2.61375,0,0,0,1.8672.86057,2.58137,2.58137,0,0,0,1.78594-.78748,3.686,3.686,0,0,0,.82806-2.28931,10.599,10.599,0,0,0-.04058-3.11732,5.84994,5.84994,0,0,0,2.68709-.14617,6.87709,6.87709,0,0,0,2.76012-1.82657c1.72916-1.89148,1.57491-7.37931-1.07155-13.71954a6.13077,6.13077,0,0,0,2.69517-.64131,6.26016,6.26016,0,0,0,2.53288-2.338A5.7115,5.7115,0,0,1,324.94786,386.37043ZM215.87325,363.307a17.03647,17.03647,0,0,0,4.50553-11.64948,6.61652,6.61652,0,0,1,2.17564,4.40811C222.66809,359.183,219.981,362.35711,215.87325,363.307Zm5.65833-.94172a17.89915,17.89915,0,0,0,5.017-13.338A6.52019,6.52019,0,0,1,229.3168,353.07C229.90133,356.49587,226.87325,360.67666,221.53158,362.36524Zm7.41182-2.65464a15.251,15.251,0,0,0,1.71291-2.50033,16.86256,16.86256,0,0,0,1.997-8.99486c.30037.21108,2.91442,2.09448,2.93875,5.04135C235.60832,356.301,232.85628,359.28037,228.9434,359.7106Zm54.69963,2.78455a19.127,19.127,0,0,1-4.69223-5.0576,19.86554,19.86554,0,0,1-1.98081-4.22949l-.12987-.37345c-1.234-3.48264-3.99414-6.8598-8.1993-10.034l-1.03909-.78748,1.2745.24354a14.122,14.122,0,0,1,5.8207,2.4598c3.42581,2.49226,4.9926,6.121,6.259,9.03544.42215.97418.90114,2.2406,1.372,3.45831.62511,1.63982,1.20964,3.25536,1.786,4.94389l.32475.94172Z"/><path class="a" d="M173.2819,344.58665a14.21034,14.21034,0,0,0-1.62361,3.19848,15.95344,15.95344,0,0,0-.86052,4.68415,54.46232,54.46232,0,0,0,.14612,8.58895,10.308,10.308,0,0,1,2.67083-2.43542,36.03824,36.03824,0,0,1,1.19334,8.00442,35.23111,35.23111,0,0,1-.32469,6.19411,13.86054,13.86054,0,0,0,2.50846-7.16016,13.71564,13.71564,0,0,0-.86052-5.59338,8.93487,8.93487,0,0,1,1.94024,1.721,7.99936,7.99936,0,0,1,1.14467,1.79412,8.591,8.591,0,0,1,.52765,1.82657,46.74314,46.74314,0,0,1-.52765,10.31,29.22114,29.22114,0,0,0,3.61251-5.43913,29.907,29.907,0,0,0,3.22291-13.21622,13.33632,13.33632,0,0,0,6.5188,3.07674,21.15208,21.15208,0,0,1,2.10261-14.8886,34.109,34.109,0,0,0,5.00892,6.97442,20.93382,20.93382,0,0,1,2.3638-4.62015c1.82562-2.67912,3.28967-3.459,4.65829-5.26863,1.18614-1.56832,2.49543-4.1677,2.58154-8.54025a32.94151,32.94151,0,0,1-2.43542,3.5314,34.79774,34.79774,0,0,0-2.91442,3.70185,13.92527,13.92527,0,0,0-1.38,3.12544c-.13805-.2192-3.21478-5.55279-.479-10.172a8.87106,8.87106,0,0,1,3.67752-3.34465,18.42,18.42,0,0,0-1.2421,2.96313,17.55293,17.55293,0,0,0-.66568,2.96312,29.66784,29.66784,0,0,0,4.39191-3.49082c.77118-.74685,1.45312-1.48557,2.05385-2.19184q1.24209,2.99551,2.48413,6.06418c.64136,1.59929,1.28267,3.19041,1.90778,4.77344a31.29827,31.29827,0,0,0,12.12843-19.4347,19.83412,19.83412,0,0,0,5.48778,7.30628,17.17113,17.17113,0,0,1,.77123-4.059,17.63532,17.63532,0,0,1,.66569-1.76974,9.15723,9.15723,0,0,0,2.15131,2.679,9.42055,9.42055,0,0,0,2.52472,1.5262,17.803,17.803,0,0,1-1.62362-5.11438,17.46818,17.46818,0,0,1-.1867-3.66939q-.60887-1.14467-1.19339-2.48414c-.38965-.90109-.72252-1.76973-1.00663-2.58154a20.329,20.329,0,0,1-3.14982,4.15645,20.06366,20.06366,0,0,1-3.39336,2.7683,11.211,11.211,0,0,1,.24353-11.5602c.00813.90922.04871,1.8834.138,2.91442a35.38269,35.38269,0,0,0,.5764,3.92105,23.10388,23.10388,0,0,0,2.43543-2.882,24.03442,24.03442,0,0,0,4.10775-10.0664c-.44649-.95793-.8849-1.91586-1.33138-2.88191a13.54093,13.54093,0,0,1-2.062,3.24723,13.78327,13.78327,0,0,1-3.83176,3.10919,45.43776,45.43776,0,0,0,4.01034-13.28118c.62511.94173,1.6967,2.541,3.01183,4.54616,3.14982,4.78964,3.74242,5.78815,5.04947,6.90845a13.74886,13.74886,0,0,0,6.44572,3.01183,36.76548,36.76548,0,0,1-6.75421-16.73949,9.09619,9.09619,0,0,1-5.017-2.955,9.36807,9.36807,0,0,1-1.95644-7.355,19.71192,19.71192,0,0,0,3.77493,4.72473,8.03622,8.03622,0,0,0,3.14982,2.0539,6.68665,6.68665,0,0,0,4.01034-.14617,13.11657,13.11657,0,0,1-5.228-5.12251,39.19818,39.19818,0,0,0-1.93211-3.93725,15.26226,15.26226,0,0,0-3.40961-3.72623,8.5718,8.5718,0,0,1-1.46124,2.07823,8.43043,8.43043,0,0,1-2.04577,1.57491,20.03432,20.03432,0,0,0,1.18525-6.50254,20.25607,20.25607,0,0,0-.92547-6.34836,15.63642,15.63642,0,0,0-10.73214,5.96678,10.867,10.867,0,0,1-.02433-2.2081,11.25709,11.25709,0,0,1,.3247-1.721,19.0923,19.0923,0,0,0-15.86273,1.39629,21.207,21.207,0,0,0,9.36018,3.12544,5.84088,5.84088,0,0,1,.7144,3.19853,4.776,4.776,0,0,1-1.90778,3.72623,4.55817,4.55817,0,0,1-4.91956-.21108c.2192-.02433,3.65314-.3572,4.97639-3.12545a5.23625,5.23625,0,0,0,.44648-2.71146,22.55586,22.55586,0,0,0-3.34464,2.23248,23.164,23.164,0,0,0-4.58669,4.91955,6.40559,6.40559,0,0,1,.43023-3.13357,6.77884,6.77884,0,0,1,3.40961-3.47456,8.57111,8.57111,0,0,1-5.47971-4.335c-.3085.17045-.617.34094-.92548.50332-.64943.0487-1.57491.12986-2.68708.29223a22.99534,22.99534,0,0,0-7.4524,1.89153,15.02739,15.02739,0,0,0-4.54611,3.5476.9426.9426,0,0,0,.46269,1.18526,8.8108,8.8108,0,0,1,2.15131-1.21771,9.4891,9.4891,0,0,1,4.18891-.64949,21.66755,21.66755,0,0,0-3.25531,2.32989,4.616,4.616,0,0,0-1.54246,1.85907,4.01145,4.01145,0,0,0-.03245,2.476,4.66251,4.66251,0,0,0,2.4273,3.10924,5.015,5.015,0,0,0,2.58155.1867,25.443,25.443,0,0,0,3.14982-.755c1.55866-.3085,2.53284-.4952,3.58818-.07309a4.37443,4.37443,0,0,1,1.3557,7.02217,4.71875,4.71875,0,0,1-2.89811,1.11217,33.01906,33.01906,0,0,1-8.70261-.25166,6.81435,6.81435,0,0,0-.25166,2.76017,3.80635,3.80635,0,0,0,.53577,1.78594,3.942,3.942,0,0,0,2.68708,1.39634c3.5314.64944,9.30335-.86052,10.25315-1.1203a13.83741,13.83741,0,0,0,3.95351-3.29594,15.45446,15.45446,0,0,0,1.51812-2.31364,14.62248,14.62248,0,0,0,1.28263-3.30407c.07308.33282,1.12842,5.52842-2.64651,9.24647a10.19147,10.19147,0,0,1-7.631,2.76017,19.52575,19.52575,0,0,1-11.77935,8.30479,37.00918,37.00918,0,0,0,4.18891,1.86719,35.99385,35.99385,0,0,0,4.87085,1.42875,29.46356,29.46356,0,0,0-6.50255.755,21.68987,21.68987,0,0,0-7.11957,2.67084c-2.24873,1.40441-2.5491,2.29743-5.34985,4.01033a27.18571,27.18571,0,0,1-3.96163,2.01327,11.55475,11.55475,0,0,0,3.01183.38158c3.1417-.03251,5.46346-1.38009,8.11809-2.96312a33.30616,33.30616,0,0,0,5.05755-3.72623,10.77288,10.77288,0,0,1-2.38672,8.71887,13.55,13.55,0,0,0,5.98308-2.65463,13.34679,13.34679,0,0,0,3.11732-3.47457c-.00813.68195-.138,5.47164-3.69372,7.88269a8.75405,8.75405,0,0,1-4.01034,1.3557,12.02577,12.02577,0,0,1-7.23324-1.46124,26.17072,26.17072,0,0,0,2.22439-1.82657,25.44449,25.44449,0,0,0,2.0376-2.15127c-.84426.38153-2.062.94168-3.53135,1.6317-2.35426,1.10409-3.5476,1.66424-4.13208,2.02952a15.05076,15.05076,0,0,0-4.5137,4.56236c-1.98889,2.89816-1.87528,4.48933-3.14977,7.355a22.38036,22.38036,0,0,1-5.96683,7.83392,16.39439,16.39439,0,0,0,7.59044.28416Zm29.03385-70.25117c0-1.57824.66031-2.85987,1.47669-2.85987s1.48878,1.28163,1.48878,2.85987c0,1.58885-.67232,2.87054-1.48878,2.87054S202.31575,275.92433,202.31575,274.33548Zm2.384,18.90082a5.17027,5.17027,0,0,1-7.18147.99836,6.0561,6.0561,0,0,0,6.05172-2.855,6.14172,6.14172,0,0,0,.30651-5.09709A5.16251,5.16251,0,0,1,204.69972,293.2363Zm18.73917-23.49281a11.6316,11.6316,0,0,1,5.5335-2.47355,14.369,14.369,0,0,1,.83949,6.00723,14.66759,14.66759,0,0,1-2.11226,6.50707,23.88787,23.88787,0,0,0-.03615-5.43836,23.59451,23.59451,0,0,0-.64087-3.232,18.583,18.583,0,0,0-3.78228,1.74961,18.34451,18.34451,0,0,0-3.43027,2.66314A10.80091,10.80091,0,0,1,223.43889,269.74349Zm1.93932,16.14122c3.05917,3.15321,3.76844,7.631,1.92268,10.89523a8.85638,8.85638,0,0,1-5.70829,4.01629,15.059,15.059,0,0,0,2.95669-4.21281A16.0637,16.0637,0,0,0,225.37821,285.88471Zm-4.776,17.39711a31.94024,31.94024,0,0,0-.479,4.82215,32.63277,32.63277,0,0,0,.38158,5.68266,38.17517,38.17517,0,0,1,9.40883-15.189c-1.63982,3.848-3.42581,7.81772-5.39037,11.893q-2.49638,5.15091-5.017,9.88783a15.57458,15.57458,0,0,1,1.09592-17.09669Zm-4.978-14.43351A15.94835,15.94835,0,0,0,216.70911,278.27c2.94971,3.19551,3.55154,7.654,1.64439,10.84109a8.835,8.835,0,0,1-5.76383,3.85667A14.93593,14.93593,0,0,0,215.62418,288.84831Zm-11.591,19.10949a19.26454,19.26454,0,0,1,5.63395-6.44577,20.7642,20.7642,0,0,0-1.19334,2.91442,21.43191,21.43191,0,0,0-.86051,3.86422A41.5536,41.5536,0,0,0,217.64722,295.253a23.55854,23.55854,0,0,1-15.76531,19.53212A19.39852,19.39852,0,0,1,204.03318,307.9578ZM198.521,322.85452a19.30341,19.30341,0,0,1,7.87456-6.51073,33.44092,33.44092,0,0,0-8.34542,13.85759c2.48413-2.08636,5.09006-4.4325,7.73656-7.05462,2.76825-2.74392,5.23618-5.431,7.41182-7.98817-.5439,1.90773-1.0716,3.94537-1.53433,6.121-.37345,1.75348-.68189,3.44206-.9336,5.04942a24.31577,24.31577,0,0,0,2.93879-2.50033,25.0638,25.0638,0,0,0,3.40148-4.22954A15.75084,15.75084,0,0,1,215.707,336.5416a46.193,46.193,0,0,0,.17862-11.10554,20.06975,20.06975,0,0,1-3.86421,2.9712,20.57423,20.57423,0,0,1-5.30109,2.2244c.12987-.50337.25974-1.03914.35715-1.61554a18.279,18.279,0,0,0,.28416-3.07674,51.29039,51.29039,0,0,1-5.366,4.90331,52.25592,52.25592,0,0,1-6.876,4.61919A19.69408,19.69408,0,0,1,198.521,322.85452Zm-7.30628,21.52918a25.26206,25.26206,0,0,0-7.40369,18.11145,8.01046,8.01046,0,0,1-5.73137-4.70853,7.71032,7.71032,0,0,1,.48707-6.20218,16.40551,16.40551,0,0,0,1.18526,3.04428,15.849,15.849,0,0,0,2.11068,3.14983,17.11358,17.11358,0,0,1,3.9373-9.23839A16.61819,16.61819,0,0,1,191.21473,344.3837Zm-13.07822-12.71295a15.17335,15.17335,0,0,1,8.27233-3.44206,23.87185,23.87185,0,0,0-9.37638,11.25165,20.39455,20.39455,0,0,1,2.57342-1.583,20.1828,20.1828,0,0,1,3.72617-1.46125,30.77921,30.77921,0,0,0-2.82508,5.51221,30.1766,30.1766,0,0,0-1.5424,5.26051,21.79869,21.79869,0,0,0,9.31142-8.451c-.10554.77936-1.10405,7.42-6.77051,10.27753a11.62946,11.62946,0,0,1-5.55274,1.21771,16.881,16.881,0,0,1,1.61549-8.33729,9.14794,9.14794,0,0,1-2.36234.56828,9.04006,9.04006,0,0,1-2.37052-.07309A15.66269,15.66269,0,0,1,178.13651,331.67075Z"/><path class="a" d="M204.28488,375.30547a36.952,36.952,0,0,1-6.462,6.70555c1.57491-.11367,3.19853-.21108,4.87085-.276,1.74536-.06491,3.43394-.08929,5.06568-.08929a19.82041,19.82041,0,0,0-1.2908-3.01183A20.21309,20.21309,0,0,0,204.28488,375.30547Z"/><path class="a" d="M196.459,383.18l-3.58011,2.9712a41.39735,41.39735,0,0,0,5.73137.3897,42.60874,42.60874,0,0,0,5.75574-.4059c-1.48562-.43028-3.06866-.95793-4.72473-1.59929C198.51289,384.08925,197.45754,383.63463,196.459,383.18Z"/><path class="a" d="M151.50488,373.38149c-.19027-1.26172-.35408-2.60073-.47755-4.01128-.1428-1.63125-.216-3.17931-.23878-4.63213a5.18549,5.18549,0,0,1-1.95788-.71628,5.27217,5.27217,0,0,1-1.95787-2.19665,35.34,35.34,0,0,0,20.462.28351c-.05021-1.7955-.04409-3.70912.042-5.72741.10082-2.36343.29884-4.57788.5553-6.62581a93.66967,93.66967,0,0,1-10.69676,3.95162,37.72779,37.72779,0,0,1-8.35686,1.67139c-3.71181.28555-5.784.41551-7.05556-.93122-1.30552-1.38267-1.8729-4.43389-2.22053-6.30346a4.38983,4.38983,0,0,0-.96705-2.29213,2.9034,2.9034,0,0,0-1.08294-.80572,3.50044,3.50044,0,0,0-3.50137,1.128,8.67179,8.67179,0,0,1,2.901,7.44953,7.74929,7.74929,0,0,0-2.36383-2.79357c-.9178-.663-1.96655-1.42062-3.18753-1.14607-1.60231.36023-2.24828,2.21613-2.36378,2.57868a4.73885,4.73885,0,0,0,.53721,3.79638,10.97025,10.97025,0,0,1,6.73325.28654c-.34576.05322-4.56033.76291-5.65878,3.90386-.08448.2416-.77723,2.22232.25066,3.40242,1.13685,1.30517,3.57431.70786,3.83226.64468a21.99382,21.99382,0,0,0,2.79357-1.21771c.7794-.34169,1.42493-.60569,1.85045-.776a5.04287,5.04287,0,0,0-.04776,3.677,4.81288,4.81288,0,0,0,7.73606,1.86239,17.04876,17.04876,0,0,0,4.44107,5.53942Z"/><path class="a" d="M193.14661,289.95619l1.61675-3.39048c-.47616.05515-.98135.097-1.51313.11937-.45521.01912-.89154.02239-1.30718.01352a3.0901,3.0901,0,0,0-.06082,1.41908A2.83081,2.83081,0,0,0,193.14661,289.95619Z"/><path class="a" d="M288.0917,296.17606c-.2253.12616-2.62812,1.51952-2.722,3.93969a4.96268,4.96268,0,0,0,1.54008,3.47406c1.298,1.4201,3.01649,2.06545,5.229,2.86522.55339.2,1.01652.34468,1.32648.43694a10.29777,10.29777,0,0,0-7.2718,2.10591,4.47088,4.47088,0,0,0-1.82657,2.82939,4.25929,4.25929,0,0,0,1.1103,3.18752,3.48174,3.48174,0,0,1,.7521-2.11306,4.29659,4.29659,0,0,1,2.50707-1.21771c2.09978-.50208,2.54667-.01125,4.36942-.46561,1.13982-.28411,2.304-.57427,2.901-1.61168a3.31983,3.31983,0,0,0,.07164-2.75774c-.36438-.82083-.95064-1.14943-2.18475-1.96986-2.59418-1.72455-3.90941-2.61321-4.79921-3.90381a6.23242,6.23242,0,0,1-1.11029-2.722A5.79184,5.79184,0,0,1,288.0917,296.17606Z"/><path class="a" d="M284.36691,305.094c-1.805-1.21643-4.88076.70984-5.51553,1.11029a9.871,9.871,0,0,0-2.65027,2.47125c1.23486.00753,2.55162.06109,3.93963.17907.89575.07611,1.75606.17347,2.57867.28649a6.0447,6.0447,0,0,1,2.61455-2.65032A2.60584,2.60584,0,0,0,284.36691,305.094Z"/><path class="a" d="M254.60459,291.00678a40.44479,40.44479,0,0,0,9.93272,6.92426A91.56914,91.56914,0,0,0,278.35,303.76888a5.626,5.626,0,0,1,1.00282-.85957,5.69743,5.69743,0,0,1,2.04146-.84763,122.20077,122.20077,0,0,1-13.41873-5.56325c-6.94655-3.38052-9.91146-5.64981-12.26072-8.55982-2.78712-3.45236-2.97457-5.65967-2.93681-6.80489a8.29783,8.29783,0,0,1,2.722-5.802,7.34411,7.34411,0,0,1,4.29777-1.82657,7.22912,7.22912,0,0,1,3.54438.67133,6.47262,6.47262,0,0,1,1.09964-1.7458,10.55206,10.55206,0,0,0-3.15171-1.0983,9.37627,9.37627,0,0,0-9.12091,3.24723A10.17529,10.17529,0,0,0,249.877,280.31a11.5796,11.5796,0,0,0,.28654,3.77255C250.76624,286.57582,252.1601,288.62814,254.60459,291.00678Z"/><path class="a" d="M265.17005,282.92447a10.40283,10.40283,0,0,0,4.97827-6.30341,17.733,17.733,0,0,0,4.11875,12.57109c-.132-1.38162-.327-2.868-.60886-4.44111-.27147-1.51526-.59037-2.92666-.93117-4.22618a25.82368,25.82368,0,0,0,12.5711,8.84636,55.83441,55.83441,0,0,0-9.52682-9.45521,13.31177,13.31177,0,0,0,7.6286,1.71914,13.0433,13.0433,0,0,0,5.19317-1.57585,15.7959,15.7959,0,0,1-7.30628-2.39965c-1.8127-1.1811-2.61906-2.31884-5.44389-3.868a9.046,9.046,0,0,0-4.22617-1.54,6.65769,6.65769,0,0,0-2.7897.52755,6.57745,6.57745,0,0,0-3.57347,3.68668c-.1646.53394-.09191.63844-.08353,4.95444C265.17128,282.05468,265.17074,282.57708,265.17005,282.92447Z"/><path class="a" d="M303.02657,414.42559a3.92417,3.92417,0,0,0,.85958,4.16647l2.55484-1.9937a4.8583,4.8583,0,0,1-3.41442-2.17277Z"/><path class="a" d="M296.19785,406.14033a6.32772,6.32772,0,0,0-1.95788,4.03521q1.70721-.11944,3.41437-.23878a5.66077,5.66077,0,0,1-.81181-1.16995A5.80654,5.80654,0,0,1,296.19785,406.14033Z"/><path class="a" d="M315.09628,414.86727a4.52559,4.52559,0,0,0,2.57868,2.901,11.37642,11.37642,0,0,0,1.11029-3.83221,5.19891,5.19891,0,0,1-3.689.93117Z"/><path class="a" d="M324.01424,407.41775a10.422,10.422,0,0,1-1.79075.60885q1.37884,1.28937,2.75775,2.57868a7.04186,7.04186,0,0,0,.53725-4.01128A10.42309,10.42309,0,0,1,324.01424,407.41775Z"/><path class="a" d="M276.56019,394.5616a58.45239,58.45239,0,0,0-4.69223,4.335,59.91242,59.91242,0,0,0-5.37422,6.34022,27.20571,27.20571,0,0,1,8.70262-12.57491,26.32412,26.32412,0,0,1,7.57419-4.197,1.35084,1.35084,0,0,0,.92542-.67382c.29229-.69-.30036-1.859-1.70478-2.58967-2.99557-1.63987-4.75718-4.57049-4.46494-7.42807a6.76143,6.76143,0,0,1,1.76973-3.81546c-1.33945-3.33657-2.63837-6.03986-3.62876-7.9801a35.41806,35.41806,0,0,0-5.11443-7.87455,9.89018,9.89018,0,0,0-5.00885-3.44206,7.87282,7.87282,0,0,0-1.91586-.23541c-.1867.42211-.52769,1.1203-.9985,1.95644-3.29595,5.76382-6.72993,6.25906-8.84061,10.69963a10.719,10.719,0,0,0-1.096,6.68117c.682,3.40148,3.27974,5.56905,4.96832,6.97346,4.09962,3.41773,7.93946,3.86422,8.54832,6.69742a9.39591,9.39591,0,0,1,.14612,2.32989,11.62464,11.62464,0,0,1-.86052,3.38523,15.83661,15.83661,0,0,1-3.94537,6.06424,5.33835,5.33835,0,0,1-5.69079,1.39628c-2.49226-.56015-2.72767-1.60736-5.017-1.9321a4.95843,4.95843,0,0,0-2.82508.2192,4.26864,4.26864,0,0,0-2.47606,2.93062,2.80945,2.80945,0,0,0,.3572,2.403,2.10717,2.10717,0,0,0,.82806.5764,5.414,5.414,0,0,1,4.58674-1.721,5.134,5.134,0,0,1,3.07674,1.78594,4.3833,4.3833,0,0,0-3.9048-.10554,3.949,3.949,0,0,0-2.07823,4.262,3.86013,3.86013,0,0,0,3.51515,2.97124,4.7368,4.7368,0,0,0,3.30406-1.63174c1.37191-1.28267,1.26642-2.17564,2.41105-2.96312a4.86706,4.86706,0,0,1,3.39336-.64131,3.97622,3.97622,0,0,0-3.369,4.27012,3.63148,3.63148,0,0,0,3.14977,3.01183c1.62362.12987,2.77642-1.33138,3.49082-2.2244a7.69788,7.69788,0,0,0,1.57491-3.96163c1.91586,1.53433,4.197,2.04577,5.845,1.19339a3.43313,3.43313,0,0,0,1.84283-2.12694,3.6022,3.6022,0,0,0-.5277-2.36239,8.67675,8.67675,0,0,0-2.24055-2.91437,10.98325,10.98325,0,0,1,5.94245-2.21622,10.63878,10.63878,0,0,1,3.75862.46269,9.61167,9.61167,0,0,0-3.93725-5.33354Zm-5.5679-16.64537c.31-2.459,2.45327-4.64113,5.367-5.60192a8.76658,8.76658,0,0,0-2.24073,5.98459c.17715,4.633,4.33972,7.18154,4.74714,7.4258C273.85293,385.228,270.55833,381.40928,270.99229,377.91623Z"/><path class="a" d="M282.32545,391.45617a8.39606,8.39606,0,0,0-4.87085,2.38766,27.38833,27.38833,0,0,1,6.90037,1.83851,7.76207,7.76207,0,0,0-2.02952-4.22617Z"/><path class="a" d="M171.90393,364.15632q-1.23987,1.233-2.48322,2.46687-1.33749,1.3273-2.67391,2.65055,1.265.09554,2.56433.21511,1.43766.13264,2.829.28725a21.34252,21.34252,0,0,0-.23623-5.61978Z"/><path class="a" d="M163.93084,368.28127a18.65127,18.65127,0,0,0,2.17465.492q.3671-1.67434.73422-3.34871c-2.15637.171-4.42283.269-6.79033.2691q-1.03718,0-2.04572-.02438a31.23513,31.23513,0,0,0,3.71805,1.81845A21.43468,21.43468,0,0,0,163.93084,368.28127Z"/><path class="a" d="M157.02948,365.62872c-.74586-.02814-1.53666-.08146-2.3669-.16836-.93672-.09806-1.81641-.22768-2.63387-.37554a9.41785,9.41785,0,0,0,.9336,2.68709,10.4368,10.4368,0,0,0,5.42287,4.676c-.25978-1.12838-.51144-2.28926-.74685-3.48265Q157.30181,367.259,157.02948,365.62872Z"/><path class="a" d="M243.95555,400.00405a4.77472,4.77472,0,0,0-3.50985,3.74862q1.934.74017,3.868,1.48037a12.2576,12.2576,0,0,1-.35818-5.229Z"/><path class="a" d="M246.94017,412.25278a7.15636,7.15636,0,0,0,.11937,4.67984A11.31387,11.31387,0,0,1,250.45,414.2823a10.81952,10.81952,0,0,1-3.50985-2.02952Z"/><path class="a" d="M260.45438,416.31182a9.94129,9.94129,0,0,1-2.53091-.4775,5.84212,5.84212,0,0,0,.42974,1.743,6.03125,6.03125,0,0,0,2.02952,2.531c.3625-.4459.73134-.93088,1.09835-1.45649a24.98651,24.98651,0,0,0,1.552-2.531A9.93837,9.93837,0,0,1,260.45438,416.31182Z"/><path class="a" d="M269.44993,410.76646q1.0924,2.04144,2.18476,4.08293a6.75682,6.75682,0,0,0,1.84445-4.40525,9.6223,9.6223,0,0,1-4.02921.32232Z"/><path class="a" d="M147.70849,397.13883a5.72546,5.72546,0,0,0-3.41441,3.9874q1.98027.09208,3.96054.18422a13.5861,13.5861,0,0,1-.54613-4.17162Z"/><path class="a" d="M150.49012,409.28014a3.96236,3.96236,0,0,0,.17907,4.15458q1.23563-1.182,2.47125-2.36383a5.70779,5.70779,0,0,1-2.65032-1.79075Z"/><path class="a" d="M163.56265,411.823a6.06668,6.06668,0,0,0,2.54284,3.2234A12.04658,12.04658,0,0,0,167.5381,411.25a12.303,12.303,0,0,1-3.97545.573Z"/><path class="a" d="M175.73978,408.43251a5.14437,5.14437,0,0,1-1.98181.04776l2.14894,3.22336a5.16494,5.16494,0,0,0,1.33707-3.868A5.12881,5.12881,0,0,1,175.73978,408.43251Z"/><path class="a" d="M138.27716,370.02678a5.63648,5.63648,0,0,0,.382,3.9755q1.29531-1.14606,2.59062-2.29218a5.17854,5.17854,0,0,1-2.97264-1.68332Z"/><path class="a" d="M127.96242,362.29076a4.44482,4.44482,0,0,0-1.82657,4.01128,9.32043,9.32043,0,0,1,3.11593-.64468,5.13326,5.13326,0,0,1-1.28936-3.3666Z"/><path class="a" d="M126.76859,351.17611a6.0542,6.0542,0,0,1,.85958-1.62362,5.031,5.031,0,0,0-2.57873.6208,4.97354,4.97354,0,0,0-1.5042,1.28936q1.44454.88341,2.889,1.76686A6.06012,6.06012,0,0,1,126.76859,351.17611Z"/><path class="a" d="M134.89263,342.91477q.26459-.10033.51932-.17906a4.04978,4.04978,0,0,0-1.46843-1.3789,4.12592,4.12592,0,0,0-2.63239-.42979q.71634,1.57589,1.43261,3.15176A9.22858,9.22858,0,0,1,134.89263,342.91477Z"/></svg>