<?xml version="1.0" encoding="UTF-8" standalone="no"?>
<!-- Created with sK1/UniConvertor (http://sk1project.org/) -->

<svg
   xmlns:dc="http://purl.org/dc/elements/1.1/"
   xmlns:cc="http://creativecommons.org/ns#"
   xmlns:rdf="http://www.w3.org/1999/02/22-rdf-syntax-ns#"
   xmlns:svg="http://www.w3.org/2000/svg"
   xmlns="http://www.w3.org/2000/svg"
   xmlns:sodipodi="http://sodipodi.sourceforge.net/DTD/sodipodi-0.dtd"
   xmlns:inkscape="http://www.inkscape.org/namespaces/inkscape"
   width="215.75499pt"
   height="282.70798pt"
   viewBox="0 0 215.75499 282.70797"
   id="svg3336"
   version="1.1"
   inkscape:version="0.91 r13725"
   sodipodi:docname="222222.svg"
   style="fill-rule:evenodd">
  <metadata
     id="metadata3356">
    <rdf:RDF>
      <cc:Work
         rdf:about="">
        <dc:format>image/svg+xml</dc:format>
        <dc:type
           rdf:resource="http://purl.org/dc/dcmitype/StillImage" />
        <dc:title></dc:title>
      </cc:Work>
    </rdf:RDF>
  </metadata>
  <defs
     id="defs3354" />
  <sodipodi:namedview
     pagecolor="#ffffff"
     bordercolor="#666666"
     borderopacity="1"
     objecttolerance="10"
     gridtolerance="10"
     guidetolerance="10"
     inkscape:pageopacity="0"
     inkscape:pageshadow="2"
     inkscape:window-width="1304"
     inkscape:window-height="746"
     id="namedview3352"
     showgrid="false"
     fit-margin-top="0"
     fit-margin-left="0"
     fit-margin-right="0"
     fit-margin-bottom="0"
     inkscape:zoom="0.90463123"
     inkscape:cx="186.22501"
     inkscape:cy="267.89165"
     inkscape:window-x="-8"
     inkscape:window-y="-8"
     inkscape:window-maximized="1"
     inkscape:current-layer="svg3336" />
  <g
     id="g3338"
     transform="translate(-148.658,-529.41805)">
    <path
       style="fill:#2c2c2b;stroke:none"
       d="m 223.632,776.013 0,10e-4 1.865,-2.147 0.939,7.193 1.665,-2.298 1.569,7.1 1.497,-2.504 c 0.55,2.036 2.212,6.112 0.572,6.796 -5.14,1.669 -11.946,4.335 -13.296,6.544 -2.743,0.552 -6.14,2.135 -6.939,4.372 1.824,-0.86 3.391,-1.317 5.429,-1.488 l 0.204,0.513 c -2.473,0.64 -4.722,2.343 -5.49,4.184 1.522,-0.577 4.161,-1.702 6.13,-1.827 l 0.372,0.555 c -2.442,0.775 -4.35,2.62 -5.098,4.215 2.057,-0.575 4.286,-1.791 6.528,-2.142 l 0.506,0.405 c -2.304,0.97 -3.512,2.103 -4.483,3.731 2.224,-0.558 4.224,-1.296 6.469,-1.665 0.293,0.199 2.151,0.036 2.553,-0.011 l 24.777,-2.9 c 1.496,-0.176 4.352,0.036 4.758,-2.563 0.253,-1.615 0.454,-3.073 0.453,-4.463 l -0.011,-16.072 1.974,2.663 0.004,-21.228 1.554,-4.34 c 1.914,7.882 4.42,13.202 8.097,21.364 l 0.036,0.097 0.012,-0.028 c 0.006,0.01 0.012,0.019 0.019,0.028 0.008,-0.045 0.017,-0.088 0.025,-0.132 l 1.197,-2.864 3.654,7.101 0.87,-3.139 4.47,6.68 0.423,-2.879 c 1.308,2.099 3.876,7.164 2.526,7.684 -4.511,1.737 -10.616,3.357 -13.855,7.278 -2.516,0.543 -5.556,2.13 -6.179,4.383 1.813,-0.863 3.17,-1.294 5.47,-1.663 0.051,0.173 0.105,0.347 0.16,0.52 -2.438,0.769 -4.731,2.39 -5.391,4.3 1.483,-0.658 4.047,-1.647 6.298,-1.893 0.069,0.155 0.141,0.31 0.215,0.465 -2.394,0.904 -4.494,2.547 -5.272,4.217 2.038,-0.571 4.452,-1.62 6.812,-1.983 0.108,0.161 0.357,0.32 0.472,0.479 -2.185,0.997 -3.655,1.775 -4.483,3.474 2.364,-0.69 4.924,-1.295 6.816,-1.647 0.907,0.188 2.357,0.18 3.073,0.085 l 25.62,-3.409 c 1.503,-0.2 3.384,-0.68 3.669,-2.864 0.187,-1.436 0.149,-3.089 -0.011,-4.866 l -1.884,-15.678 2.481,2.305 -4.017,-22.938 0.023,-25.828 3.322,2.668 0.436,-36.032 0.038,-12.971 c 0.009,-3.221 -0.257,-6.614 -1.809,-13.546 -0.657,-2.936 -2.943,-13.409 -4.438,-15.141 l -0.618,-18.812 2.582,0.974 -0.705,-8.296 2.374,1.054 -1.439,-8.238 2.499,0.871 -1.746,-8.13 2.611,0.675 -2.328,-7.746 2.935,0.81 c -2.023,-8.437 -5.021,-16.314 -8.551,-23.227 l 24.306,-17.525 c 0.527,0.354 1.202,0.387 1.7,0.029 l 0.263,-0.19 c 0.36,-0.259 0.555,-0.672 0.572,-1.112 l 1.314,-1.019 c 0.588,1.116 1.102,2.27 1.52,3.451 0.301,0.892 0.531,1.778 0.691,2.704 0.134,0.872 0.2,1.729 0.209,2.609 -0.004,0.861 -0.062,1.701 -0.18,2.553 -0.178,1.085 -0.448,2.095 -0.838,3.121 -0.134,0.329 -0.274,0.652 -0.423,0.975 -0.376,0.769 -0.793,1.496 -1.257,2.215 -1.198,1.794 -1.842,2.513 -3.226,4.156 1.025,0.073 1.577,-0.014 2.551,-0.235 0.376,-0.084 0.956,-0.272 1.325,-0.433 0.728,-0.342 1.407,-0.719 2.085,-1.148 0.655,-0.433 1.277,-0.892 1.889,-1.382 0.632,-0.525 1.217,-1.071 1.784,-1.667 0.535,-0.587 1.022,-1.19 1.485,-1.837 0.513,-0.753 0.959,-1.517 1.367,-2.335 0.276,-0.585 0.523,-1.172 0.749,-1.78 0.302,-0.865 0.548,-1.73 0.751,-2.625 0.213,-1.02 0.364,-2.032 0.462,-3.073 0.1,-1.343 0.097,-2.651 -0.016,-3.995 -0.046,-0.441 -0.101,-0.878 -0.165,-1.318 -0.171,-1.033 -0.399,-2.029 -0.693,-3.035 -0.228,-0.722 -0.48,-1.424 -0.764,-2.127 -0.214,-0.502 -0.435,-1.001 -0.659,-1.498 l 1.439,-1.116 c 0.533,0.388 1.238,0.435 1.752,0.065 l 0.263,-0.19 c 0.544,-0.392 0.711,-1.133 0.454,-1.79 l 0.348,-0.27 c 1.291,0.429 2.763,0.254 3.947,-0.599 1.374,-0.99 2.004,-2.639 1.769,-4.211 l 1.354,-1.228 c 1.152,0.008 2.302,0.086 3.444,0.268 0.906,0.153 1.776,0.36 2.67,0.587 l 15.529,-18.659 -22.617,8.821 -0.094,1.251 c -0.154,1.488 -0.449,2.916 -0.873,4.348 -0.05,0.157 -0.101,0.314 -0.153,0.469 l -1.599,0.898 c -1.417,-0.72 -3.179,-0.645 -4.553,0.345 -1.179,0.849 -1.809,2.184 -1.818,3.539 l -0.36,0.239 c -0.545,-0.494 -1.334,-0.59 -1.897,-0.185 l -0.264,0.19 c -0.53,0.383 -0.703,1.098 -0.472,1.742 l -0.635,0.421 c -0.377,-0.811 -0.748,-1.627 -1.103,-2.447 -0.406,-0.981 -0.736,-1.968 -0.996,-2.998 -0.241,-1.023 -0.406,-2.04 -0.502,-3.088 -0.109,-1.4 -0.105,-2.784 0.048,-4.183 l 0.159,-0.982 c 0.141,-0.663 0.311,-1.302 0.514,-1.95 0.227,-0.651 0.476,-1.277 0.759,-1.908 0.303,-0.626 0.624,-1.229 0.977,-1.831 0.463,-0.742 0.95,-1.439 1.49,-2.129 0.329,-0.4 0.665,-0.786 1.016,-1.17 0.592,-0.612 1.199,-1.177 1.857,-1.722 1.379,-1.077 3.829,-2.691 5.325,-3.227 l -1.826,-0.798 c -4.191,-1.831 -8.698,-2.762 -13.271,-2.762 -18.329,0 -33.193,14.864 -33.193,33.193 0,1.671 0.173,3.273 0.41,4.921 1.716,-1.66 3.33,-3.261 5.42,-4.454 1.127,-0.625 2.287,-1.121 3.514,-1.509 1.055,-0.316 2.107,-0.536 3.198,-0.673 1.594,-0.182 3.154,-0.185 4.749,-0.007 l 0.883,0.131 c 0.885,0.162 1.736,0.374 2.595,0.643 0.565,0.191 1.115,0.4 1.664,0.633 0.681,0.308 1.331,0.641 1.978,1.015 0.897,0.548 1.718,1.14 2.52,1.82 0.399,0.356 0.783,0.719 1.153,1.103 0.282,0.298 0.555,0.601 0.821,0.909 l -1.522,1.01 c -0.427,-0.131 -0.888,-0.079 -1.253,0.184 l -0.264,0.19 c -0.503,0.362 -0.683,1.024 -0.504,1.642 l -23.742,17.118 c -1.409,-2.401 -2.876,-4.652 -4.38,-6.733 l 2.456,0.083 -3.865,-5.521 2.386,-0.106 -4.271,-4.258 2.37,-0.3 -4.486,-4.217 2.339,-0.491 c -4.327,-5.816 -10.275,-11.929 -14.174,-14.624 0.008,-0.007 0.017,-0.013 0.026,-0.02 0,0 1.816,-0.876 1.874,-2.289 0.058,-1.413 -1.745,-3.758 -3.71,-5.169 -2.051,-1.474 -4.122,-1.662 -5.143,-1.114 -0.562,0.301 -1.132,0.989 -1.616,1.806 -1.108,-0.763 -2.207,-1.441 -3.448,-1.957 -0.075,-0.046 -0.149,-0.092 -0.223,-0.137 -0.256,-0.095 -0.509,-0.169 -0.759,-0.226 -0.799,-0.259 -1.664,-0.452 -2.629,-0.562 -1.086,-0.123 -2.238,-0.191 -3.436,-0.207 -5.194,-0.071 -11.273,0.809 -16.737,2.166 -1.943,0.483 -5.435,3.619 -5.488,3.619 l -13.786,1.028 c -3.075,-0.115 -1.938,3.118 -1.612,5.385 0.224,1.561 0.501,3.377 0.501,3.377 5.598,1.772 8.628,2.889 10.358,4.568 0.241,0.607 0.179,1.835 0.028,2.189 -1.386,-0.671 -5.191,-2.358 -8.592,-2.294 -0.366,0.043 0.117,1.794 0.575,3.479 0.357,1.114 2.016,2.312 4.134,4.029 5.284,4.282 7.601,11.936 8.535,15.789 l -0.001,0.022 0.006,-0.006 c 0,10e-4 0,10e-4 0,0.002 0.001,-10e-4 0.001,-0.002 0.001,-0.003 l 1.543,-1.501 0.328,5.517 1.347,-1.691 1.022,5.431 1.107,-1.774 2.238,5.03 10e-4,7.018 c -1.88,0.059 -3.755,0.077 -5.484,0.041 -4.623,-0.098 -7.063,-0.131 -10.285,-3.364 L 203.3,581.547 c -1.268,-1.271 -3.344,-3.924 -6.777,-5.63 L 184.3,569.839 c -2.751,-1.368 -5.853,-2.535 -9,-2.045 -3.11,-0.943 -6.128,-1.644 -7.694,-0.116 1.902,0.403 3.662,0.928 5.411,1.561 -0.223,0.219 -0.431,0.449 -0.623,0.687 -3.022,-0.133 -6.422,-0.504 -7.493,1.261 2.204,-0.095 4.222,0.285 6.379,0.661 -0.119,0.317 -0.211,0.642 -0.274,0.971 -2.674,0.111 -5.361,0.277 -6.148,1.89 2.044,-0.277 3.964,-0.126 5.989,0.04 -0.014,0.368 -0.021,0.722 -0.02,1.063 -2.564,0.347 -5.074,0.785 -5.69,2.407 1.954,-0.449 3.829,-0.485 5.798,-0.504 0.051,0.391 0.12,0.751 0.211,1.075 -2.05,0.53 -3.837,1.224 -4.226,2.624 1.733,-0.57 3.433,-0.793 5.201,-0.978 0.024,0.018 0.048,0.037 0.074,0.054 6.922,4.855 12.135,14.826 18.386,17.437 l 1.8,2.618 -3.903,0.516 6.202,6.038 -3.561,0.628 6.454,5.768 -3.531,0.778 6.694,5.488 -3.495,0.928 7.196,5.403 -3.58,1.122 13.568,9.276 -19.361,4.768 c -7.501,1.847 -10.255,4.293 -12.609,7.521 l -11.012,15.102 c -2.855,3.916 -4.017,6.37 -4.307,9.842 -0.092,0.41 -0.112,0.816 -0.058,1.199 -0.423,1.078 -0.807,2.147 -0.986,3.109 l -16.856,12.153 -0.332,0.352 -0.203,0.496 -0.043,0.479 0.053,0.439 0.118,0.409 0.163,0.388 0.434,0.726 0.551,0.641 0.317,0.276 0.352,0.241 0.401,0.19 0.467,0.109 0.534,-0.035 0.439,-0.204 16.935,-12.209 c 0.128,0.25 0.294,0.47 0.508,0.653 0.048,-0.392 0.11,-0.775 0.183,-1.152 l 2.166,-1.561 c -0.015,1.466 0.232,2.7 1.119,3.33 0.047,-1.621 0.344,-3.122 0.708,-4.648 l 1.13,-0.814 c 0.072,-0.004 0.144,-0.009 0.217,-0.015 -0.066,2.505 -0.001,4.928 1.454,5.775 -0.129,-2.083 0.169,-4.007 0.484,-6.04 0.338,-0.069 0.684,-0.16 1.015,-0.275 0.161,2.618 0.402,5.211 1.997,5.953 -0.379,-2.446 -0.138,-4.726 0.001,-7.219 4.851,-4.034 10.427,-6.789 14.567,-11.625 l 3.021,-0.74 -1.354,3.283 8.228,-2.296 -1.234,3.351 8.123,-2.64 -1.092,3.4 7.895,-2.939 -0.193,0.842 -0.643,2.543 11.417,-2.209 0.18,0.033 c -1.178,11.463 -1.869,21.577 -2.271,33.492 0,-0.001 0,-0.001 0.001,-0.001 l 2.235,-0.938 -1.523,6.454 2.114,-1.056 -0.931,6.6 1.917,-1.212 c 0.112,0.93 0.209,5.496 0.642,8.862 l -7.699,16.38 c -2.98,6.341 -4.247,16.748 -3.46,24.73 1.423,7.851 1.744,9.011 3.288,15.23 z"
       id="path3340"
       inkscape:connector-curvature="0" />
    <path
       style="fill:#ffffff;stroke:none"
       d="m 326.599,590.174 c -1.532,1.246 -3.254,2.336 -5.153,2.931 2.88,-3.504 4.657,-6.808 4.793,-11.357 0.105,-3.532 -0.715,-6.288 -2.303,-9.428 -0.099,-0.195 -0.201,-0.389 -0.304,-0.583 l 7.086,-5.493 0.207,0.449 c 1.974,4.277 2.471,8.811 1.555,13.407 -0.792,3.969 -2.613,7.414 -5.881,10.074 z m -35.15,-24.736 c -0.081,-0.932 -0.125,-1.874 -0.125,-2.827 0,-17.781 14.42,-32.201 32.201,-32.201 4.577,0 8.931,0.957 12.874,2.679 -1.03,0.58 -2.023,1.151 -2.378,1.389 -4.588,3.064 -8.174,8.705 -8.482,14.298 -0.2,3.617 0.367,7.043 1.888,10.337 l 1.324,2.871 2.34,-1.553 -0.271,-0.373 c -0.152,-0.258 -0.233,-0.456 -0.11,-0.745 0.11,-0.155 0.278,-0.26 0.443,-0.352 0.251,-0.075 0.426,0.01 0.623,0.167 l 0.416,0.573 1.577,-1.047 c -0.169,-1.216 0.323,-2.487 1.385,-3.252 1.213,-0.874 2.816,-0.833 3.975,-0.013 l 2.41,-1.354 c 0.096,-0.28 0.189,-0.561 0.278,-0.843 0.513,-1.7 0.852,-3.43 0.964,-5.206 l 18.565,-7.241 -12.748,15.317 c -0.816,-0.216 -1.642,-0.378 -2.474,-0.504 -0.752,-0.105 -1.503,-0.172 -2.254,-0.206 l 10.793,-9.793 -6.972,5.025 -5.225,4.74 c 0,0 0,0 0,0 l -2.045,1.857 c 0.411,1.359 -0.058,2.892 -1.272,3.767 -1.066,0.767 -2.432,0.83 -3.534,0.278 l -1.48,1.148 0.261,0.36 c 0.151,0.257 0.232,0.457 0.109,0.745 -0.11,0.157 -0.28,0.261 -0.443,0.353 -0.252,0.075 -0.426,-0.012 -0.622,-0.168 l -0.349,-0.48 -2.516,1.951 -10e-4,-10e-4 -7.413,5.75 c 0,0 -10e-4,-10e-4 -10e-4,-10e-4 l -2.672,2.073 c 0.096,0.193 0.129,0.368 0.03,0.6 -0.11,0.156 -0.28,0.26 -0.443,0.352 -0.252,0.076 -0.426,-0.011 -0.622,-0.167 l -2.62,-3.607 c -0.152,-0.257 -0.233,-0.455 -0.11,-0.745 0.11,-0.155 0.278,-0.259 0.443,-0.352 0.251,-0.075 0.426,0.011 0.623,0.168 l 0.026,0.035 2.921,-1.937 c -0.547,-0.687 -1.128,-1.348 -1.745,-1.977 -3.526,-3.605 -8.513,-5.584 -13.526,-5.587 -3.198,-0.002 -6.128,0.623 -8.989,2.066 -1.301,0.656 -2.495,1.455 -3.609,2.4 -0.2,0.169 -0.779,0.674 -1.418,1.233 z m -55.532,-17.278 -1.269,0.89 0.747,1.53 c -0.59,-0.058 -1.489,-0.105 -2.073,-0.124 0.056,-2.091 1.289,-2.508 2.595,-2.296 z m 0.062,0.003 c 0.801,0.13 1.6,0.495 2.14,0.851 0.965,0.638 1.538,1.427 2.48,2.794 -1.894,-0.657 -3.103,-1 -4.666,-1.182 l 0.046,-2.463 z"
       id="path3342"
       inkscape:connector-curvature="0" />
    <path
       style="fill:#e21c2a;stroke:none"
       d="m 152.011,693.878 17.117,-12.342 c -0.186,-1.173 0.074,-2.689 0.4,-4.234 -0.172,-0.07 -0.344,-0.143 -0.517,-0.219 l -1.516,1.093 c -0.381,0.818 -0.717,1.659 -0.983,2.56 -0.336,-0.403 -0.494,-0.905 -0.522,-1.475 l -16.133,11.632 c -0.996,0.717 1.159,3.703 2.154,2.985 z m 18.425,-13.284 1.901,-1.372 c 0.029,-0.354 0.067,-0.715 0.108,-1.079 -0.387,-0.065 -0.77,-0.147 -1.153,-0.248 -0.314,0.903 -0.612,1.791 -0.856,2.699 z m 71.858,-51.81 76.047,-54.828 -2.164,-2.979 -84.466,60.9 10.583,-3.093 z"
       id="path3344"
       inkscape:connector-curvature="0" />
    <path
       style="fill:#f39b7e;stroke:none"
       d="m 317.031,572.155 -81.255,58.534 -2.776,0.811 83.464,-60.126 0.567,0.781 z m -147.754,106.44 -2.707,1.95 c 0.172,-0.557 0.372,-1.092 0.591,-1.614 l 2.3,-1.657 c 0.023,0.01 0.045,0.019 0.067,0.028 -0.092,0.436 -0.178,0.869 -0.251,1.293 z m -2.839,2.046 -15.589,11.23 -0.564,-0.782 15.764,-11.357 c 0.067,0.337 0.192,0.642 0.389,0.909 z"
       id="path3346"
       inkscape:connector-curvature="0" />
    <path
       style="fill:#88898b;stroke:none"
       d="m 246.144,585.606 1.167,-2.951 -1.104,0.452 -0.063,2.499 z m -24.951,211.548 2.503,-0.604 -0.815,-0.521 -1.688,1.125 z m -33.446,-149.128 1.822,-0.855 -0.706,-0.271 -1.116,1.126 z m -7.284,7.912 1.834,-1.607 -0.912,-0.079 -0.922,1.686 z m 1.875,2.303 2.043,-1.876 -1.04,-0.065 -1.003,1.941 z m 57.512,68.219 -0.058,-2.446 -0.647,0.652 0.705,1.794 z m 1.494,-142.043 0.557,-2.518 -0.827,0.503 0.27,2.015 z m 7.694,-5.254 0.253,-2.567 -0.761,0.599 0.508,1.968 z m 1.751,-7.688 -0.589,-2.511 -0.527,0.812 1.116,1.699 z m 5.903,3.785 -0.589,-2.511 -0.527,0.813 1.116,1.698 z m 4.938,-15.509 -1.148,-2.311 -0.328,0.912 1.476,1.399 z m -1.601,9.051 -0.728,-2.475 -0.481,0.841 1.209,1.634 z m -5.707,12.771 0.281,-3.048 -0.899,0.716 0.618,2.332 z m -9.858,23.477 1.589,-2.915 -1.204,0.328 -0.385,2.587 z m 5.412,-5.179 1.224,-2.272 -0.934,0.259 -0.29,2.013 z m -5.041,1.008 1.224,-2.272 -0.934,0.259 -0.29,2.013 z m -4.73,0.775 1.224,-2.271 -0.934,0.259 -0.29,2.012 z m -56.355,49.69 1.834,-1.606 -0.913,-0.079 -0.921,1.685 z m 76.107,21.643 1.993,-5.353 -1.969,0.853 -0.024,4.5 z m 13.457,-8.271 1.295,-3.482 -1.28,0.555 -0.015,2.927 z m -3.466,3.712 1.477,-3.97 -1.46,0.632 -0.017,3.338 z m -57.644,-12.94 2.436,-0.459 -0.778,-0.416 -1.658,0.875 z m 29.94,-18.114 2.463,-0.768 -0.849,-0.468 -1.614,1.236 z m -24.176,21.595 2.462,-0.768 -0.849,-0.468 -1.613,1.236 z m 12.341,0.79 2.463,-0.769 -0.85,-0.467 -1.613,1.236 z m -20.663,-13.532 2.437,-0.46 -0.778,-0.414 -1.659,0.874 z m 28.762,-2.959 2.463,-0.769 -0.849,-0.467 -1.614,1.236 z m 4.988,4.905 2.463,-0.768 -0.85,-0.468 -1.613,1.236 z m -8.84,1.325 2.463,-0.769 -0.85,-0.467 -1.613,1.236 z m -4.323,-4.95 2.463,-0.769 -0.849,-0.467 -1.614,1.236 z m -7.673,-0.356 2.462,-0.768 -0.849,-0.467 -1.613,1.235 z m -17.842,6.854 2.436,-0.459 -0.777,-0.416 -1.659,0.875 z m 14.326,0.57 2.463,-0.768 -0.849,-0.467 -1.614,1.235 z m 8.569,1.902 2.463,-0.768 -0.849,-0.467 -1.614,1.235 z m -13.478,-12.769 2.463,-0.769 -0.85,-0.467 -1.613,1.236 z m 25.646,13.943 2.463,-0.768 -0.85,-0.468 -1.613,1.236 z m -5.821,-17.746 2.463,-0.768 -0.849,-0.468 -1.614,1.236 z m -7.394,1.878 2.462,-0.768 -0.849,-0.467 -1.613,1.235 z m 20.093,18.074 2.463,-0.768 -0.849,-0.468 -1.614,1.236 z m 22.885,-57.323 2.15,-1.427 -0.946,-0.212 -1.204,1.639 z m -15.504,5.767 2.638,-3.617 -1.666,0.226 -0.972,3.391 z m -13,2.781 2.027,-3.721 -1.535,0.419 -0.492,3.302 z m -2.408,-0.793 1.833,-3.82 -1.511,0.497 -0.322,3.323 z m 3.195,-4.063 1.589,-2.916 -1.203,0.328 -0.386,2.588 z m 9.386,0.922 2.267,-3.58 -1.56,0.317 -0.707,3.263 z m 18.45,-9.037 2.15,-1.427 -0.946,-0.211 -1.204,1.638 z m 5.161,-3.87 2.334,-1.1 -0.906,-0.347 -1.428,1.447 z m -13.221,5.3 1.624,-2.005 -0.965,0.082 -0.659,1.923 z m 12.098,-0.941 2.334,-1.1 -0.905,-0.347 -1.429,1.447 z m -7.446,-0.696 2.149,-1.427 -0.945,-0.212 -1.204,1.639 z m -18.847,9.814 2.266,-3.58 -1.559,0.317 -0.707,3.263 z m -1.776,5.234 2.266,-3.58 -1.559,0.317 -0.707,3.263 z m 13.315,-9.608 1.81,-1.839 -0.969,-0.013 -0.841,1.852 z m -1.447,6.087 1.777,-2.805 -1.223,0.248 -0.554,2.557 z m 7.63,-7.636 1.809,-1.838 -0.969,-0.013 -0.84,1.851 z m -0.189,3.798 2.152,-1.424 -0.946,-0.213 -1.206,1.637 z m -10.247,-2.51 1.776,-2.806 -1.222,0.248 -0.554,2.558 z m -14.673,22.468 2.027,-3.721 -1.535,0.419 -0.492,3.302 z m 0.218,-4.861 2.733,-5.016 -2.07,0.565 -0.663,4.451 z m 8.414,-8.946 2.266,-3.58 -1.559,0.317 -0.707,3.263 z m 13.584,-33.93 -0.727,-2.475 -0.482,0.84 1.209,1.635 z m 12.973,-1.647 -1.023,-3.465 -0.672,1.178 1.695,2.287 z m -1.988,15.334 -0.18,-4.867 -1.271,1.315 1.451,3.552 z m -16.803,-4.169 0.758,-2.966 -1.001,0.566 0.243,2.4 z m 12.451,-27.946 -1.148,-2.31 -0.328,0.911 1.476,1.399 z m -4.182,14.54 -0.727,-2.475 -0.482,0.84 1.209,1.635 z m 4.264,18.86 -0.18,-4.867 -1.271,1.315 1.451,3.552 z m -7.771,2.45 0.736,-4.814 -1.495,1.053 0.759,3.761 z m 4.74,-26.55 -0.882,-2.424 -0.428,0.869 1.31,1.555 z m -33.911,105.775 1.106,-2.975 -1.093,0.474 -0.013,2.501 z m 58.89,91.246 -0.028,-2.447 -0.655,0.644 0.683,1.803 z m -7.246,8.232 -0.028,-2.446 -0.656,0.644 0.684,1.802 z m -4.502,-8.344 -0.041,-3.629 -0.972,0.956 1.013,2.673 z m -12.649,0.872 -0.03,-2.647 -0.709,0.696 0.739,1.951 z m 14.414,4.914 0.032,-3.215 -0.879,0.827 0.847,2.388 z m -0.42,-16.267 0.489,-3.136 -0.977,0.684 0.488,2.452 z m -3.634,-29.322 1.449,-3.753 -1.394,0.584 -0.055,3.169 z m 8.608,-0.059 0.929,-2.407 -0.894,0.373 -0.035,2.034 z m -1.691,-9.24 0.93,-2.407 -0.894,0.374 -0.036,2.033 z m -1.218,-134.107 -0.459,-2.539 -0.568,0.785 1.027,1.754 z m -9.509,-11.733 -0.921,-2.409 -0.414,0.876 1.335,1.533 z m 3.512,17.033 -0.502,-4.207 -1.009,1.23 1.511,2.977 z m -12.339,-5.23 -0.329,-3.043 -0.738,0.881 1.067,2.162 z m 2.582,-2.521 -0.386,-3.569 -0.866,1.033 1.252,2.536 z m 3.686,-13.191 -0.921,-2.41 -0.413,0.877 1.334,1.533 z m -13.301,26.113 1.047,-4.106 -1.384,0.784 0.337,3.322 z m -3.55,-0.209 1.06,-3.454 -1.212,0.611 0.152,2.843 z m -1.895,-3.529 0.757,-2.966 -1.001,0.566 0.244,2.4 z m 8.614,-5.627 -0.113,-3.059 -0.798,0.826 0.911,2.233 z m -22.827,9.171 1.115,-2.326 -0.92,0.303 -0.195,2.023 z m 29.34,-28.745 -0.922,-2.41 -0.413,0.876 1.335,1.534 z m 6.582,0.89 -1.147,-2.31 -0.328,0.911 1.475,1.399 z m 3.631,6.714 -0.845,-2.437 -0.441,0.863 1.286,1.574 z m 2.759,5.378 -0.719,-2.478 -0.484,0.839 1.203,1.639 z m -10.54,-2.885 -0.825,-3.517 -0.738,1.138 1.563,2.379 z m 8.282,7.368 -0.81,-4.158 -0.916,1.301 1.726,2.857 z m 2.433,5.047 -0.342,-4.223 -1.054,1.192 1.396,3.031 z m -8.057,-6.988 -0.825,-3.517 -0.738,1.138 1.563,2.379 z m -2.587,6.737 -0.579,-4.835 -1.159,1.415 1.738,3.42 z m -3.953,9.532 0.211,-4.865 -1.372,1.209 1.161,3.656 z m -0.279,-6.845 -0.18,-4.867 -1.272,1.315 1.452,3.552 z m -3.831,0.839 0.212,-4.866 -1.373,1.209 1.161,3.657 z m -13.687,3.13 1.328,-3.361 -1.255,0.514 -0.073,2.847 z m 0.01,5.7 1.558,-3.941 -1.473,0.602 -0.085,3.339 z m -3.324,-0.825 1.166,-2.951 -1.103,0.452 -0.063,2.499 z m -1.567,-3.81 1.166,-2.951 -1.103,0.452 -0.063,2.499 z m -3.113,3.736 1.166,-2.951 -1.103,0.451 -0.063,2.5 z m 13.712,0.59 1.048,-4.107 -1.385,0.784 0.337,3.323 z m 3.915,-0.239 1.181,-4.625 -1.56,0.883 0.379,3.742 z m 16.386,-12.743 -0.705,-4.178 -0.948,1.278 1.653,2.9 z m -22.684,9.944 0.894,-3.501 -1.181,0.668 0.287,2.833 z m 5.305,81.152 1.477,-3.972 -1.46,0.633 -0.017,3.339 z m -8.474,-0.631 1.477,-3.971 -1.46,0.633 -0.017,3.338 z m -8.243,-0.513 1.477,-3.971 -1.46,0.632 -0.017,3.339 z m -4.388,0.366 1.477,-3.971 -1.46,0.632 -0.017,3.339 z m -41.977,-27.514 3.214,-0.562 -1.017,-0.56 -2.197,1.122 z m -3.141,4.15 3.598,-1.169 -1.253,-0.671 -2.345,1.84 z m 0.809,4.619 3.598,-1.17 -1.252,-0.67 -2.346,1.84 z m 52.954,18.207 1.478,-3.972 -1.461,0.634 -0.017,3.338 z m 8.663,-0.325 1.477,-3.972 -1.46,0.634 -0.017,3.338 z m 13.341,49.841 1.526,-3.952 -1.468,0.614 -0.058,3.338 z m 15.598,-10.417 0.93,-2.407 -0.894,0.374 -0.036,2.033 z m -30.145,-14.372 0.897,-4.14 -1.354,0.834 0.457,3.306 z m 6.955,0.298 0.897,-4.141 -1.354,0.834 0.457,3.307 z m -21.083,83.981 0.479,-2.399 -0.774,0.494 0.295,1.905 z m -4.232,-103.16 1.477,-3.971 -1.46,0.633 -0.017,3.338 z m 1.323,18.155 1.106,-2.974 -1.094,0.474 -0.012,2.5 z m 5.034,-3.645 1.992,-5.353 -1.969,0.853 -0.023,4.5 z m 19.991,-9.994 1.477,-3.971 -1.46,0.632 -0.017,3.339 z m -2.027,21.158 0.401,-3.205 -0.973,0.726 0.572,2.479 z m -4.37,3.786 0.401,-3.204 -0.973,0.725 0.572,2.479 z m 5.369,2.149 0.401,-3.205 -0.973,0.726 0.572,2.479 z m -72.992,-55.297 2.917,-1.957 -1.289,-0.281 -1.628,2.238 z m -1.131,6.629 1.483,-1.361 -0.754,-0.048 -0.729,1.409 z m 7.544,-3.707 1.822,-0.855 -0.706,-0.271 -1.116,1.126 z m -4.443,-0.017 2.376,-1.43 -1.006,-0.272 -1.37,1.702 z m -8.105,4.592 2.043,-1.875 -1.04,-0.066 -1.003,1.941 z m -2.019,-2.266 1.897,-1.741 -0.965,-0.061 -0.932,1.802 z m 24.424,-13.561 2.473,-0.736 -0.843,-0.479 -1.63,1.215 z m 50.699,-32.219 1.225,-2.271 -0.935,0.259 -0.29,2.012 z m 8.384,-6.228 1.668,-1.967 -0.967,0.059 -0.701,1.908 z m -4.313,3.969 1.225,-2.271 -0.934,0.258 -0.291,2.013 z m 4.656,-7.813 2.319,-2.377 -1.247,-0.01 -1.072,2.387 z m -24.4,21.187 1.834,-3.819 -1.511,0.496 -0.323,3.323 z m 0.571,-5.353 1.834,-3.819 -1.511,0.496 -0.323,3.323 z m 6.925,-2.823 2.362,-5.201 -2.023,0.713 -0.339,4.488 z m -1.812,-5.233 2.733,-5.015 -2.069,0.564 -0.664,4.451 z m 3.316,8.044 1.752,-3.857 -1.501,0.528 -0.251,3.329 z m 3.888,-3.319 1.753,-3.857 -1.501,0.528 -0.252,3.329 z m 4.789,-5.999 1.776,-2.805 -1.222,0.248 -0.554,2.557 z m -6.625,3.845 1.752,-3.857 -1.5,0.528 -0.252,3.329 z m 3.247,-3.363 2.395,-3.781 -1.647,0.334 -0.748,3.447 z m -12.855,2.827 1.834,-3.82 -1.511,0.497 -0.323,3.323 z m 39.35,47.355 1.212,-3.259 -1.198,0.518 -0.014,2.741 z m -3.244,8.365 1.213,-3.259 -1.198,0.519 -0.015,2.74 z m -3.044,6.184 1.477,-3.971 -1.46,0.633 -0.017,3.338 z m -1.066,8.23 1.477,-3.972 -1.461,0.634 -0.016,3.338 z m -2.79,-3.635 1.477,-3.971 -1.46,0.633 -0.017,3.338 z m -8.046,-2.343 1.477,-3.971 -1.46,0.633 -0.017,3.338 z m 5.061,-6.118 1.301,-3.499 -1.286,0.558 -0.015,2.941 z m 6.433,62.783 2.058,-5.328 -1.979,0.829 -0.079,4.499 z m 3.807,34.912 -0.041,-3.628 -0.972,0.955 1.013,2.673 z m -2.818,0.835 -0.041,-3.628 -0.972,0.955 1.013,2.673 z m 0.626,-4.383 -0.041,-3.628 -0.972,0.955 1.013,2.673 z m -3.235,0.939 -0.041,-3.628 -0.972,0.955 1.013,2.673 z m 0.522,-4.279 -0.041,-3.628 -0.972,0.955 1.013,2.673 z m 5.381,0.637 -0.042,-3.628 -0.972,0.955 1.014,2.673 z m -5.154,-6.328 0.347,-4.222 -1.234,1.004 0.887,3.218 z m -3.235,1.253 0.346,-4.223 -1.233,1.005 0.887,3.218 z m 8.244,-18.12 1.525,-3.953 -1.467,0.615 -0.058,3.338 z m -10.929,9.903 0.677,-4.182 -1.309,0.904 0.632,3.278 z m -3.131,-1.983 0.677,-4.182 -1.309,0.904 0.632,3.278 z m -3.164,-2.212 1.143,-2.961 -1.099,0.461 -0.044,2.5 z m -0.104,-5.427 1.143,-2.96 -1.1,0.46 -0.043,2.5 z m 6.511,-8.147 2.058,-5.328 -1.979,0.828 -0.079,4.5 z m 1.043,4.279 2.058,-5.328 -1.978,0.828 -0.08,4.5 z m -2.667,9.013 1.526,-3.953 -1.468,0.615 -0.058,3.338 z m 3.294,0.901 2.057,-5.328 -1.978,0.829 -0.079,4.499 z m -1.253,-3.966 2.058,-5.328 -1.979,0.829 -0.079,4.499 z m 2.923,-3.965 2.057,-5.328 -1.978,0.828 -0.079,4.5 z m 1.043,-6.889 2.058,-5.327 -1.979,0.828 -0.079,4.499 z m -6.757,2.719 1.527,-3.954 -1.467,0.615 -0.06,3.339 z m -23.281,-33.906 1.477,-3.97 -1.459,0.632 -0.018,3.338 z m 17.389,-14.38 1.477,-3.971 -1.46,0.633 -0.017,3.338 z m -2.519,-8.233 1.992,-5.354 -1.968,0.854 -0.024,4.5 z m -3.346,4.09 1.991,-5.353 -1.968,0.853 -0.023,4.5 z m -3.381,-0.724 1.992,-5.353 -1.968,0.853 -0.024,4.5 z m -10.902,4.894 1.477,-3.972 -1.46,0.633 -0.017,3.339 z m 16.833,4.703 1.477,-3.971 -1.46,0.633 -0.017,3.338 z m -4.047,2.097 1.477,-3.971 -1.46,0.633 -0.017,3.338 z m 18.878,-17.897 1.477,-3.971 -1.46,0.633 -0.017,3.338 z m -3.919,1.81 1.477,-3.972 -1.46,0.634 -0.017,3.338 z m -29.933,16.646 1.106,-2.974 -1.093,0.474 -0.013,2.5 z m -2.94,-2.92 1.106,-2.975 -1.094,0.475 -0.012,2.5 z m 14.349,6.412 1.765,-4.741 -1.743,0.756 -0.022,3.985 z m 1.089,-9.869 1.992,-5.353 -1.968,0.853 -0.024,4.5 z m -3.807,0.753 1.992,-5.353 -1.968,0.853 -0.024,4.5 z m -2.873,-2.137 1.992,-5.353 -1.969,0.853 -0.023,4.5 z m 3.321,-4.527 1.992,-5.353 -1.969,0.853 -0.023,4.5 z m -4.8,0.625 1.992,-5.352 -1.968,0.853 -0.024,4.499 z m 8.018,51.244 -0.838,-2.299 -0.405,0.825 1.243,1.474 z m 5.709,1.757 -0.838,-2.299 -0.404,0.825 1.242,1.474 z m 2.807,-6.913 -0.058,-2.446 -0.647,0.652 0.705,1.794 z m -11.069,-5.356 -0.058,-2.446 -0.648,0.652 0.706,1.794 z m -12.362,-24.124 0.681,-3.143 -1.028,0.634 0.347,2.509 z m 36.576,6.274 0.637,-2.942 -0.962,0.593 0.325,2.349 z m -20.404,16.926 0.401,-3.204 -0.973,0.725 0.572,2.479 z m 16.563,-9.42 0.401,-3.204 -0.972,0.725 0.571,2.479 z m -5.183,7.043 0.401,-3.204 -0.973,0.726 0.572,2.478 z m -5.38,1.839 0.401,-3.205 -0.973,0.726 0.572,2.479 z m -3.723,7.565 -0.314,-3.214 -0.789,0.922 1.103,2.292 z m -3.95,-11.572 0.401,-3.205 -0.972,0.726 0.571,2.479 z m 8.724,-4.365 0.401,-3.204 -0.973,0.726 0.572,2.478 z m -4.169,3.725 0.401,-3.204 -0.972,0.726 0.571,2.478 z m 19.852,-5.514 0.638,-2.942 -0.963,0.593 0.325,2.349 z m -7.384,-5.568 0.637,-2.941 -0.962,0.592 0.325,2.349 z m 0.135,-5.845 0.897,-4.141 -1.355,0.834 0.458,3.307 z m 0.915,-6.633 1.277,-3.43 -1.262,0.547 -0.015,2.883 z m -7.386,-0.915 1.478,-3.972 -1.46,0.633 -0.018,3.339 z m 8.64,-6.166 1.106,-2.975 -1.094,0.475 -0.012,2.5 z m -4.62,3.936 1.477,-3.971 -1.46,0.633 -0.017,3.338 z m 3.269,-7.258 1.477,-3.972 -1.46,0.634 -0.017,3.338 z m 15.342,-9.982 0.899,-2.417 -0.889,0.385 -0.01,2.032 z m -23.58,8.413 1.991,-5.354 -1.968,0.854 -0.023,4.5 z m 26.905,8.282 0.899,-2.418 -0.889,0.385 -0.01,2.033 z m 1.817,-8.638 0.9,-2.418 -0.889,0.386 -0.011,2.032 z m -4.771,22.054 0.9,-2.418 -0.889,0.385 -0.011,2.033 z m -41.025,9.624 0.4,-3.204 -0.972,0.725 0.572,2.479 z m 37.193,-25.754 0.899,-2.418 -0.888,0.384 -0.011,2.034 z m 0.553,7.74 0.899,-2.418 -0.889,0.385 -0.01,2.033 z m -8.379,-4.18 0.9,-2.418 -0.889,0.385 -0.011,2.033 z m 4.824,11.56 0.9,-2.418 -0.889,0.385 -0.011,2.033 z m -3.981,-4.971 0.9,-2.417 -0.889,0.385 -0.011,2.032 z m -35.461,-7.865 1.477,-3.97 -1.46,0.632 -0.017,3.338 z m 11.283,38.788 -0.058,-2.446 -0.647,0.652 0.705,1.794 z m -11.528,-24.6 0.68,-3.142 -1.028,0.633 0.348,2.509 z m 2.971,-1.85 0.68,-3.143 -1.027,0.633 0.347,2.51 z m 1.133,5.732 0.68,-3.142 -1.028,0.632 0.348,2.51 z m -3.527,3.25 0.658,-2.565 -0.866,0.489 0.208,2.076 z m 2.288,6.537 -0.063,-2.646 -0.701,0.705 0.764,1.941 z m 3.745,4.87 -0.062,-2.646 -0.701,0.705 0.763,1.941 z m 2.028,-4.588 -0.062,-2.647 -0.701,0.706 0.763,1.941 z m -0.014,-7.463 0.401,-3.204 -0.973,0.725 0.572,2.479 z m 5.898,2.586 0.943,-3.088 -1.082,0.548 0.139,2.54 z m -3.901,-20.316 1.477,-3.971 -1.46,0.633 -0.017,3.338 z m -3.298,12.756 0.897,-4.14 -1.354,0.833 0.457,3.307 z m 5.475,3.715 0.765,-4.167 -1.327,0.876 0.562,3.291 z m 4.47,-3.299 0.897,-4.141 -1.354,0.835 0.457,3.306 z m 4.077,-4.394 0.897,-4.141 -1.355,0.833 0.458,3.308 z m -6.686,0.541 0.897,-4.141 -1.355,0.834 0.458,3.307 z m -3.979,1.559 0.898,-4.141 -1.355,0.834 0.457,3.307 z m -2.206,-5.528 1.476,-3.971 -1.459,0.633 -0.017,3.338 z m -10.523,-13.16 1.106,-2.975 -1.094,0.475 -0.012,2.5 z m 40.886,7.031 0.9,-2.418 -0.889,0.385 -0.011,2.033 z m -34.608,-14.088 1.477,-3.971 -1.46,0.633 -0.017,3.338 z m -2.415,5.699 1.477,-3.972 -1.46,0.633 -0.017,3.339 z m 18.24,2.404 1.477,-3.972 -1.461,0.632 -0.016,3.34 z m -3.25,2.235 1.478,-3.972 -1.46,0.634 -0.018,3.338 z m -2.878,2.802 1.477,-3.971 -1.459,0.633 -0.018,3.338 z m -10.031,0.359 1.478,-3.972 -1.461,0.633 -0.017,3.339 z m 0.552,4.707 1.477,-3.971 -1.459,0.633 -0.018,3.338 z m 37.788,-17.168 0.9,-2.418 -0.889,0.386 -0.011,2.032 z m -29.595,-0.899 1.991,-5.353 -1.968,0.853 -0.023,4.5 z m 4.455,-0.694 1.991,-5.354 -1.967,0.854 -0.024,4.5 z m -8.766,1.796 1.992,-5.354 -1.968,0.854 -0.024,4.5 z m 38.141,-12.05 0.9,-2.417 -0.889,0.384 -0.011,2.033 z m -36.494,48.076 0.401,-3.204 -0.973,0.725 0.572,2.479 z m 48.088,77.194 -0.028,-2.446 -0.655,0.644 0.683,1.802 z m -4.791,-1.142 -0.028,-2.446 -0.656,0.644 0.684,1.802 z m 8.024,-2.887 -0.028,-2.447 -0.655,0.644 0.683,1.803 z m -29.366,-24.978 0.441,-3.2 -0.982,0.713 0.541,2.487 z m 22.752,-3.97 0.929,-2.406 -0.893,0.374 -0.036,2.032 z m -1.229,8.619 -0.028,-2.446 -0.655,0.644 0.683,1.802 z m -12.225,8.056 -0.041,-3.629 -0.972,0.956 1.013,2.673 z m 9.613,1.158 -0.028,-2.447 -0.655,0.644 0.683,1.803 z m -6.345,-47.345 1.449,-3.753 -1.394,0.583 -0.055,3.17 z m 5.901,34.808 0.72,-3.134 -1.036,0.62 0.316,2.514 z m 2.826,-11.234 0.418,-2.68 -0.835,0.584 0.417,2.096 z m -3.203,5.679 0.489,-3.135 -0.977,0.683 0.488,2.452 z m 9.836,19.039 -0.027,-2.447 -0.656,0.644 0.683,1.803 z m -2.996,-7.514 -0.028,-2.447 -0.655,0.644 0.683,1.803 z m -5.228,-29.439 0.929,-2.407 -0.894,0.374 -0.035,2.033 z m 4.834,10.634 0.929,-2.406 -0.894,0.374 -0.035,2.032 z m -5.764,-3.915 0.929,-2.406 -0.894,0.373 -0.035,2.033 z m -13.941,-28.051 1.344,-3.483 -1.293,0.542 -0.051,2.941 z m -9.667,25.071 1.526,-3.952 -1.468,0.614 -0.058,3.338 z m 20.298,-2.624 0.93,-2.406 -0.895,0.374 -0.035,2.032 z m 2,45.055 -0.028,-2.447 -0.655,0.644 0.683,1.803 z m 7.811,-2.431 -0.028,-2.446 -0.656,0.644 0.684,1.802 z m -2.904,-7.808 -0.027,-2.446 -0.656,0.644 0.683,1.802 z m -15.896,1.384 -0.027,-2.446 -0.656,0.643 0.683,1.803 z m 6.273,5.079 -0.028,-2.446 -0.656,0.643 0.684,1.803 z m 0.15,-4.833 -0.028,-2.447 -0.656,0.644 0.684,1.803 z m -18.46,-26.499 0.72,-3.134 -1.036,0.62 0.316,2.514 z m 2.736,2.295 0.72,-3.134 -1.036,0.62 0.316,2.514 z m 2.249,3.932 0.347,-4.222 -1.234,1.004 0.887,3.218 z m -3.673,0.791 0.689,-2.556 -0.871,0.478 0.182,2.078 z m 2.947,7.323 -0.03,-2.647 -0.71,0.696 0.74,1.951 z m 2.62,3.576 -0.03,-2.647 -0.709,0.696 0.739,1.951 z m 3.383,2.169 -0.029,-2.648 -0.71,0.697 0.739,1.951 z m 9.274,-13.968 0.489,-3.135 -0.977,0.684 0.488,2.451 z m -9.254,-15.584 1.526,-3.953 -1.468,0.616 -0.058,3.337 z m -3,11.018 0.949,-4.13 -1.365,0.818 0.416,3.312 z m 5.512,8.209 0.817,-4.157 -1.338,0.86 0.521,3.297 z m 4.621,-8.052 0.948,-4.129 -1.365,0.817 0.417,3.312 z m 2.3,-4.763 0.947,-4.129 -1.364,0.817 0.417,3.312 z m -4.959,2.095 0.948,-4.13 -1.365,0.818 0.417,3.312 z m -4.013,1.249 0.948,-4.13 -1.365,0.818 0.417,3.312 z m -1.214,-4.816 1.525,-3.953 -1.467,0.615 -0.058,3.338 z m 13.96,-19.827 0.929,-2.406 -0.893,0.373 -0.036,2.033 z m 3.472,2.069 0.929,-2.406 -0.893,0.373 -0.036,2.033 z m 1.694,4.855 0.929,-2.406 -0.893,0.374 -0.036,2.032 z m -5.186,1.102 0.93,-2.406 -0.893,0.374 -0.037,2.032 z m -1.49,9.325 0.928,-2.406 -0.893,0.374 -0.035,2.032 z m 6.96,-2.561 0.93,-2.406 -0.894,0.374 -0.036,2.032 z m -24.605,-18.488 0.929,-2.407 -0.894,0.375 -0.035,2.032 z m -0.246,4.486 1.526,-3.952 -1.468,0.615 -0.058,3.337 z m -2.987,4.679 1.527,-3.953 -1.468,0.614 -0.059,3.339 z m 13.977,-3.1 1.527,-3.953 -1.468,0.615 -0.059,3.338 z m 4.534,2.551 1.527,-3.954 -1.468,0.615 -0.059,3.339 z m -0.337,5.94 1.318,-3.414 -1.268,0.531 -0.05,2.883 z m -6.685,7.812 1.822,-4.719 -1.752,0.734 -0.07,3.985 z m 3.579,-10.646 1.526,-3.954 -1.467,0.616 -0.059,3.338 z m -2.626,3.81 1.525,-3.953 -1.467,0.615 -0.058,3.338 z m -10.205,0.843 1.526,-3.953 -1.468,0.615 -0.058,3.338 z m -2.617,-0.646 1.526,-3.952 -1.468,0.614 -0.058,3.338 z m 16.18,5.871 1.526,-3.953 -1.468,0.615 -0.058,3.338 z m 4.247,-20.954 1.449,-3.754 -1.394,0.584 -0.055,3.17 z m -7.877,2.48 2.057,-5.328 -1.979,0.829 -0.078,4.499 z m -2.241,-2.254 2.058,-5.328 -1.979,0.829 -0.079,4.499 z m -2.773,3.559 2.057,-5.329 -1.978,0.829 -0.079,4.5 z m 11.425,-10.095 1.448,-3.754 -1.392,0.584 -0.056,3.17 z m 2.254,1.404 0.929,-2.407 -0.894,0.374 -0.035,2.033 z m 9.633,1.892 0.929,-2.406 -0.894,0.374 -0.035,2.032 z m -0.758,-9.54 0.929,-2.406 -0.894,0.374 -0.035,2.032 z m -3.39,5.625 0.929,-2.407 -0.893,0.375 -0.036,2.032 z m -8.649,-4.345 0.929,-2.408 -0.894,0.375 -0.035,2.033 z m -3.085,8.016 2.057,-5.329 -1.978,0.828 -0.079,4.501 z m -1.531,-4.222 1.509,-3.906 -1.45,0.608 -0.059,3.298 z m 13.164,66.357 -0.028,-2.446 -0.656,0.643 0.684,1.803 z m -10.545,-24.087 -0.042,-3.629 -0.972,0.956 1.014,2.673 z m -2.769,-2.909 1.103,-3.457 -1.223,0.6 0.12,2.857 z m 4.987,11.499 -0.041,-3.628 -0.972,0.955 1.013,2.673 z m -0.934,4.784 -0.041,-3.629 -0.972,0.956 1.013,2.673 z m 2.495,3.118 -0.041,-3.629 -0.973,0.955 1.014,2.674 z m 2.176,6.741 -0.033,-2.874 -0.77,0.756 0.803,2.118 z m -85.537,-131 3.214,-0.562 -1.016,-0.56 -2.198,1.122 z m 1.821,4.676 2.443,-0.427 -0.773,-0.425 -1.67,0.852 z m 92.743,32.269 0.343,-2.556 -0.781,0.572 0.438,1.984 z m -2.882,-17.534 0.344,-2.556 -0.782,0.571 0.438,1.985 z m -0.833,29.657 0.344,-2.558 -0.782,0.572 0.438,1.986 z m -62.388,40.594 1.332,-3.36 -1.257,0.514 -0.075,2.846 z m 8.204,11.579 0.692,-4.18 -1.311,0.899 0.619,3.281 z m -5.205,-0.568 2.106,-5.31 -1.986,0.811 -0.12,4.499 z m 2.592,-12.872 2.107,-5.31 -1.987,0.81 -0.12,4.5 z m -2.665,6.963 2.105,-5.31 -1.986,0.811 -0.119,4.499 z m 3.147,3.998 2.106,-5.31 -1.987,0.811 -0.119,4.499 z m -0.058,-5.426 2.106,-5.31 -1.986,0.811 -0.12,4.499 z m 4.965,7.935 0.692,-4.181 -1.312,0.899 0.62,3.282 z m 2.677,-4.047 1.562,-3.939 -1.473,0.601 -0.089,3.338 z m -1.394,-3.437 2.106,-5.31 -1.987,0.812 -0.119,4.498 z m -11.796,1.584 1.332,-3.36 -1.257,0.514 -0.075,2.846 z m 2.511,-6.849 1.332,-3.36 -1.257,0.513 -0.075,2.847 z m -0.004,-3.783 1.332,-3.36 -1.257,0.513 -0.075,2.847 z m -1.807,16.181 0.682,-3.564 -1.143,0.742 0.461,2.822 z m 2.092,3.833 0.682,-3.564 -1.143,0.742 0.461,2.822 z m -0.203,19.34 0.399,-2.413 -0.758,0.519 0.359,1.894 z m 4.658,-11.963 0.399,-2.413 -0.758,0.519 0.359,1.894 z m 1.62,-1.937 0.683,-3.564 -1.144,0.742 0.461,2.822 z m -0.434,-4.59 0.682,-3.564 -1.143,0.742 0.461,2.822 z m -7.491,4.576 0.433,-2.612 -0.82,0.562 0.387,2.05 z m 2.314,1.577 0.525,-2.288 -0.756,0.453 0.231,1.835 z m 3.752,5.399 0.4,-2.413 -0.758,0.519 0.358,1.894 z m 5.87,-13.67 0.691,-4.181 -1.311,0.9 0.62,3.281 z m -4.135,-7.486 1.562,-3.939 -1.473,0.601 -0.089,3.338 z m 0.353,-4.831 2.105,-5.31 -1.986,0.811 -0.119,4.499 z m -3.577,-9.903 1.332,-3.359 -1.257,0.513 -0.075,2.846 z m 2.711,44.372 0.4,-2.413 -0.758,0.519 0.358,1.894 z m 3.757,-12.887 0.525,-2.287 -0.756,0.452 0.231,1.835 z m -13.907,-16.344 0.526,-2.287 -0.756,0.452 0.23,1.835 z m 2.748,19.417 0.526,-2.287 -0.756,0.452 0.23,1.835 z m -0.973,-9.859 0.525,-2.287 -0.756,0.453 0.231,1.834 z m 21.601,-1.979 0.4,-2.414 -0.758,0.519 0.358,1.895 z m -18.112,3.492 0.525,-2.288 -0.756,0.452 0.231,1.836 z m 2.183,-3.287 0.683,-3.563 -1.143,0.742 0.46,2.821 z m 9.718,0.867 1.182,-3.619 -1.288,0.621 0.106,2.998 z m 2.791,8.91 0.593,-3.16 -1.01,0.661 0.417,2.499 z m 0.225,-6.817 0.399,-2.414 -0.758,0.52 0.359,1.894 z m -3.983,9.68 0.4,-2.414 -0.758,0.52 0.358,1.894 z m 6.855,0.712 0.4,-2.413 -0.758,0.519 0.358,1.894 z m 1.027,-7.547 0.4,-2.414 -0.758,0.519 0.358,1.895 z m -4.874,17.907 0.137,-2.442 -0.697,0.598 0.56,1.844 z m 3.828,-3.424 0.399,-2.414 -0.757,0.52 0.358,1.894 z m -3.545,-3.712 0.4,-2.414 -0.758,0.52 0.358,1.894 z m -12.845,-0.471 0.4,-2.414 -0.758,0.52 0.358,1.894 z m 0.027,-5.859 0.399,-2.414 -0.758,0.52 0.359,1.894 z m 10.269,-3.462 0.593,-3.16 -1.01,0.661 0.417,2.499 z m -17.689,-8.661 0.433,-2.611 -0.82,0.562 0.387,2.049 z m 0.685,6.833 0.433,-2.611 -0.82,0.562 0.387,2.049 z m 15.767,14.821 0.399,-2.413 -0.757,0.519 0.358,1.894 z m -2.079,-15.424 0.692,-4.18 -1.312,0.899 0.62,3.281 z m -5.556,0.509 0.593,-3.58 -1.123,0.772 0.53,2.808 z m 3.359,5.666 0.593,-3.58 -1.124,0.77 0.531,2.81 z m 0.946,5.432 0.469,-2.835 -0.89,0.61 0.421,2.225 z m 7.594,-18.21 1.015,-2.561 -0.958,0.391 -0.057,2.17 z m 5.172,-2.877 1.224,-3.087 -1.155,0.471 -0.069,2.616 z m -6.859,-0.022 1.562,-3.939 -1.473,0.601 -0.089,3.338 z m 3.235,-2.214 1.561,-3.938 -1.473,0.601 -0.088,3.337 z m -9.094,-13.154 1.562,-3.938 -1.474,0.601 -0.088,3.337 z m 2.116,2.997 1.562,-3.939 -1.474,0.602 -0.088,3.337 z m 2.108,3.603 1.562,-3.938 -1.473,0.6 -0.089,3.338 z m 1.906,3.085 1.562,-3.939 -1.474,0.601 -0.088,3.338 z m -9.702,-16.341 1.332,-3.36 -1.257,0.513 -0.075,2.847 z m 1.116,10.728 1.796,-4.529 -1.694,0.691 -0.102,3.838 z m 0.557,-6.1 1.797,-4.529 -1.694,0.692 -0.103,3.837 z m 15.688,-101.864 2.092,-2.386 -1.19,0.054 -0.902,2.332 z m 40.316,-20.121 2.653,-3.026 -1.508,0.069 -1.145,2.957 z m -3.668,-1.875 3.767,-4.295 -2.143,0.097 -1.624,4.198 z m -28.482,44.829 2.08,-1.527 -0.955,-0.166 -1.125,1.693 z m 8.413,-1.453 1.535,-2.075 -0.961,0.125 -0.574,1.95 z m 15.578,-16.077 2.52,-3.407 -1.578,0.204 -0.942,3.203 z m -6.081,4.945 2.52,-3.407 -1.578,0.204 -0.942,3.203 z m -4.55,-1.286 2.519,-3.406 -1.577,0.203 -0.942,3.203 z m 11.835,-15.617 2.52,-3.406 -1.578,0.203 -0.942,3.203 z m -10.883,22.044 1.534,-2.074 -0.961,0.124 -0.573,1.95 z m 13.388,-20.063 1.535,-2.074 -0.962,0.124 -0.573,1.95 z m 6.521,-10.707 1.534,-2.074 -0.961,0.124 -0.573,1.95 z m -1.361,6.836 1.535,-2.074 -0.962,0.124 -0.573,1.95 z m -4.235,8.291 1.535,-2.074 -0.962,0.124 -0.573,1.95 z m -11.502,22.569 1.535,-2.075 -0.961,0.124 -0.574,1.951 z m 14.192,-50.564 1.701,-1.94 -0.968,0.044 -0.733,1.896 z m -8.535,42.847 1.534,-2.075 -0.961,0.124 -0.573,1.951 z m -14.413,-0.202 3.087,-2.901 -1.588,-0.082 -1.499,2.983 z m 6.336,-11.882 3.766,-4.294 -2.143,0.097 -1.623,4.197 z m -23.093,2.363 2.46,-0.778 -0.85,-0.465 -1.61,1.243 z m 10.095,10.983 2.499,-0.641 -0.824,-0.511 -1.675,1.152 z m -6.93,3.572 2.499,-0.641 -0.824,-0.51 -1.675,1.151 z m -5.994,-9.673 3.504,-0.868 -1.146,-0.723 -2.358,1.591 z m 10.58,-4.854 2.794,-3.186 -1.59,0.072 -1.204,3.114 z m -3.517,4.186 4.113,-1.019 -1.346,-0.849 -2.767,1.868 z m 12.359,-14.897 3.335,-3.802 -1.897,0.085 -1.438,3.717 z m 7.079,-12.25 2.472,-2.819 -1.407,0.063 -1.065,2.756 z m 3.635,20.971 2.52,-3.407 -1.578,0.204 -0.942,3.203 z m 3.685,-3.251 2.52,-3.407 -1.578,0.204 -0.942,3.203 z m 6.883,-12.028 2.52,-3.407 -1.578,0.204 -0.942,3.203 z m -25.409,18.974 3.765,-4.293 -2.143,0.096 -1.622,4.197 z m -7.376,-5.468 2.473,-2.82 -1.407,0.064 -1.066,2.756 z m 3.004,9.915 4.113,-1.019 -1.346,-0.849 -2.767,1.868 z m -6.351,2.916 3.233,-0.764 -1.048,-0.677 -2.185,1.441 z m 13.631,-4.735 4.548,-3.456 -2.119,-0.333 -2.429,3.789 z m 2.377,-5.17 3.766,-4.294 -2.143,0.097 -1.623,4.197 z m 16.698,-29.984 2.653,-3.025 -1.509,0.068 -1.144,2.957 z m 0.788,9.735 3.766,-4.295 -2.143,0.097 -1.623,4.198 z m 6.413,14.499 1.535,-2.074 -0.962,0.124 -0.573,1.95 z m -25.556,1.676 3.766,-4.294 -2.143,0.097 -1.623,4.197 z m 5.052,-5.674 3.766,-4.294 -2.142,0.096 -1.624,4.198 z m 6.486,2.488 3.766,-4.294 -2.143,0.097 -1.623,4.197 z m -5.135,2.257 3.766,-4.294 -2.143,0.097 -1.623,4.197 z m 3.642,-5.666 3.766,-4.294 -2.143,0.097 -1.623,4.197 z m 3.131,-13.532 3.04,-3.466 -1.73,0.078 -1.31,3.388 z m 7.13,27.683 1.534,-2.074 -0.961,0.124 -0.573,1.95 z m -14.903,-19.394 3.335,-3.802 -1.897,0.086 -1.438,3.716 z m 11.479,-9.275 2.653,-3.026 -1.508,0.069 -1.145,2.957 z m -25.546,16.305 2.092,-2.385 -1.19,0.053 -0.902,2.332 z m 10.373,-8.174 2.473,-2.82 -1.408,0.064 -1.065,2.756 z m -4.686,5.382 2.474,-2.82 -1.407,0.064 -1.067,2.756 z m -1.952,6.071 2.793,-3.185 -1.59,0.072 -1.203,3.113 z m 15.037,-9.328 3.766,-4.294 -2.142,0.097 -1.624,4.197 z m -0.886,-3.409 3.334,-3.802 -1.897,0.086 -1.437,3.716 z m 5.566,3.98 3.766,-4.294 -2.143,0.097 -1.623,4.197 z m -0.42,-5.121 3.767,-4.295 -2.143,0.097 -1.624,4.198 z m -72.592,-22.189 0.645,1.906 0.349,-0.671 -0.994,-1.235 z m 0.961,7.385 0.646,1.907 0.348,-0.671 -0.994,-1.236 z m -4.79,-3.374 0.645,1.907 0.349,-0.671 -0.994,-1.236 z m 21.246,16.076 2.233,1.292 -0.231,-0.941 -2.002,-0.351 z m -11.851,1.967 1.785,1.863 0.04,-0.968 -1.825,-0.895 z m -14.819,-9.27 1.186,2.291 0.312,-0.918 -1.498,-1.373 z m -0.965,-4.487 1.187,2.291 0.312,-0.918 -1.499,-1.373 z m 23.904,26.353 2.897,2.162 -0.168,-1.347 -2.729,-0.815 z m -8.767,-26.622 0.645,1.907 0.349,-0.671 -0.994,-1.236 z m -9.612,0.234 1.187,2.291 0.312,-0.918 -1.499,-1.373 z m 3.252,20.841 3.396,2.535 -0.196,-1.578 -3.2,-0.957 z m -0.694,2.786 3.396,2.534 -0.197,-1.578 -3.199,-0.956 z m 26.1,-7.629 2.233,1.291 -0.231,-0.941 -2.002,-0.35 z m -29.271,-3.146 1.663,1.972 0.102,-0.964 -1.765,-1.008 z m 6.571,1.17 2.767,3.209 0.15,-1.584 -2.917,-1.625 z m 13.731,9.54 2.897,2.162 -0.168,-1.347 -2.729,-0.815 z m 9.962,-2.052 2.233,1.292 -0.231,-0.941 -2.002,-0.351 z m -5.246,-3.676 2.233,1.292 -0.231,-0.941 -2.002,-0.351 z m -2.969,2.731 2.233,1.292 -0.231,-0.942 -2.002,-0.35 z m 3.834,2.747 2.234,1.292 -0.232,-0.942 -2.002,-0.35 z m 3.784,3.629 2.233,1.292 -0.231,-0.942 -2.002,-0.35 z m -4.541,0.337 2.896,2.162 -0.167,-1.347 -2.729,-0.815 z m -17.565,-22.509 1.187,2.29 0.312,-0.917 -1.499,-1.373 z m -4.135,3.713 1.924,3.775 0.522,-1.502 -2.446,-2.273 z m -4.55,-4.922 1.923,3.775 0.523,-1.502 -2.446,-2.273 z m 5.015,1.306 1.187,2.291 0.312,-0.918 -1.499,-1.373 z m 12.803,1.431 1.187,2.29 0.312,-0.917 -1.499,-1.373 z m -8.752,3.288 1.187,2.291 0.312,-0.918 -1.499,-1.373 z m 13.027,5.492 1.784,1.864 0.04,-0.969 -1.824,-0.895 z m -6.573,0.894 1.785,1.863 0.039,-0.968 -1.824,-0.895 z m 4.047,1.437 1.785,1.863 0.04,-0.969 -1.825,-0.894 z m -6.377,-11.954 1.187,2.291 0.312,-0.919 -1.499,-1.372 z m 5.252,6.206 1.187,2.29 0.311,-0.917 -1.498,-1.373 z m -5.1,-1.429 1.187,2.291 0.311,-0.918 -1.498,-1.373 z m -15.573,-0.855 1.663,1.973 0.101,-0.964 -1.764,-1.009 z m 1.624,6.094 1.663,1.973 0.102,-0.964 -1.765,-1.009 z m 4.654,-2.622 2.768,3.209 0.149,-1.584 -2.917,-1.625 z m -3.656,-4.144 2.767,3.209 0.15,-1.584 -2.917,-1.625 z m 11.427,8.974 2.767,3.209 0.15,-1.584 -2.917,-1.625 z m -8.986,-1.168 2.767,3.209 0.149,-1.584 -2.916,-1.625 z m 4.264,0.658 4.276,3.787 -0.087,-2.144 -4.189,-1.643 z m 9.66,2.919 2.896,2.161 -0.168,-1.347 -2.728,-0.814 z m -1.895,5.572 4.578,3.417 -0.266,-2.129 -4.312,-1.288 z m -5.787,-4.502 4.577,3.417 -0.265,-2.129 -4.312,-1.288 z m -0.138,3.337 4.577,3.417 -0.265,-2.129 -4.312,-1.288 z m 5.743,-2.447 2.896,2.162 -0.168,-1.347 -2.728,-0.815 z m -4.779,6.818 4.578,3.417 -0.266,-2.128 -4.312,-1.289 z m 7.073,2.929 3.395,2.534 -0.196,-1.579 -3.199,-0.955 z m 7.101,-2.123 2.897,2.162 -0.168,-1.347 -2.729,-0.815 z m -10.392,-1.309 3.905,2.914 -0.227,-1.816 -3.678,-1.098 z m 5.744,2.128 3.904,2.915 -0.226,-1.816 -3.678,-1.099 z m 54.192,168.386 3.524,-0.301 -0.998,-0.877 -2.526,1.178 z m 11.514,-2.012 2.383,-0.517 -0.76,-0.511 -1.623,1.028 z m -3.015,-2.04 2.383,-0.518 -0.76,-0.511 -1.623,1.029 z m -9.523,7.868 1.956,-0.473 -0.636,-0.407 -1.32,0.88 z m 14.947,-4.148 2.008,0.135 -0.487,-0.579 -1.521,0.444 z m -4.483,1.079 2.008,0.134 -0.486,-0.579 -1.522,0.445 z m -6.037,1.32 2.763,-0.236 -0.783,-0.687 -1.98,0.923 z m 2.783,-2.7 2.771,-0.1 -0.748,-0.725 -2.023,0.825 z m -2.336,-2.247 3.525,-0.3 -0.998,-0.877 -2.527,1.177 z m 1.084,-2.745 2.005,-0.171 -0.568,-0.499 -1.437,0.67 z m -6.048,3.189 3.414,-0.825 -1.112,-0.71 -2.302,1.535 z m -3.402,4.113 2.696,-0.651 -0.878,-0.561 -1.818,1.212 z m -0.594,-2.546 2.503,-0.605 -0.815,-0.521 -1.688,1.126 z m -42.654,-0.802 3.525,-0.301 -0.999,-0.877 -2.526,1.178 z m 11.515,-2.012 2.382,-0.517 -0.76,-0.511 -1.622,1.028 z m -3.016,-2.041 2.383,-0.517 -0.76,-0.511 -1.623,1.028 z m -9.523,7.869 1.956,-0.473 -0.636,-0.407 -1.32,0.88 z m 14.947,-4.147 2.008,0.133 -0.486,-0.578 -1.522,0.445 z m -4.483,1.078 2.008,0.135 -0.486,-0.58 -1.522,0.445 z m -6.037,1.32 2.763,-0.236 -0.783,-0.687 -1.98,0.923 z m 2.783,-2.7 2.771,-0.1 -0.748,-0.724 -2.023,0.824 z m -2.336,-2.246 3.525,-0.301 -0.998,-0.877 -2.527,1.178 z m 1.084,-2.746 2.006,-0.171 -0.568,-0.499 -1.438,0.67 z m -6.048,3.189 3.415,-0.825 -1.112,-0.711 -2.303,1.536 z m -3.402,4.114 2.696,-0.652 -0.878,-0.561 -1.818,1.213 z"
       id="path3348"
       inkscape:connector-curvature="0" />
    <path
       style="fill:#ececed;stroke:none"
       d="m 341.817,553.192 c -0.089,0.282 -0.182,0.563 -0.278,0.843 l 6.16,-3.459 6.964,-5.017 -12.7,7.132 c -0.047,0.167 -0.096,0.334 -0.146,0.501 z m -12.152,16.917 -0.01,0.008 c -0.175,-0.566 -0.376,-1.129 -0.604,-1.694 -0.095,-0.221 -0.191,-0.442 -0.289,-0.663 l -5.129,3.977 c 0,0 0,0 0,0 l 1.938,-1.502 c 0.396,0.718 0.763,1.451 1.098,2.196 l -0.004,0.004 c 0.464,1.018 0.853,2.022 1.159,3.038 0.411,1.393 0.676,2.814 0.784,4.248 0.048,0.679 0.061,1.377 0.039,2.099 -0.022,0.739 -0.081,1.449 -0.177,2.136 l -0.006,0.039 -0.005,0.039 -0.005,0.034 -0.001,0.005 -10e-4,0.008 -0.011,0.069 -0.006,0.039 -0.005,0.033 -0.001,0.006 -0.024,0.148 0,-10e-4 -10e-4,0.007 c 0.706,-1.251 1.219,-2.616 1.567,-4.085 l 10e-4,0 0.006,-0.028 0.019,-0.08 0.009,-0.039 0.009,-0.04 0.018,-0.08 0.006,-0.028 0.012,-0.052 0.017,-0.08 c 0.071,-0.332 0.134,-0.666 0.187,-1.002 l 0.009,-0.054 0.005,-0.038 c 0.464,-2.953 0.269,-5.859 -0.604,-8.667 z m -35.235,-9.938 c 1.24,-14.982 13.793,-26.758 29.095,-26.758 2.374,0 4.681,0.286 6.891,0.821 -0.609,0.543 -1.19,1.126 -1.742,1.74 -1.667,-0.32 -3.388,-0.49 -5.149,-0.49 -13.782,0 -25.166,10.283 -26.898,23.593 -0.414,0.178 -0.826,0.37 -1.236,0.576 -0.326,0.165 -0.646,0.337 -0.961,0.518 z m 3.274,-1.521 c 1.909,-12.544 12.744,-22.159 25.821,-22.159 1.497,0 2.965,0.128 4.394,0.37 -2.729,3.374 -4.554,7.578 -4.786,11.782 -0.221,4.001 0.423,7.833 2.106,11.48 l 1.072,2.323 2.032,-1.349 0.408,0.887 -2.044,1.356 c 0,0 0,0 0,0 l -3.96,2.628 -2.011,1.334 c -0.201,-0.252 -0.407,-0.502 -0.618,-0.747 l 2.022,-1.342 c -0.456,-0.542 -0.931,-1.066 -1.426,-1.572 -3.976,-4.064 -9.58,-6.308 -15.247,-6.312 -2.717,-0.002 -5.284,0.412 -7.763,1.321 z m 39.447,-3.891 c 1.881,0 3.416,1.536 3.416,3.417 0,1.881 -1.535,3.417 -3.416,3.417 -0.552,0 -1.074,-0.133 -1.536,-0.366 l -0.716,0.555 -0.108,0.083 -0.657,0.509 -1.942,-2.673 0.708,-0.47 0.109,-0.072 0.759,-0.504 c -0.022,-0.157 -0.034,-0.316 -0.034,-0.479 0,-1.881 1.535,-3.417 3.417,-3.417 z m -1.785,6.328 c -0.012,-0.007 -0.023,-0.014 -0.035,-0.022 -0.007,-0.004 -0.013,-0.008 -0.02,-0.013 -10e-4,0 -10e-4,0 -10e-4,0 -0.575,-0.37 -1.034,-0.908 -1.305,-1.543 0.097,0.23 0.222,0.453 0.374,0.663 0.259,0.361 0.577,0.655 0.931,0.88 m 1.655,-5.622 c 1.307,0 2.373,1.066 2.373,2.372 0,1.306 -1.066,2.372 -2.373,2.372 -1.306,0 -2.372,-1.066 -2.372,-2.372 0,-1.306 1.066,-2.372 2.372,-2.372 z m -1.599,5.657 c -0.012,-0.007 -0.023,-0.014 -0.035,-0.022 m -5.046,-0.099 1.587,2.203 -11.202,8.353 -1.995,-2.769 c -0.014,-0.019 -0.027,-0.037 -0.042,-0.055 l -0.818,0.543 2.594,3.569 c 0.029,0.05 0.056,0.098 0.08,0.145 l 0.466,-0.361 c 0,0 0,0 0.001,10e-4 l 11.36,-8.81 0.775,-0.601 -2,-2.753 -0.806,0.535 z"
       id="path3350"
       inkscape:connector-curvature="0" />
  </g>
</svg>
