<?xml version="1.0" encoding="utf-8"?>
<!-- Generator: Adobe Illustrator 25.2.3, SVG Export Plug-In . SVG Version: 6.00 Build 0)  -->
<svg version="1.1" id="Layer_1" xmlns="http://www.w3.org/2000/svg" xmlns:xlink="http://www.w3.org/1999/xlink" x="0px" y="0px"
	 viewBox="0 0 328.6 438.4" style="enable-background:new 0 0 328.6 438.4;" xml:space="preserve">
<style type="text/css">
	.st0{fill:#D4AF35;}
	.st1{fill:#205AA9;}
	.st2{fill-rule:evenodd;clip-rule:evenodd;fill:#D5AF31;stroke:#010101;stroke-width:0.6881;stroke-miterlimit:1.8939;}
	.st3{fill-rule:evenodd;clip-rule:evenodd;fill:#FED500;stroke:#010101;stroke-width:0.6881;stroke-miterlimit:1.8939;}
	.st4{fill-rule:evenodd;clip-rule:evenodd;fill:#FFFFFF;}
	.st5{fill-rule:evenodd;clip-rule:evenodd;fill:#D4AF35;stroke:#010101;}
	.st6{fill-rule:evenodd;clip-rule:evenodd;fill:#FFFFFF;stroke:#010101;}
	.st7{fill-rule:evenodd;clip-rule:evenodd;fill:#010101;}
	.st8{fill-rule:evenodd;clip-rule:evenodd;fill:#FFFFFF;stroke:#010101;stroke-linejoin:round;}
	.st9{fill-rule:evenodd;clip-rule:evenodd;fill:#9B1B2C;}
	.st10{fill-rule:evenodd;clip-rule:evenodd;fill:#FED8AE;stroke:#010101;stroke-width:0.0785;stroke-miterlimit:1.798;}
	.st11{fill-rule:evenodd;clip-rule:evenodd;fill:#FFFFFF;stroke:#010101;stroke-width:0.0785;stroke-miterlimit:1.798;}
	.st12{fill-rule:evenodd;clip-rule:evenodd;fill:#FED8AE;stroke:#010101;stroke-width:0.054;stroke-miterlimit:1.2372;}
	.st13{fill-rule:evenodd;clip-rule:evenodd;fill:#FED500;}
	.st14{fill:#010101;}
	.st15{fill:#9B1B2C;}
	.st16{fill:#FFFFFF;}
	.st17{fill:#FED8AE;stroke:#010101;stroke-width:0.0785;stroke-miterlimit:1.798;}
	.st18{fill:#D4AF35;stroke:#010101;}
	.st19{fill:#FED500;}
	.st20{fill:#FFFFFF;stroke:#010101;}
	.st21{fill:#FED500;stroke:#010101;}
	.st22{fill:#96995F;stroke:#010101;stroke-width:0.6881;}
	.st23{fill:#FED500;stroke:#010101;stroke-width:0.6881;}
	.st24{fill:url(#path4143_1_);}
	.st25{fill-rule:evenodd;clip-rule:evenodd;fill:#FED500;stroke:#010101;}
</style>
<g>
	<path id="path2839" class="st0" d="M0,0v326.4c0,23.4,13.7,45.8,36.7,55.9l127.6,56.1l127.6-56.2c23-10.1,36.6-32.5,36.7-55.9V0H0z
		"/>
	<path id="path7710" class="st1" d="M4.3,4.2v320c0,23,13.3,43.6,35.7,53.5l124.3,54.9l124.3-54.9c22.4-9.9,35.7-30.5,35.7-53.5V4.2
		H4.3z"/>
	<g>
		<g id="g4065" transform="matrix(0.68808975,0,0,0.68808975,-4.6038559,-12.085824)">
			<path id="path19-4" class="st2" d="M247.72,69.53c-29.9-0.2-46.3,22-47,46.1c-0.7,26,12.1,39.8,30.3,44.5
				c0.6-2.3,0.7-4.8,0.8-8.4c-26.9-6.8-15.9-59.3,13.7-59.2c26.1,0.1,41.9,49.2,13.1,59.4c0.1,3.7,0.4,6.3,1.3,8.6
				c19.6-4.4,32.2-19.2,32.4-44.7C292.32,92.13,274.82,69.73,247.72,69.53L247.72,69.53z"/>
			<path id="path21" class="st3" d="M247.02,73.43c23.8,0,42.3,19.8,42.3,43.8s-19.2,41.9-43,41.9s-42.3-15.4-42.3-42.4
				C204.02,92.73,223.22,73.43,247.02,73.43z"/>
		</g>
		<path id="path25" class="st4" d="M150.52,105.31c4.6-3.2,5.4-6.1,5.7-11.1c5.1,4.1,11.6,3.4,15.8,0.7c0.5,5.7,2.1,8.2,6.5,10.1
			C177.82,110.11,151.82,110.41,150.52,105.31z"/>
		<path id="path93" class="st4" d="M230.62,184.21c0-0.8,0-6.1,1.2-6.1c2.9,0.1,1.3,20.4,1.5,23.9s-0.3,4.5-3,4.5
			c-6,0.1-2.4-17.7-3.7-28c-0.2-1.8,1.5-1.2,1.9-0.9c1.4,1.1,0.9,18.3,1.4,18.4C230.72,196.21,230.72,186.81,230.62,184.21
			L230.62,184.21z"/>
		<path id="path73" class="st5" d="M197.22,104.81l8.6-10.9c-10.2-24.5-1.4-66.1,26.2-52.8c45.3,24.2,24.8,131.2,26.1,168.4
			c1.3,36.4,4.2,76.1,12.4,104.9c-2.4-1-7.2-0.3-8.2-0.3c0.7,9.3,4.3,18.2,5.7,24.5c-10.5-0.1-19.9-14-24-24.4l-3.7,3.4l-0.6-4.2
			l4.2-3.9c-9-20.4-15.5-33.1-19.7-107.4c8.2-12.2,10.6-26.5,8.2-51.8C230.42,128.61,226.02,103.91,197.22,104.81L197.22,104.81z"/>
		<path id="path65" class="st6" d="M241.12,167.41c-1.5,0.2-0.4-10.2-0.8-19.4l-3.1,0.5c0.5,21.2-2.3,34.7,4.1,33.8
			c5.6-0.8,3.9-7.9,4.4-35.2l-3.2,0.6C242.12,158.31,243.42,167.01,241.12,167.41L241.12,167.41z"/>
		<path id="path101" class="st7" d="M108.62,145.61c-40,42.3-24.3,15.3-41.4,32.6c-5.1,5.2-1.5,11,4.4,15.6c6.9,5.5,10,0.2,12.7-5
			c3.2-1.7,4.5-3.9,5.3-7.1c5.7-3.4,10.4-5.3,17.4-10.9c-0.2,8.3-4.1,79.7-5.3,88.4c2.4,23.2,9.5,44.4,21.5,66.6l5.8,6
			c0.3,9.6,1,18.5,1.2,21.2c1.6,17.3-17.6,12.5-18,33.8c26.1-2.7,17.8-7,32.4-15.8c11.1-6.7,0.8-10.4,4.4-27.8
			c8,4.1,20.3,4.8,25.7,4.2c0.2,5.7-6.6,13.9,3.4,19.2c6.2,3.3,8.1,18.6,29.2,15.2c0.6-17.2-16.8-11.3-17.5-37.7
			c7.6-1.6,37.3-18.1,54.5-34.3c-10.3-21.9-14.8-33.3-19.8-107.5c9.9-16.6,10.2-31.5,8.8-51.8c-9.6-77.6-59.3-24-60.1-58
			c19.8-7,9-40.7-8.9-40.7c-20.4-0.1-27.7,36-9.3,40.6C154.52,122.81,122.92,76.81,108.62,145.61L108.62,145.61z"/>
		<path id="path57" class="st8" d="M220.82,113.71c2,2.7,3.4,4.5,5.2,7.7c7,0.6,2.1-19.5-2.8-43l-1.5,4c3.3,18.8,5,26.8,2.7,27.3
			c-1.3,0.3-2.4-13.1-4.3-24.2l-2.2,6.8C221.02,110.71,220.82,113.71,220.82,113.71z"/>
		<path id="path71" class="st8" d="M224.82,75.21c6.1,22.2,9.4,35.7,13.8,33c7.9-5-0.1-27.3-10.2-41.7l-1.4,3.1
			c3.3,7.1,10.9,26,8.6,27.2c-1.1,0.6-5.3-14.6-9.5-25L224.82,75.21z"/>
		<path id="path83" class="st6" d="M243.52,228.01c-5.3,0.7-5.9-12.3-6.6-40.5l2.7-0.5c0.5,7.1-0.4,22,1.6,21.8
			c2.3-0.2,1.4-9.3,1.1-22.3l3-0.7C245.72,213.11,248.72,227.31,243.52,228.01L243.52,228.01z"/>
		<path id="path85" class="st6" d="M232.12,235.71c-1.3,0-1.2-14.9-2-20.9l-2.8,0.4c2.8,35.5,2.5,41.2,6.5,41
			c5.1-0.3,3.5-5.6,1-41.9l-2.8,0.2C232.52,221.71,234.12,235.71,232.12,235.71L232.12,235.71z"/>
		<path id="path89" class="st6" d="M235.22,280.71l4.9,16c2.7-1.4,2.6-4.9-3.8-36.4l-3.1,0.6
			C235.32,271.51,237.62,280.01,235.22,280.71L235.22,280.71z"/>
		<path id="path97" class="st6" d="M229.32,191.91c0.8-1.9,1.8-6,2.8-8.8c1.5,18.9,1.8,26.8-2.2,27.5c-4.4,0.7-3.7-4.5-4.3-10.4
			l1.9-4.3c0.7,1.7,0.3,5.6,1.4,5.1C230.32,200.31,229.62,193.71,229.32,191.91L229.32,191.91z"/>
		<path id="path99" class="st9" d="M129.72,147.11c0,0,0,1.4,1.8,1.6c-0.4,12.7,2,22.1-0.2,28.9c-3.7,11.6-7.2,23.3-12.5,88.9
			c-0.5,5.9,5.7,7.5,7.7,8.6c1.9,16.6,4.1,11.9,4,16.1c-0.1,2.3-2.1-2-1.5,38.6l-5-5.2c-11.5-20.2-18.7-43.9-21-65.1
			c3.1-39,4.2-66.2,5.3-89.7c6.2-3.9,11.7-8.1,16.5-12.2C127.22,152.91,128.72,150.51,129.72,147.11z"/>
		<path id="path105" class="st10" d="M151.42,303.41c2,13.4-14.5,21.4-21.1,16.1c-0.7-11.9,0.5-22.9,0.5-22.9
			c11.8-3.1-1,1.9-2.6-21.2c7.7,2.4,13.4,2.4,22.5,2.4C153.32,289.31,143.12,295.01,151.42,303.41L151.42,303.41z"/>
		<path id="path107" class="st11" d="M130.32,321.71c0,0,0.3,15.7,0.3,16.6c6.9,5,14.9-0.1,17.1-3.5c0.1-8.7,3.7-15.2,2.9-20.5
			C148.02,318.51,138.52,326.31,130.32,321.71L130.32,321.71z"/>
		<path id="path109" class="st10" d="M147.72,336.81c-4.4,5.4-11.2,6.4-17.1,3.7c0.4,5.4,0.9,11.2,0.9,16.1c4,2.1,12.9-1.7,15-4.8
			C146.62,346.41,147.82,342.21,147.72,336.81L147.72,336.81z"/>
		<path id="path111" class="st11" d="M146.72,354.01c-3,2.3-5.9,5.6-15.4,4.7c-2.6,11.4-16.3,11.2-17.7,26
			c21.9-1,18.3-9.5,29.3-14.9C151.22,365.81,147.52,361.41,146.72,354.01z"/>
		<path id="path115" class="st10" d="M188.42,275.71c-5.2,1.5-11.2,2.1-22.4,2c-1.4,15.1,4.8,12.6,3.5,18.2
			c-3.9,16.4,13.6,19.4,19.7,11.1C190.32,300.71,189.92,294.01,188.42,275.71L188.42,275.71z M184.72,292.01c0.6,1.7-4,10.6-7.2,0.7
			C179.22,293.51,183.22,292.81,184.72,292.01z"/>
		<path id="path117" class="st11" d="M169.82,308.11c-0.3,5.6-0.5,8.5,0.3,14.4c1.6,12.8,14.5,11,19.3,5.7l-0.3-19.2
			C187.12,313.21,174.82,315.81,169.82,308.11z"/>
		<path id="path119" class="st10" d="M175.72,345.41c-1.3-4.9-2-7.2-2.7-13.9c5.5,3.5,10.2,3.4,16.4-1.2c0.3,5.5-1,15.2-1,15.2
			C184.72,348.71,180.22,348.21,175.72,345.41z"/>
		<path id="path121" class="st11" d="M188.62,347.41c2.3,23.6,18.3,20.2,17.3,32.5c-18.4,2.7-20.7-11.4-27-14.8
			c-9.5-5.1-2.8-10.3-3.1-17.6C180.92,350.61,184.72,350.01,188.62,347.41L188.62,347.41z"/>
		<path id="path127" class="st4" d="M148.92,112.41c-1.2,1.1-2.6,1.6-5.5,1.7c0.1,5.7-0.7,13.1-2.2,17.6c0.6,2.8-0.3,4.6-2.1,14.4
			c-0.5,2.4-1.5,2.9-6.3,2.6c0.3,7.5,0.5,16.7,0.6,23.2c22.8,0,13.5,4.5,41.1,4.6c-0.7-4-1.2-9.2-1.4-15c-2.8,0.8-5.5,2.5-9.3,2.5
			c-11.2,0-21.3-8-21.3-19.4c0-11.5,8.8-20.4,20.1-20.4c4,0,7.3,1.3,7.3,1.3C164.02,121.61,158.02,116.91,148.92,112.41
			L148.92,112.41z"/>
		<path id="path129" class="st4" d="M174.92,178.31l1.2,5.2c-23.6,4-18.6-5.5-43.5-5.3l0.8-4.2
			C152.82,174.01,150.52,178.31,174.92,178.31L174.92,178.31z"/>
		<path id="path131" class="st4" d="M132.12,179.81l-1.5,6.6c6.7-1,14.5,6.8,21.6,12.9c6.7,5.7,24.3,3,27.9-3.9
			c-1.8-3-3.1-8-3.7-10.1C147.92,189.11,161.52,180.21,132.12,179.81z"/>
		<path id="path133" class="st4" d="M166.02,203.61c-5.7,0.8-9.6-0.7-13.6-2.1c-2.5,18.8-3.1,29.2-4.1,55.1
			c-0.1,3.2,18.8,2.6,18.7,0C166.82,238.51,166.82,221.21,166.02,203.61L166.02,203.61z"/>
		<path id="path135" class="st4" d="M138.82,190.81c0,0-8.3-6.1-9.1-1.3c-3.6,18.6-5.6,34.1-7.9,61.1c-0.5,2.3,10.6,6,10.8,3.6
			C135.02,219.71,138.82,190.81,138.82,190.81L138.82,190.81z"/>
		<path id="path137" class="st4" d="M146.82,262.61c-2.8,1.5-8.8,1.4-12.9-1.1c-0.3,3.9-0.3,6.6-0.5,12c-1.1,2.8,13.2,3.3,13.5,1.7
			C146.92,271.21,146.82,267.01,146.82,262.61L146.82,262.61z"/>
		<path id="path139" class="st4" d="M167.62,203.61c3.4-0.4,8.1-2.2,10.5-4.2c0,0,5.9,39.6,6.8,56.9c0.3,2.6-15.5,3.6-16,0.3
			C168.32,239.41,167.62,203.61,167.62,203.61L167.62,203.61z"/>
		<path id="path141" class="st4" d="M179.32,198.31l1.3-1.7c2.8,6.4,7.3,11.6,11,14.7c0,0,3.1,25.1,4.9,41.6
			c0.4,2.1-9.6,5.3-10.1,3.2C185.02,239.21,179.32,198.31,179.32,198.31z"/>
		<path id="path143" class="st4" d="M132.12,261.01c-6.5-0.6-9-3.9-10.7-7.6c-0.6,6-1,10.4-1,14.9c0,2.4,11.4,8,11.4,5.1
			C131.92,268.21,131.92,265.81,132.12,261.01L132.12,261.01z"/>
		<path id="path145" class="st4" d="M167.02,262.81c-1.7,3.8-16.7,4.1-18.5-0.5c-0.1,4.3,0,8.3,0.4,12.2c0.2,2.7,18.6,2.3,18.5,0.3
			C167.32,270.41,167.22,267.81,167.02,262.81L167.02,262.81z"/>
		<path id="path147" class="st4" d="M169.12,263.11c1.8,2.7,16.8,1.8,16.9-0.8c0.9,4.6,0.8,6,1.5,10.9c1,1.4-12.9,4-17.9,2
			C169.12,270.91,169.32,267.61,169.12,263.11z"/>
		<path id="path149" class="st4" d="M187.52,261.51c2.3,1.4,9.5-2.8,9.6-5.5c0.6,3.2,1.4,8,1.6,11.3c-2,2.2-5.4,5.5-9.6,5.7
			C188.52,268.61,188.12,265.91,187.52,261.51z"/>
		<path id="path151" class="st4" d="M151.02,200.41c-1.9-1.4-5.6-6.4-10.9-8.9c-2.4,18.9-4.3,40-5.6,63.1c-0.2,2.5,12,4.6,12.1,1.2
			C147.62,232.81,148.82,216.01,151.02,200.41L151.02,200.41z"/>
		<g id="g3775" transform="matrix(0.60937788,0,0,0.62637748,16.082678,-8.818002)">
			<path id="path157" class="st4" d="M239.25,232.16c2.9,0,5.7-2.9,5-8c-0.6-4.8-3.3-8.9-5-9.3c-1.9,0.5-4.4,4.7-5,9.3
				C233.75,229.26,236.35,232.16,239.25,232.16z"/>
			<path id="path159" class="st4" d="M226.85,244.46c0-2.9-2.9-5.6-8-4.9c-4.9,0.6-9,3.3-9.4,4.9c0.5,1.9,4.7,4.4,9.4,4.9
				C223.95,249.96,226.85,247.36,226.85,244.46z"/>
			<path id="path161" class="st4" d="M239.25,256.76c-2.9,0-5.6,2.9-5,8c0.6,4.8,3.3,8.9,5,9.3c1.9-0.5,4.4-4.7,5-9.3
				C244.85,259.66,242.15,256.76,239.25,256.76z"/>
			<path id="path163" class="st4" d="M251.65,244.46c-0.1,2.9,2.4,5.6,6.7,4.9l0.9-9.9C259.15,239.56,252.05,237.66,251.65,244.46z"
				/>
			<path id="path165" class="st4" d="M230.45,235.76c2.1-2,2-6-2.2-9.1c-3.9-3-8.7-4-10.2-3.1c-1,1.7,0.2,6.4,3.1,10.1
				C224.55,237.66,228.45,237.76,230.45,235.76z"/>
			<path id="path167" class="st4" d="M230.45,253.16c-2.1-2-6-1.9-9.2,2.2c-3,3.9-4,8.7-3.1,10.1c1.7,1,6.5-0.2,10.2-3.1
				C232.35,259.06,232.55,255.16,230.45,253.16L230.45,253.16z"/>
			<path id="path169" class="st4" d="M248.55,253.66c-1.7,2.3-1.9,6,2.2,9.1c2.3,1.7,4.9,2.8,6.9,3.2l0.1-10.2
				C257.75,255.86,253.15,247.56,248.55,253.66z"/>
			<path id="path171" class="st4" d="M248.05,235.76c2.1,2,6,1.9,9.2-2.2c3-3.9,4-8.7,3.1-10.1c-1.7-1-6.5,0.2-10.2,3.1
				C246.15,229.76,245.95,233.66,248.05,235.76z"/>
			<path id="path173" class="st4" d="M227.95,217.46c2.1-0.9,4.2-1.3,4.8,1.4c0.5,2.5-0.6,5.3-1.7,6c-1.5,0.3-4.1-1-5.5-3
				C224.15,219.46,225.85,218.26,227.95,217.46z"/>
			<path id="path175" class="st4" d="M212.05,255.66c-0.9-2.1-1.3-4.2,1.4-4.7c2.5-0.5,5.4,0.6,6,1.7c0.3,1.5-1,4.1-3.1,5.4
				C214.15,259.46,212.85,257.76,212.05,255.66z"/>
			<path id="path177" class="st4" d="M250.75,271.96c-2.1,0.9-4.2,1.2-4.8-1.4c-0.5-2.5,0.6-5.3,1.7-6c1.5-0.3,4.1,1,5.5,3
				C254.55,269.96,252.85,271.16,250.75,271.96z"/>
			<path id="path181" class="st4" d="M212.05,233.26c0.9-2.1,2.1-3.9,4.4-2.4c2.2,1.4,3.4,4.2,3.1,5.4c-0.8,1.3-3.6,2.2-6,1.7
				C210.75,237.36,211.15,235.36,212.05,233.26z"/>
			<path id="path183" class="st4" d="M228.35,271.46c-2.1-0.9-3.9-2.1-2.4-4.4c1.4-2.1,4.2-3.3,5.5-3c1.3,0.8,2.2,3.6,1.7,6
				C232.55,272.76,230.45,272.36,228.35,271.46L228.35,271.46z"/>
			<path id="path187" class="st4" d="M250.55,217.46c2.1,0.9,3.9,2.1,2.4,4.4c-1.4,2.1-4.2,3.3-5.5,3c-1.3-0.8-2.2-3.6-1.7-6
				C246.35,216.16,248.45,216.56,250.55,217.46z"/>
		</g>
		<g id="g3124" transform="matrix(0.68808975,0,0,0.68808975,-7.1268517,-15.29691)">
			<path id="path197" class="st12" d="M114.92,283.93c-6.9,5.1-8.4,1.4-2.8-3.8c5.6-5.1,9-7.1,17.6-6c12.8-12,27.8-25.4,39.6-38.3
				c1.3-1.5,1.5-4.7,1.9-5.8c0.9,1.4,11.2,4.3,12.5,1.8c0.2,2.9,11.1,4.6,12.7,3.7c-1.7,5.5-3.2,8.2-6.1,13.4
				c-15.2,12.3-44.3,33.5-50.5,34.7c-2.9,7.4-5.3,9.6-7.8,9.3C127.22,292.43,122.42,282.93,114.92,283.93L114.92,283.93z"/>
		</g>
		<path id="path213" class="st13" d="M174.12,160.71c0.4,25.6,9.9,52.7,30.6,54c11.5,0.7,29.9-16.9,28.3-53.3
			c-1.5-34.3-9.5-54.4-29.2-55.6C181.92,104.51,172.12,136.71,174.12,160.71L174.12,160.71z M203.52,112.61
			c12,0,21.7,21.2,21.7,47.4s-9.7,47.4-21.7,47.4s-21.7-21.2-21.7-47.4S191.52,112.61,203.52,112.61z"/>
		<path id="path29" class="st10" d="M164.12,62.01c10.4,0,12,8.1,10.9,17.4c-1.1,8.7-4.1,15.4-10.8,15.2c-6-0.2-9.8-6.5-11.2-15.2
			C151.52,69.91,154.22,62.01,164.12,62.01z"/>
		<path id="path31" class="st7" d="M166.32,73.91c1.4-1.3,2.5-1.8,3.1-2.3c1.9-1.2,3.4-0.3,4,0.2c0.1,0.6-1.6,0.2-2.1,0.3
			C169.52,72.41,168.42,73.41,166.32,73.91L166.32,73.91z"/>
		<path id="path33" class="st7" d="M159.02,72.61c1.2,0.6,2.3,1.4,3.8,0.9c-2.1-1.7-6.6-2.9-8.5-1.4
			C156.82,72.51,156.92,72.01,159.02,72.61z"/>
		<path id="path37" class="st14" d="M167.41,87.25c-0.8,1.5-4.5,2-6.1,0.1c0.7-1.2,2.1-1.6,3.2-1.2
			C165.81,85.85,166.71,86.25,167.41,87.25L167.41,87.25z"/>
		<path id="path43" class="st14" d="M163.02,75.01L163.02,75.01L163.02,75.01z M163.02,75.01L163.02,75.01L163.02,75.01z
			 M163.02,75.01c-0.1-0.2-0.1-0.5,0-0.7s0.3-0.2,0.4-0.1c0,0,0,0,0.1,0.1c0.8,1.2,0,4.7-0.3,6v0.1c-0.1,0.4-0.1,0.7-0.1,1
			s0.1,0.5,0.3,0.7c0.1,0.2,0.2,0.4,0.1,0.7c-0.1,0.2-0.9-0.7-0.9-1.2l0,0c0-0.4,0-0.9,0.1-1.4l0,0v-0.2l0,0
			C162.92,78.91,163.62,75.71,163.02,75.01L163.02,75.01L163.02,75.01L163.02,75.01z"/>
		<path id="path241" class="st14" d="M170.22,76.71L170.22,76.71L170.22,76.71z M170.22,76.71c-0.3,0-0.6,0-0.9-0.1
			c-0.2,0-0.3-0.1-0.5-0.2c-0.1-0.1-0.3-0.1-0.4-0.2c-0.5-0.3-0.8-0.7-0.9-1.1c0-0.1,0.1-0.2,0.2-0.3c0.1-0.1,0.2-0.2,0.3-0.3
			c0.5-0.5,1.4-0.7,2.3-0.6l0,0c0.1,0,0.2,0,0.3,0c0.2,0,0.4,0,0.5,0c0.2,0,0.3,0.1,0.5,0.1c0.7,0.2,1.2,0.5,1.5,1
			c0,0.1-0.1,0.1-0.1,0.2c-0.1,0.1-0.2,0.2-0.3,0.3C172.12,76.11,171.22,76.61,170.22,76.71L170.22,76.71L170.22,76.71z
			 M169.12,77.11c0.3,0.1,0.7,0.2,1.1,0.2l0,0c1.1-0.1,2.1-0.6,2.8-1.3c0.1-0.1,0.2-0.3,0.3-0.4l0,0c0.1-0.1,0.2-0.3,0.2-0.4l0,0
			l0,0v-0.2c-0.3-0.7-1-1.2-1.9-1.5c-0.2,0-0.4-0.1-0.6-0.1c-0.2,0-0.4,0-0.6-0.1c-0.1,0-0.2,0-0.3,0l0,0l0,0c-1.1,0-2,0.2-2.7,0.7
			c-0.1,0.1-0.3,0.2-0.4,0.4c-0.1,0.1-0.2,0.3-0.3,0.5l0,0c0,0,0,0,0,0.1v0.2c0.1,0.5,0.5,1.1,1.2,1.5c0.2,0.1,0.3,0.2,0.5,0.3
			C168.82,77.01,168.92,77.11,169.12,77.11L169.12,77.11z M170.22,73.31L170.22,73.31L170.22,73.31z M170.32,73.31
			C170.22,73.31,170.22,73.31,170.32,73.31L170.32,73.31z"/>
		<path id="path243" class="st7" d="M170.02,73.61c-0.9,0-1.5,0.7-1.5,1.6s0.7,1.6,1.5,1.6s1.5-0.7,1.5-1.6
			C171.52,74.31,170.82,73.61,170.02,73.61z"/>
		<path id="path247" class="st14" d="M158.52,76.71L158.52,76.71L158.52,76.71z M158.52,76.71c0.3,0,0.7,0,1-0.1
			c0.2,0,0.3-0.1,0.5-0.2s0.3-0.1,0.4-0.2c0.5-0.3,0.8-0.7,0.9-1c-0.1-0.1-0.1-0.2-0.2-0.3c-0.1-0.1-0.2-0.2-0.3-0.3
			c-0.5-0.4-1.4-0.6-2.4-0.6l0,0c-0.1,0-0.2,0-0.3,0c-0.2,0-0.4,0-0.6,0c-0.2,0-0.4,0.1-0.5,0.1c-0.7,0.2-1.3,0.5-1.5,1
			c0,0.1,0.1,0.1,0.1,0.2c0.1,0.1,0.2,0.2,0.3,0.3C156.62,76.11,157.52,76.61,158.52,76.71L158.52,76.71L158.52,76.71z
			 M159.62,77.11c-0.3,0.1-0.7,0.1-1.1,0.1l0,0c-1.1-0.1-2.2-0.6-2.8-1.2c-0.1-0.1-0.2-0.3-0.3-0.4l0,0c-0.1-0.1-0.2-0.3-0.2-0.4
			l0,0l0,0v-0.2c0.3-0.7,1-1.2,1.9-1.4l0,0c0.2,0,0.4-0.1,0.6-0.1c0.2,0,0.4,0,0.6-0.1c0.1,0,0.2,0,0.3,0l0,0l0,0
			c1.1,0,2.1,0.2,2.7,0.7c0.1,0.1,0.3,0.2,0.4,0.4c0.1,0.1,0.2,0.3,0.3,0.4c0,0,0,0,0,0.1v0.2c-0.1,0.5-0.6,1.1-1.2,1.5
			c-0.2,0.1-0.3,0.2-0.5,0.3C160.02,77.01,159.82,77.01,159.62,77.11L159.62,77.11z M158.52,73.41L158.52,73.41L158.52,73.41z
			 M158.52,73.41L158.52,73.41L158.52,73.41z"/>
		<path id="path3103" class="st15" d="M152.22,277.81h12.1c-0.1,18.1,4.3,12.2,4,29.1c-0.5,23.9,3.2,23,6,38.7
			c-8.6,1.1-17.4-0.8-25.6-4.1c-0.5-16.4,7.9-31.8,2.4-41.4C146.72,292.11,153.52,294.81,152.22,277.81L152.22,277.81z"/>
		<path id="path3873" class="st15" d="M189.82,342.41c9.5-1.8,40.9-21.6,53-33.3c-14.4-33.4-14.8-50-19.1-105.1
			c-11.4,14.5-22.1,13.7-30.8,8.1c0,0,4.2,37.6,7,54c0.7,4.2-10,8.8-10,8.8C190.22,293.01,192.82,284.31,189.82,342.41
			L189.82,342.41z"/>
		<path id="path75" class="st6" d="M202.12,104.61l8.7-8.4c-17.5-55.5,28.6-78.4,44.8-2c5.5,26.1,0.2,61.5-0.3,105.5
			c-0.4,37.3,5.3,83.1,11.7,110.6l-3.4,0.1c-12.4-63.8-16.2-88.9-14.6-153.4c1.2-47-4-84.3-22.3-95.4c-5.1-3.1-9.2,15.1-11.3,29.2
			c-1.7,11.3,2.2,14.9,3.3,20.7C214.62,107.81,210.02,105.41,202.12,104.61L202.12,104.61z"/>
		<path id="path3104" class="st16" d="M168.82,144.11c0,3.8-2.9,6.8-6.4,6.8c-3.6,0-6.4-3-6.4-6.8l0,0c0-3.8,2.9-6.8,6.4-6.8
			S168.82,140.41,168.82,144.11z"/>
		<path id="path3106" class="st15" d="M149.02,106.31c1.5,1.1,1.7,3.4,0.7,5.3c2.4,1.5,15.8,8,27,17.8c3.6-10.2,8.9-19.2,18-23.3
			c-5-0.1-12.4,1.1-16.1-0.3C177.12,109.91,151.02,109.01,149.02,106.31z"/>
		<path id="path3876" class="st15" d="M115.82,126.01c4.8-11,11.4-20,23.7-20c-3.6,2-2.2,7.1,2.5,7.9c0.1,5.5-0.5,12.2-1.8,16.3
			c-1.1-1.5-6.5-2.8-8.4-0.4c-0.3-2.4-6.9-3.6-8.9-1C121.92,126.41,118.82,125.31,115.82,126.01L115.82,126.01z"/>
		<path id="rect3878" class="st16" d="M135.92,130.71l1.2,0.2c1.7,0.3,2.9,2,2.6,3.8l-1.7,9.5c-0.3,1.8-2,2.9-3.7,2.6l-1.2-0.2
			c-1.7-0.3-2.9-2-2.6-3.8l1.7-9.5C132.52,131.51,134.12,130.31,135.92,130.71z"/>
		<path id="rect3878-1" class="st16" d="M126.92,129.51l1.3,0.3c1.7,0.4,2.8,2.1,2.4,3.8l-2.1,8.8c-0.4,1.7-2.1,2.8-3.9,2.5
			l-1.3-0.3c-1.7-0.4-2.8-2.1-2.4-3.8l2.1-8.8C123.42,130.31,125.22,129.21,126.92,129.51z"/>
		<path id="rect3878-1-7" class="st16" d="M118.32,127.81l0.8,0.2c1.7,0.4,2.7,2.2,2.3,3.9l-2.3,8.8c-0.4,1.7-2.2,2.8-3.9,2.3
			l-0.8-0.2c-1.7-0.4-2.7-2.2-2.3-3.9l2.3-8.8C114.82,128.41,116.52,127.31,118.32,127.81z"/>
		<path id="path3916" class="st17" d="M73.72,181.51c0.1,1-1.3,3-3,4.5c-1.8,1.4-3.3,1.8-3.4,0.8l0,0c-0.1-1,1.3-3,3-4.5
			C72.02,180.81,73.62,180.41,73.72,181.51z"/>
		<path id="path3916-4" class="st17" d="M77.02,183.11c0.2,1.1-1.4,3.6-3.6,5.5c-2.2,2-4.1,2.7-4.3,1.6l0,0
			c-0.2-1.1,1.4-3.6,3.6-5.5C74.92,182.71,76.82,182.01,77.02,183.11L77.02,183.11z"/>
		<path id="path3916-0" class="st17" d="M79.02,186.61c0.1,1.1-1.2,3.2-3.1,4.8c-1.8,1.6-3.4,2-3.6,0.9l0,0
			c-0.1-1.1,1.2-3.2,3.1-4.8C77.32,186.01,78.92,185.51,79.02,186.61z"/>
		<path id="path3916-9" class="st17" d="M82.32,188.71c0.1,1-1.2,3-3,4.5s-3.3,1.9-3.5,1l0,0c-0.1-1,1.2-3,3-4.5
			S82.22,187.81,82.32,188.71z"/>
		<path id="path3976" class="st18" d="M127.82,96.41l7,8.4c-8.4,2.2-18.7,6.2-26.2,40.8c-7.1,7.6-13.1,13.5-19.7,19.5
			c-4.9,4-7.6,6.9-13.5,6.4c-6.5,4.5-11.7,8.6-10.5,13.5l-4.7,1.8l-6.6-11.3l6.7-5c-4.8-3.7-7.5-11.9-7.7-18.1
			c-9.6-9.5-11.7-14.5-13.3-27.7c-8.5-6.8-13.1-21.6-13.3-39.6c11.6,8.3,20.8,19,23.1,33.2c8,6.9,12.5,11.8,14.5,27.3
			c5.7,3.9,7.3,8.8,8.5,16.7l1.9-1.4C50.32,21.11,148.12,5.71,127.82,96.41z"/>
		<path id="path67" class="st8" d="M101.12,124.91c-0.8,10.1-0.5,28.9-0.5,28.9c3.3-3.5,5.5-5.4,7.8-8.1c0.4-1.7,0.8-3.4,1.3-5.8
			c-0.2-5.1-0.1-10.3-0.5-14l-2.8-0.4c-0.4,7.6,1.1,16.7-1.2,15.9c-1.8-0.6-1.3-16.2-1.3-16.2S102.02,124.91,101.12,124.91
			L101.12,124.91z"/>
		<path id="path55" class="st8" d="M95.02,107.91c4.8,0.6,6.2-8.9,12.7-32.6l-1.8-3.8c-7,17.3-8.2,27.1-9.7,23.7
			c-1.2-2.9,5.7-18.6,7.7-26.5l-1.7-3.2C96.12,72.61,83.72,106.61,95.02,107.91z"/>
		<path id="path53" class="st8" d="M106.62,121.61c5,1.5,9.7-19,9.7-28.5l-2.8-7.4c-1.4,13.6-3,24.4-4.9,23.6
			c-2.5-1,1.9-12.5,3.1-26.7l-1.7-3.8C103.02,110.41,97.72,119.01,106.62,121.61L106.62,121.61z"/>
		<g id="g3876" transform="matrix(0.68808975,0,0,0.68808975,-4.7532012,-12.200666)">
			<path id="path193" class="st3" d="M95.12,286.23l-7.2-12.3l32.7-23.4l6.3,10.8c-6.4,5.2-5.3,3.6-11.2,2.6
				c-3.2,2.4-18.3,10.3-17,21L95.12,286.23z"/>
		</g>
		<path id="path3104-4" class="st19" d="M149.12,109.21c0,2.1-2.3,3.8-5.1,3.8s-5.1-1.7-5.1-3.8l0,0c0-2.1,2.3-3.8,5.1-3.8
			S149.12,107.11,149.12,109.21L149.12,109.21z"/>
		<path id="path3978" class="st20" d="M130.82,105.81l-7.9-7.1c16.4-81.1-63.4-72.1-45.6,59.4l0.9-0.6l5.9,10.3
			c-2.8-75.7,10.8-104.9,21.3-106.6c4.5-0.8,12.6,26.7,13,31.2c1.5,16.6-6,21.5-5.7,37.5C116.22,119.91,119.42,111.41,130.82,105.81
			L130.82,105.81z"/>
		<path id="path51" class="st8" d="M89.62,109.41c-2,22.7-4,31.7,2.4,32.5c5.8,0.8,4.5-4,6-30l-2.8-1c-1.5,12.9-1.4,19.1-3.5,18.4
			c-1.6-0.5,0.6-12.5,0.7-19L89.62,109.41z"/>
		<path id="path67-1" class="st8" d="M87.22,144.31c-0.3,6.5-0.7,13.8-0.3,22.3c4.9-4.2,6.5-5.8,10.4-9.6c0-4.6,0-6.8-0.5-11.5
			l-3.2-0.3c-0.2,4.3,0.9,15.3-1.5,15.9c-1.8,0.4-1.3-4.9-1.7-16.4L87.22,144.31z"/>
		<path id="path3124" class="st18" d="M76.22,196.21c2.1-0.1,3.9,0.6,8.2-7.3c3-1.7,4.6-4,5.3-7.3c5.7-3.5,8.8-4.4,17.5-11.1
			c-2.4,47.8-2.3,81.31-3.2,88.91c1,13.9,3.5,28.19,3.5,28.19l-13.7,31.5c-1-1.1-2.1-2.2-3.2-4.1c-5.1,9.6-10.6,19.3-23.9,24.2
			l3.5-25.9c-2.5-0.1-4.3,0.6-6.2,1.2C75.52,270.21,77.62,232.91,76.22,196.21z"/>
		<path id="path69" class="st6" d="M89.82,186.21c-1.5,40.4-3.6,39.6,2,40.1c6.6,0.6,4.1-5.9,6.6-46l-3.1,2.2
			c-1.5,18.6-0.4,22.5-2.3,23.3c-1.7,0.7-0.8-5.1-0.4-21.8L89.82,186.21z"/>
		<path id="path59" class="st6" d="M90.62,248.51c1.5-0.1,1.1-4.8,1.8-17l3,0.1c-1,26.2-1.9,38.1-6.9,37.5c-5.5-0.7-2.5-16.2-0.8-38
			l2.7,0.2C89.32,244.61,88.92,248.61,90.62,248.51z"/>
		<path id="path63" class="st6" d="M98.42,290.51c1.5-1.1,4-18.2,4-18.2l1.6,7.5c-3.4,18.2-8.2,32.6-11.6,29.8
			c-2.2-1.8,1.4-13.3,6.2-50.6l2.3,1.2C100.82,269.41,95.42,292.81,98.42,290.51z"/>
		<path id="path61" class="st6" d="M81.52,306.01c1.7,1,5.4-17.4,7.9-31.7l2.6,0.4c-2,17.5-6.8,43.9-15.3,53.8
			c-5.5,6.3-1-26.7,7.2-54.9l2.9,0.4C82.92,294.31,79.62,304.91,81.52,306.01L81.52,306.01z"/>
		<path id="path3894" class="st20" d="M79.42,201.51c1.8,1.3,3.7,2.1,5.1,1.8c-2.9,37.9-2.9,68.9-13.4,106.9l-3.8,0.3
			C75.52,277.71,78.92,244.61,79.42,201.51z"/>
		<path id="path3109" class="st20" d="M102.52,235.71c-2.1-0.3-1.4-2.6-0.9-17.6l-2-0.7c-1.8,33.4-1.8,38,1.2,38.5
			C101.32,255.91,102.32,239.71,102.52,235.71z"/>
		<path id="path3109-1" class="st20" d="M104.62,196.61c-2.1,0-1.2-7.7-0.8-20l-2.3,1.6c-1.3,29.8-2.5,35.1,1.5,35.4
			C104.02,213.71,103.82,211.31,104.62,196.61z"/>
		<path id="path3897" class="st21" d="M78.32,198.21c6.5-3.4,4.4-4.9,7.3-7.4C86.72,200.11,86.82,205.41,78.32,198.21z"/>
		<path id="path51-1" class="st6" d="M238.92,112.41l-3.5,1.3c0.4,17.2,0.4,29.8,5.8,29.5c6-0.4,4.8-3.8,3-32.4l-2.9,0.8
			c0.2,6.9,1.2,17.8-0.8,17.6C239.32,129.11,239.32,119.31,238.92,112.41z"/>
		<path id="path3932" class="st22" d="M197.52,115.51c-6.1,3.4-13.2,17.2-14.5,36.1l15.9,1.6L197.52,115.51z"/>
		<path id="path3932-0" class="st22" d="M209.42,115.11l-1.7,38.1l16.3-1.5C222.52,132.21,216.32,120.61,209.42,115.11z"/>
		<path id="rect3934" class="st22" d="M207.72,161.51l1.4,43.3c8.6-5.6,14.9-21.4,15.2-41.9L207.72,161.51z"/>
		<path id="path3932-0-8" class="st22" d="M182.62,163.01c1,20.5,6.4,35,14.6,41.2l1.7-42.7L182.62,163.01z"/>
		<path id="path4041" class="st23" d="M182.92,152.51l16.7,1.4l-1.3-38.9c2.7-2.3,7.1-2.2,10.3-0.3l-1.5,39.2l17.2-1.4
			c0.1,2.7,0.2,7.2,0,9.3l-17.3-1.1l1.3,44.3c-3.5,2.6-8.5,1.1-10.5-0.5l1.7-43.9l-17,1.4
			C182.72,153.11,182.82,154.11,182.92,152.51z"/>
		<path id="path4141" class="st17" d="M156.12,92.21c5.1,5.8,12,5.6,15.9,0c0.4,6.2,1.1,9.7,5.8,13c-4.8,2.8-24.6,2.4-29.5,0
			C153.22,104.51,155.82,101.51,156.12,92.21z"/>
		
			<linearGradient id="path4143_1_" gradientUnits="userSpaceOnUse" x1="164.1674" y1="383.3912" x2="164.1674" y2="363.8409" gradientTransform="matrix(1 0 0 -1 0 438.1)">
			<stop  offset="0" style="stop-color:#7E5827"/>
			<stop  offset="1" style="stop-color:#010101"/>
		</linearGradient>
		<path id="path4143" class="st24" d="M147.12,74.31c2.2-26.5,31.6-25.4,34.1-0.7l-3.9,0.1c1-18.9-27.8-19.1-26.2,0.5L147.12,74.31z
			"/>
		<path id="path4145" class="st16" d="M123.02,253.91c2.2,3.1,4.5,5,9.1,5.3c0.4-0.8,0.2-1.3,0-2.1
			C126.72,257.01,125.42,255.11,123.02,253.91z"/>
		<path id="path4145-1" class="st16" d="M196.42,255.41c-2.2,3.1-4.2,4.5-8.9,4.8c-0.2-0.5-0.4-1.2-0.4-2
			C192.62,258.11,194.02,256.71,196.42,255.41z"/>
		<path id="path4165" class="st16" d="M134.32,257.11c3.3,2.3,8,3.4,12.3,1.4c0,0.9,0.1,1.4-0.1,2.3c-3.1,1.6-9.1,1.1-12.3-1.4
			C134.02,258.31,134.22,257.71,134.32,257.11z"/>
		<path id="path4165-7" class="st16" d="M148.52,258.91c3.3,3.1,13.4,2.3,18.4,0.2c0.2,0.8,0.3,1.5,0,2.3
			c-4.6,3.4-14.9,3.6-18.4-0.6C148.22,259.51,148.42,259.51,148.52,258.91L148.52,258.91z"/>
		<path id="path4165-1" class="st16" d="M169.22,259.31c4.8,2,12.4,1.6,15.9-0.8c0.3,0.6,0.8,1,0.4,2.4c-3.8,2.5-10.7,3.5-16.1,0.7
			C169.12,261.01,169.02,260.21,169.22,259.31z"/>
		<path id="path243-1" class="st7" d="M158.62,73.71c-0.9,0-1.5,0.7-1.5,1.6s0.7,1.6,1.5,1.6s1.5-0.7,1.5-1.6
			S159.42,73.71,158.62,73.71z"/>
		<path id="path59-1" class="st6" d="M244.62,249.11c-1.5-0.1-1.1-4.8-1.8-17l-3,0.1c1,26.2,1.7,37.1,6.7,36.5
			c5.5-0.7,2.7-15.3,1-37.1l-2.7,0.2C245.82,245.21,246.32,249.21,244.62,249.11L244.62,249.11z"/>
		<path id="path61-6" class="st6" d="M252.82,304.91c-1.7,1-5.4-17.4-7.9-31.7l-2.6,0.4c2,17.5,6.8,43.9,15.3,53.8
			c5.5,6.3,1-26.7-7.2-54.9l-2.9,0.4C251.52,293.21,254.82,303.71,252.82,304.91L252.82,304.91z"/>
		<path id="path67-8" class="st8" d="M232.52,125.31c0.8,10.1,0.5,28.9,0.5,28.9c-0.2-3.4-1.7-16.7-3.4-23.1c0-2.7-0.1-5.4-0.1-5.4
			S231.72,125.31,232.52,125.31L232.52,125.31z"/>
		<path id="path2971-8-2" class="st25" d="M39.02,100.41c10.5,9.4,7.7,31.9,11.4,21.7c16.7,13.5,8,35.9,14,26.4
			c3.7,3.3,5.9,9.5,6.1,15.2l-8,5.7c-5.9-4.1-7.9-15.7-8.7-24.1c-0.2,7.5-12.2-3.4-12.8-25.2c-4.9,1.5-9.2-9.4-9.8-13.3
			c8,6.1-4.3-6.2-3.2-18.3C27.92,88.61,35.82,97.51,39.02,100.41L39.02,100.41z"/>
		<path class="st14" d="M166.32,82.81"/>
	</g>
</g>
</svg>
