<svg xmlns="http://www.w3.org/2000/svg" xmlns:xlink="http://www.w3.org/1999/xlink" version="1.1" style="" xml:space="preserve" width="582" height="479.57480317325746"><rect id="backgroundrect" width="100%" height="100%" x="0" y="0" fill="none" stroke="none" class="" style=""/>
<style type="text/css">
	.st0{fill:#E30A17;}
</style>
<title>Emblem of Turkey</title>

<g class="currentLayer" style=""><title>Layer 1</title><g id="svg_1" class="">
	<path class="st0" d="M113.38582846028476,241.02362632751465 C113.38582846028476,169.62362632751464 171.92686504227785,111.72362632751465 244.11736611230046,111.72362632751465 c46.509286403656006,0 87.35657272338868,24 110.5101087808609,60.2 c-19.10925028324127,-21.1 -46.9137149810791,-34.4 -77.85250115394592,-34.4 C219.0427943120685,137.52362632751465 172.23018647534516,183.92362632751465 172.23018647534516,241.02362632751465 s46.81260783672332,103.5 104.64589440822601,103.5 c30.938786172866823,0 58.74325087070465,-13.3 77.85250115394592,-34.4 c-23.153536057472227,36.2 -64.0008223772049,60.2 -110.5101087808609,60.2 C171.92686504227785,370.32362632751466 113.38582846028476,312.4236263275146 113.38582846028476,241.02362632751465 z" id="svg_2"/>
	<polygon class="st0" points="472.92283856868744,203.02361869812012 427.72792279720306,217.52361869812012 399.8223441839218,179.52361869812012 399.8223441839218,226.52361869812012 354.7285941839218,241.02361869812012 399.8223441839218,255.52361869812012 399.8223441839218,302.5236186981201 427.72792279720306,264.5236186981201 472.92283856868744,279.0236186981201 445.0172599554062,241.02361869812012 " id="svg_3"/>
</g></g></svg>