<?xml version="1.0" encoding="utf-8"?>
<svg viewBox="0 0 600 1200" width="600" height="1200" xmlns="http://www.w3.org/2000/svg">
  <g>
    <path d="M 0 0 L 600 0 L 600 1200 L 0 1200 L 0 0 Z" style="fill: rgb(255, 255, 255);"/>
    <path d="M 240 540 L 240 0 L 360 0 L 360 540 L 600 540 L 600 660 L 360 660 L 360 1200 L 240 1200 L 240 660 L 0 660 L 0 540 L 240 540 Z" style="fill: rgb(200, 16, 46);"/>
    <path d="M 110.928 178.5 L 118.428 169.5 L 125.928 178.5 L 126.228 310.8 L 148.5 310.8 C 153.468 310.8 157.5 314.832 157.5 319.8 C 157.5 324.768 153.468 328.8 148.5 328.8 C 143.532 328.8 139.5 324.768 139.5 319.8 L 125.178 319.8 L 125.178 355.548 C 126.576 357.138 127.428 359.22 127.428 361.5 C 127.428 366.468 123.396 370.5 118.428 370.5 C 113.46 370.5 109.428 366.468 109.428 361.5 C 109.428 359.22 110.28 357.138 111.678 355.548 L 111.678 319.8 L 91.5 319.8 C 86.532 319.8 82.5 315.768 82.5 310.8 C 82.5 305.832 86.532 301.8 91.5 301.8 C 96.468 301.8 100.5 305.832 100.5 310.8 L 111.228 310.8 L 110.928 178.5 Z" style="fill: rgb(200, 16, 46); transform-origin: 120px 270px;"/>
  </g>
</svg>