<?xml version="1.0" encoding="UTF-8"?>
<svg xmlns="http://www.w3.org/2000/svg" width="1200" height="800" viewBox="0 0 1044 696">
<rect fill="#0076B8" width="1044" height="696"/>
<path fill="#FFD700" d="M0 0l0 190 18 28 18 -28 0 -118 18 -28 18 28 0 118 18 28 18 -28 0 -118 18 -28 18 28 0 118 18 28 18 -28 0 -118 18.4417 -28 17.5559 28 0 118 18 28 18 -28 0 -118 18 -28 18 28 0 118 18 28 18 -28 0 -118 18 -28 18 28 0 118 18 28 18 -28 0 -118 18 -28 18 28 0 118 18 28 18 -28 0 -118 18 -28 18 28 0 118 18 28 18 -28 0 -118 18 -28 18 28 0 118 18 28 18 -28 0 -118 18 -28 18 28 0 118 18 28 18 -28 0 -118 18 -28 18 28 0 118 18 28 18 -28 0 -118 18 -28 18 28 0 118 18 28 18 -28 0 -118 18 -28 18 28 0 118 18 28 18 -28 0 -118 18 -28 18 28 0 118 18 28 18 -28 0 -118 18 -28 18 28 0 118 18 28 18 -28 0 -190 -1044 0z"/>
  <path fill="#FFD700" d="M408 349c7,-58 56,-102 114,-102 58,0 107,44 114,102z"/>
<g fill="#FFD700" stroke="#007CC3" stroke-width="2">
  <rect x="417" y="354" width="210" height="18"/>
  <rect x="506" y="374" width="32" height="220"/>
  <rect x="434" y="374" width="32" height="220"/>
  <rect x="578" y="374" width="32" height="220"/>
  <rect x="415" y="595" width="214" height="20"/>
  <rect x="397" y="616" width="250" height="20"/>
  <rect x="378" y="637" width="288" height="20"/>
 </g>
</svg>