<svg xmlns="http://www.w3.org/2000/svg" viewBox="0 0 200 240" role="img">
  <title>Coat of arms of the Russian Empire</title>
  <rect width="200" height="240" fill="#8b0000"/>
  <rect x="20" y="30" width="160" height="180" fill="#ffcc00" stroke="#000" stroke-width="2"/>
  <path fill="#ffcc00" stroke="#000" stroke-width="1.5"
    d="M100 55c-18 0-30 10-30 24 0 8 4 14 10 18-6 2-10 8-10 15 0 10 8 18 18 20v8h24v-8c10-2 18-10 18-20 0-7-4-13-10-15 6-4 10-10 10-18 0-14-12-24-30-24z"/>
  <circle cx="82" cy="62" r="9" fill="#ffcc00" stroke="#000" stroke-width="1.2"/>
  <circle cx="118" cy="62" r="9" fill="#ffcc00" stroke="#000" stroke-width="1.2"/>
  <path fill="#ffcc00" stroke="#000" stroke-width="1"
    d="M100 145l-18 28h36z"/>
  <rect x="88" y="170" width="24" height="18" fill="#ffcc00" stroke="#000"/>
</svg>
