<svg xmlns="http://www.w3.org/2000/svg" xmlns:xlink="http://www.w3.org/1999/xlink" xmlns:xodm="http://www.corel.com/coreldraw/odm/2003" xml:space="preserve" version="1.1" shape-rendering="geometricPrecision" text-rendering="geometricPrecision" image-rendering="optimizeQuality" fill-rule="evenodd" clip-rule="evenodd" width="1800px" height="1200px" viewBox="0 0 1800 1200">
<title property="dc:title">flag_kalacha_na_donu_volgogradskaya_oblast</title>
<desc property="dc:creator">www.interflag.ru</desc>
<g id="Слой_x0020_1">
<metadata id="CorelCorpID_0Corel-Layer"/>
<g id="_1653385280128">
<g>
<rect fill="#FEFEFE" x="1.6" y="0.84" width="1798.4" height="1199.16"/>
<path fill="#E31E25" d="M1800 772.13l0 -772.13c-366.53,0 -1431.72,0.56 -1798.4,0.84 -0.18,257.1 -1.19,514.21 -1.6,771.29l726.33 0 3.06 0 1.64 2.61c14.4,22.92 38.4,42.4 68.56,56.08 29.49,13.37 64.81,21.15 102.81,21.15 38.01,0 73.33,-7.78 102.82,-21.15 30.15,-13.68 54.15,-33.16 68.56,-56.08l1.64 -2.61 3.06 0 721.52 0z"/>
<path fill="#009847" d="M1800 984.17l-685.93 0c-18.67,23.6 -48.36,43.54 -85.14,57.51 -36.42,13.85 -79.89,21.89 -126.53,21.89 -46.63,0 -90.1,-8.04 -126.53,-21.89 -36.78,-13.97 -66.46,-33.91 -85.13,-57.51l-690.74 0 0 215.83 1800 0 0 -215.83z"/>
<path fill="#2B2A29" fill-rule="nonzero" d="M754.37 143.79c52.49,-1.98 106.04,12.6 151.11,41.82 20.29,-18.62 46.07,-29.78 73.74,-35.87 35.65,-7.83 74.47,-7.24 108.72,-3.35 28.23,3.21 55.57,13.26 79.77,28.6 24.32,15.42 45.49,36.21 61.24,60.79 15.04,23.48 24.98,52.67 30.74,83.49 6.6,35.26 7.75,72.68 4.85,106.1 -4.83,55.64 -24.91,104.35 -55.94,145.2 -33.35,43.92 -79.35,78.72 -132.64,103.25 -41.83,19.26 -95.97,29.16 -150.74,30.82 -58.25,1.78 -117.31,-5.75 -163.1,-21.21 -40.2,-13.57 -77.69,-33.31 -110.85,-60.36 -30.81,-25.14 -57.87,-56.59 -79.88,-95.27 -26.67,-46.89 -36.49,-114.69 -28.35,-178.93 7.56,-59.81 30.7,-116.64 70.26,-150.86 40.23,-34.8 90.16,-52.29 141.07,-54.22zm4.78 106.07c-15.59,0.04 -29.87,3.84 -41.56,11.06 -11.62,7.18 -20.71,17.76 -25.98,31.39 -7.73,19.99 -7.31,46.6 5.2,78.77 8.18,21.03 25.15,41.36 45.62,58.76 23.68,20.13 51.98,36.3 76.81,45.12 36.55,12.99 79.02,16.95 119.92,11.36 38.82,-5.3 76.22,-19.2 105.79,-42.13 15.4,-11.94 32.08,-27.72 45.71,-46.02 10.95,-14.72 19.94,-31.08 24.67,-48.37 8.04,-29.38 4.61,-52.37 -5.39,-68.89 -6.7,-11.07 -16.38,-19.27 -27.55,-24.58 -11.24,-5.34 -23.98,-7.75 -36.73,-7.2 -21.44,0.93 -42.9,10.23 -57.26,28.08 -1.27,1.58 -2.76,3.46 -4.3,5.4 -8.11,10.23 -17.12,21.6 -27.77,30.59 -7.05,5.96 -15,10.35 -23.32,13.17 -12.97,4.42 -26.88,5.05 -39.75,1.97 -12.93,-3.09 -24.81,-9.91 -33.67,-20.39 -4.73,-5.6 -8.59,-12.24 -11.29,-19.9 -24.38,-21.84 -55.75,-38.27 -89.15,-38.19z"/>
<path fill="#F3AD32" fill-rule="nonzero" d="M901.35 189.56c-43.88,-28.13 -95.85,-42.14 -146.78,-40.22 -49.7,1.88 -98.41,18.94 -137.64,52.87 -38.46,33.26 -60.98,88.8 -68.39,147.35 -7.99,63.12 1.59,129.63 27.69,175.5 21.65,38.06 48.26,68.99 78.54,93.7 32.63,26.62 69.54,46.05 109.11,59.41 45.2,15.25 103.56,22.68 161.19,20.93 54.06,-1.65 107.42,-11.38 148.56,-30.32 52.51,-24.18 97.78,-58.41 130.56,-101.56 30.39,-40.02 50.06,-87.77 54.8,-142.33 2.87,-32.98 1.74,-69.88 -4.76,-104.6 -5.64,-30.16 -15.33,-58.67 -29.96,-81.51 -15.3,-23.88 -35.89,-44.09 -59.55,-59.09 -23.5,-14.91 -50.03,-24.67 -77.39,-27.78 -33.73,-3.82 -71.94,-4.42 -106.94,3.27 -18.96,4.17 -36.97,10.77 -52.78,20.62 -10.32,6.24 -17.2,13.14 -25.33,20.23 -14.34,12.21 -27.83,27.43 -37.17,43.17 -6.55,11.06 -16.19,33.42 -11.79,46.37 2.48,7.27 6.08,13.54 10.52,18.79 8.07,9.55 18.91,15.77 30.7,18.59 11.86,2.83 24.69,2.24 36.69,-1.84 7.67,-2.61 15.01,-6.66 21.51,-12.15 10.22,-8.64 19.06,-19.78 27.01,-29.81 1.39,-1.75 2.77,-3.49 4.32,-5.42 15.42,-19.16 38.4,-29.15 61.35,-30.14 13.64,-0.59 27.29,1.99 39.34,7.72 12.11,5.75 22.62,14.68 29.92,26.73 10.75,17.75 14.48,42.22 6,73.22 -4.93,18.03 -14.24,34.99 -25.56,50.21 -13.97,18.76 -31.04,34.9 -46.78,47.11 -30.36,23.55 -68.69,37.81 -108.44,43.24 -41.77,5.71 -85.15,1.66 -122.51,-11.62 -25.42,-9.03 -54.36,-25.56 -78.55,-46.12 -21.11,-17.95 -38.66,-39.03 -47.21,-61 -13.05,-33.57 -13.4,-61.56 -5.2,-82.78 5.73,-14.8 15.61,-26.29 28.24,-34.1 12.57,-7.76 27.85,-11.85 44.48,-11.89 27.64,-0.06 59.05,11.09 87.8,35.19 -0.43,-13.72 4.8,-28.67 13.38,-43.13 10.22,-17.24 25.25,-33.87 41.02,-46.81z"/>
<path fill="#F9C52E" fill-rule="nonzero" d="M886.24 190.88c-18.23,-10.46 -37.69,-18.5 -57.72,-23.99 -24.05,-6.59 -48.96,-9.53 -73.63,-8.6 -24.46,0.93 -48.65,5.66 -71.46,14.43 -21.73,8.34 -42.26,20.37 -60.64,36.27 -17.48,15.12 -31.54,35.24 -42.24,58.3 -11.73,25.26 -19.4,53.93 -23.13,83.4 -3.94,31.12 -3.49,63.08 1.2,92.84 4.54,28.76 13.05,55.39 25.4,77.1 10.35,18.19 21.88,34.73 34.45,49.72 12.99,15.5 27.03,29.28 41.96,41.46 15.57,12.7 32.13,23.72 49.5,33.18 18.1,9.85 37.1,18.03 56.8,24.68 21.98,7.42 47.17,12.95 73.88,16.42 27.08,3.51 55.73,4.92 84.22,4.05 27.29,-0.83 54.39,-3.76 79.76,-8.94 23.74,-4.84 45.93,-11.66 65.29,-20.57 25.98,-11.96 50.16,-26.46 71.86,-43.34 21.06,-16.38 39.71,-34.93 55.32,-55.48 15.01,-19.77 27.31,-41.46 36.37,-64.97 8.66,-22.5 14.36,-46.77 16.61,-72.72 1.45,-16.72 1.87,-34.35 1.06,-52.06 -0.76,-16.74 -2.6,-33.67 -5.68,-50.12 -2.82,-15.08 -6.7,-29.74 -11.73,-43.45 -4.65,-12.65 -10.28,-24.42 -16.97,-34.87 -7.26,-11.32 -15.75,-21.78 -25.21,-31.17 -9.56,-9.49 -20.19,-17.94 -31.6,-25.18 -11.38,-7.22 -23.41,-13.14 -35.81,-17.6 -12.18,-4.37 -24.85,-7.37 -37.75,-8.84 -17.84,-2.02 -36.87,-3.13 -55.88,-2.55 -16.17,0.5 -32.47,2.23 -48.18,5.68 -9.35,2.05 -18.41,4.71 -27.02,8.08 -8.05,3.14 -15.73,6.91 -22.92,11.38l-0.11 0.07c-7.67,4.64 -13.39,9.76 -19.3,15.05 -1.74,1.56 -3.48,3.12 -4.76,4.23l-0.11 0.07c-6.85,5.83 -13.61,12.54 -19.89,19.83 -5.85,6.81 -11.09,13.93 -15.34,21.09 -3.47,5.86 -7.88,15.17 -10.19,24.25 -1.46,5.73 -2.05,11.1 -0.83,14.68 1.03,3.03 2.3,5.86 3.77,8.49 1.52,2.71 3.23,5.17 5.09,7.38 3.35,3.96 7.23,7.23 11.45,9.79 4.47,2.7 9.36,4.67 14.49,5.89 5.09,1.22 10.45,1.7 15.86,1.43 5.31,-0.27 10.66,-1.29 15.87,-3.06 3.44,-1.17 6.74,-2.63 9.83,-4.37 2.99,-1.69 5.93,-3.73 8.76,-6.12 9.54,-8.06 18.09,-18.84 25.78,-28.54l0.01 -0.01 0 0 2.1 -2.64c0.29,-0.38 0.93,-1.17 2.25,-2.82 8.32,-10.33 18.64,-18.28 29.97,-23.85 11.93,-5.86 24.98,-9.06 37.98,-9.63 7.63,-0.33 15.21,0.23 22.51,1.66 7.28,1.43 14.37,3.73 21.04,6.9 6.93,3.3 13.42,7.55 19.24,12.74 5.56,4.96 10.47,10.79 14.51,17.47 6.32,10.43 10.48,22.83 11.66,37.14 1.04,12.76 -0.31,27.13 -4.67,43.07 -2.56,9.35 -6.14,18.31 -10.47,26.81 -4.67,9.18 -10.31,18.02 -16.54,26.39 -6.82,9.17 -14.34,17.72 -22.07,25.51 -8.73,8.79 -17.77,16.64 -26.42,23.36 -15.48,12 -32.95,21.7 -51.6,29.13 -19.43,7.75 -40.1,13.03 -61.13,15.9 -21.57,2.95 -43.59,3.37 -65.05,1.33 -21.46,-2.03 -42.34,-6.52 -61.63,-13.38 -13.44,-4.77 -27.83,-11.57 -42.05,-19.92 -13.66,-8.02 -27.1,-17.43 -39.31,-27.81 -11.42,-9.71 -21.87,-20.34 -30.56,-31.57 -8.16,-10.55 -14.78,-21.64 -19.21,-33.05 -6.66,-17.11 -10.19,-32.92 -11.09,-47.26 -0.99,-15.75 1.18,-29.81 5.89,-41.98 3.19,-8.25 7.51,-15.58 12.76,-21.92 5.42,-6.54 11.86,-12.08 19.13,-16.57 7.07,-4.37 14.84,-7.68 23.11,-9.89 8.15,-2.18 16.91,-3.31 26.07,-3.33 15.36,-0.03 31.74,3.11 48.17,9.7 10.87,4.35 21.77,10.21 32.43,17.64 0.48,-2.13 1.05,-4.26 1.71,-6.39 2.56,-8.23 6.38,-16.48 11.14,-24.5 5.26,-8.86 11.72,-17.58 18.91,-25.77 4.65,-5.31 9.61,-10.4 14.73,-15.16z"/>
<path fill="#FCD326" fill-rule="nonzero" d="M871.31 193c-14.49,-7.38 -29.64,-13.22 -45.14,-17.47 -23.17,-6.35 -47.18,-9.18 -70.97,-8.28 -23.5,0.88 -46.71,5.42 -68.58,13.82 -20.75,7.97 -40.37,19.48 -57.96,34.69 -16.47,14.25 -29.78,33.34 -39.97,55.29 -11.34,24.45 -18.77,52.21 -22.39,80.76 -3.83,30.29 -3.4,61.4 1.17,90.35 4.37,27.7 12.53,53.28 24.35,74.05 10.05,17.66 21.27,33.76 33.53,48.38 12.65,15.09 26.28,28.47 40.73,40.27 15.16,12.36 31.26,23.08 48.13,32.27 17.62,9.59 36.14,17.56 55.36,24.05 21.45,7.24 46.06,12.63 72.16,16.02 26.63,3.46 54.81,4.84 82.85,3.99 26.78,-0.81 53.35,-3.69 78.22,-8.76 23.05,-4.71 44.58,-11.32 63.32,-19.95 25.34,-11.66 48.93,-25.81 70.11,-42.29 20.52,-15.96 38.63,-33.94 53.7,-53.79 14.51,-19.1 26.4,-40.06 35.14,-62.75 8.34,-21.66 13.83,-45.12 16.02,-70.31 1.43,-16.46 1.84,-33.7 1.06,-50.89 -0.74,-16.31 -2.54,-32.82 -5.54,-48.86 -2.73,-14.57 -6.47,-28.75 -11.35,-42.01 -4.43,-12.07 -9.77,-23.25 -16.09,-33.11 -6.91,-10.79 -14.99,-20.74 -23.98,-29.66 -9.06,-8.99 -19.18,-17.04 -30.09,-23.96 -10.9,-6.91 -22.33,-12.55 -34.02,-16.75 -11.49,-4.12 -23.47,-6.96 -35.72,-8.35 -17.53,-1.99 -36.16,-3.08 -54.65,-2.51 -15.55,0.47 -31.29,2.15 -46.53,5.5 -8.91,1.96 -17.52,4.48 -25.65,7.65 -7.54,2.95 -14.73,6.47 -21.44,10.65l-0.21 0.14c-7.07,4.28 -12.43,9.07 -17.97,14.03 -1.94,1.73 -3.88,3.47 -4.83,4.3l-0.21 0.14c-6.36,5.41 -12.78,11.8 -18.88,18.89 -5.56,6.46 -10.49,13.15 -14.43,19.79 -3.14,5.29 -7.13,13.7 -9.21,21.89 -1.07,4.23 -1.62,7.86 -1.03,9.59 0.84,2.48 1.89,4.81 3.1,6.98 1.25,2.23 2.63,4.22 4.11,5.98 2.73,3.23 5.86,5.88 9.24,7.92 3.65,2.21 7.68,3.83 11.92,4.84 4.24,1.02 8.76,1.41 13.37,1.18 4.45,-0.22 8.97,-1.08 13.41,-2.59 3,-1.02 5.8,-2.25 8.32,-3.67 2.44,-1.38 4.9,-3.1 7.36,-5.18 8.85,-7.48 17.11,-17.9 24.54,-27.27l0.01 -0.01 0 0 2.1 -2.65 2.3 -2.84c9.16,-11.39 20.52,-20.14 33.02,-26.28 13.07,-6.42 27.33,-9.93 41.53,-10.54 8.37,-0.36 16.66,0.24 24.61,1.8 7.98,1.57 15.78,4.1 23.15,7.6 7.66,3.64 14.88,8.37 21.38,14.18 6.2,5.53 11.67,12.04 16.2,19.5 7.03,11.62 11.66,25.34 12.95,41.07 1.12,13.7 -0.32,29.09 -4.98,46.14 -2.76,10.06 -6.55,19.58 -11.1,28.53 -4.88,9.57 -10.79,18.83 -17.35,27.65 -7.11,9.55 -14.91,18.42 -22.92,26.49 -9,9.07 -18.34,17.18 -27.29,24.13 -16.14,12.51 -34.34,22.61 -53.78,30.37 -20.13,8.02 -41.52,13.48 -63.23,16.45 -22.24,3.04 -44.94,3.47 -67.09,1.37 -22.23,-2.11 -43.83,-6.74 -63.78,-13.83 -13.91,-4.95 -28.83,-12 -43.59,-20.67 -14.14,-8.29 -28.01,-18.01 -40.57,-28.69 -11.87,-10.08 -22.76,-21.17 -31.86,-32.93 -8.66,-11.19 -15.71,-23.04 -20.48,-35.3 -7.01,-18.02 -10.73,-34.72 -11.69,-49.93 -1.07,-17.07 1.32,-32.41 6.49,-45.77 3.56,-9.21 8.37,-17.37 14.21,-24.42 6.01,-7.26 13.2,-13.43 21.33,-18.46 7.87,-4.85 16.44,-8.52 25.5,-10.95 8.84,-2.36 18.38,-3.58 28.39,-3.6 16.49,-0.04 34,3.31 51.51,10.33 8,3.2 16.01,7.17 23.93,11.93 2.66,-7.27 6.15,-14.45 10.29,-21.43 5.52,-9.3 12.32,-18.47 19.89,-27.1 2.12,-2.43 4.31,-4.81 6.54,-7.14z"/>
</g>
<g>
<path fill="#B3B3B3" d="M0 0l1800 0 0 1200 -1800 0 0 -1200zm1794.69 5.31l-1789.38 0 0 1189.38 1789.38 0 0 -1189.38z"/>
</g>
</g>
</g>
</svg>
