<?xml version="1.0" encoding="UTF-8" standalone="no"?>
<!-- Created with Inkscape (http://www.inkscape.org/) -->

<svg
   width="195.65529mm"
   height="272.93869mm"
   id="svg3032"
   version="1.1"
   inkscape:version="1.2.2 (732a01da63, 2022-12-09)"
   sodipodi:docname="comune.svg"
   xmlns:inkscape="http://www.inkscape.org/namespaces/inkscape"
   xmlns:sodipodi="http://sodipodi.sourceforge.net/DTD/sodipodi-0.dtd"
   xmlns="http://www.w3.org/2000/svg"
   xmlns:svg="http://www.w3.org/2000/svg"
   xmlns:rdf="http://www.w3.org/1999/02/22-rdf-syntax-ns#"
   xmlns:cc="http://creativecommons.org/ns#"
   xmlns:dc="http://purl.org/dc/elements/1.1/">
  <defs
     id="defs3034" />
  <sodipodi:namedview
     id="base"
     pagecolor="#ffffff"
     bordercolor="#666666"
     borderopacity="1.0"
     inkscape:pageopacity="0.0"
     inkscape:pageshadow="2"
     inkscape:zoom="0.35"
     inkscape:cx="-922.85714"
     inkscape:cy="527.14286"
     inkscape:document-units="pt"
     inkscape:current-layer="layer1"
     showgrid="false"
     inkscape:window-width="1920"
     inkscape:window-height="991"
     inkscape:window-x="-9"
     inkscape:window-y="-9"
     inkscape:window-maximized="1"
     inkscape:showpageshadow="2"
     inkscape:pagecheckerboard="0"
     inkscape:deskcolor="#d1d1d1" />
  <metadata
     id="metadata3037">
    <rdf:RDF>
      <cc:Work
         rdf:about="">
        <dc:format>image/svg+xml</dc:format>
        <dc:type
           rdf:resource="http://purl.org/dc/dcmitype/StillImage" />
      </cc:Work>
    </rdf:RDF>
  </metadata>
  <g
     inkscape:label="Layer 1"
     inkscape:groupmode="layer"
     id="layer1"
     transform="translate(-87.400651,-6.730067)">
    <g
       id="g835"
       transform="translate(57.142857,-57.142857)">
      <g
         transform="translate(1362.3729,-827.73934)"
         id="g882">
        <path
           style="fill:#f2f2f2;fill-opacity:1;stroke:#000000;stroke-width:6"
           d="m -962.37281,1919.4226 c 274.67306,-208.3168 366.74225,-450.2325 366.74225,-653.4945 0,-210.3302 -152.13406,-371.3157 -366.74225,-371.3157 -214.60579,0 -366.74229,160.999 -366.74229,371.3157 0,212.4829 92.0692,444.0968 366.74229,653.4945 z"
           id="rect2333"
           sodipodi:nodetypes="czzzc"
           inkscape:connector-curvature="0" />
        <path
           inkscape:connector-curvature="0"
           sodipodi:nodetypes="czzzc"
           id="path29280"
           d="m -962.37281,1887.7214 c 257.47473,-195.2725 343.77811,-422.0401 343.77811,-612.5743 0,-197.1597 -142.60574,-348.06472 -343.77811,-348.06472 -201.16509,0 -343.77569,150.91762 -343.77569,348.06472 0,199.1776 86.3034,416.2886 343.77569,612.5743 z"
           style="fill:#f9f9f9;fill-opacity:1;stroke:none;stroke-width:5.62429" />
        <path
           style="fill:#ffffff;fill-opacity:1;stroke:none;stroke-width:5.1811"
           d="m -962.37281,1849.8722 c 237.18568,-179.8853 316.68899,-388.7835 316.68899,-564.3034 0,-181.6237 -131.36895,-320.63729 -316.68899,-320.63729 -185.31279,0 -316.68659,139.02539 -316.68659,320.63729 0,183.4823 79.5033,383.4849 316.68659,564.3034 z"
           id="path29282"
           sodipodi:nodetypes="czzzc"
           inkscape:connector-curvature="0" />
      </g>
      <path
         inkscape:connector-curvature="0"
         sodipodi:nodetypes="czzzc"
         id="path3006"
         d="m 399.99999,1091.6834 c 274.6715,-208.31688 366.7423,-450.23288 366.7423,-653.49488 0,-210.3302 -152.1354,-371.315596 -366.7423,-371.315596 -214.6069,0 -366.742196,160.998896 -366.742196,371.315596 0,212.483 92.067696,444.0971 366.742196,653.49488 z"
         style="fill:none;stroke:#000000;stroke-width:6" />
      <g
         transform="translate(1044.4775,30.909561)"
         id="g986">
        <path
           style="fill:#ee0000;fill-opacity:1;stroke:none;stroke-width:6"
           d="m -644.47641,35.962891 c 214.60474,9.78e-4 366.74028,161.000349 366.74028,371.316409 0,212.4823 -92.06893,444.09495 -366.74028,653.4922 z"
           id="path29436"
           inkscape:connector-curvature="0" />
        <path
           style="fill:#f70000;fill-opacity:1;stroke:none;stroke-width:5.62429"
           d="m -644.47641,68.433594 c 201.16408,9.79e-4 343.77539,150.917906 343.77539,348.064456 0,199.17697 -86.30478,416.28696 -343.77539,612.57225 z"
           id="path29438"
           inkscape:connector-curvature="0" />
        <path
           style="fill:#ff0000;fill-opacity:1;stroke:none;stroke-width:5.1811"
           d="m -644.47641,106.2832 c 185.31175,9.8e-4 316.68554,139.02546 316.68554,320.63672 0,183.48172 -79.50398,383.48266 -316.68554,564.30078 z"
           id="path29440"
           inkscape:connector-curvature="0" />
        <path
           style="fill:none;fill-opacity:1;stroke:#000000;stroke-width:6"
           d="M -644.47745,1060.7737 C -919.15051,852.45694 -1011.2197,610.54117 -1011.2197,407.27924 c 0,-210.33024 152.13406,-371.315741 366.74225,-371.315741 214.60578,0 366.74222,160.999041 366.74222,371.315741 0,212.48287 -92.06916,444.09679 -366.74222,653.49446 z"
           id="path979"
           sodipodi:nodetypes="czzzc"
           inkscape:connector-curvature="0" />
      </g>
    </g>
  </g>
</svg>
